<svg width="1050" height="583" viewBox="0 0 1050 583" fill="none" xmlns="http://www.w3.org/2000/svg">
<g filter="url(#filter0_f_76_5009)">
<path d="M16.7372 89.1547L110 35.3094L203.263 89.1547V196.845L110 250.691L16.7372 196.845V89.1547Z" stroke="#6D6D6D" stroke-width="4"/>
<path d="M656.737 409.155L750 355.309L843.263 409.155V516.845L750 570.691L656.737 516.845V409.155Z" stroke="#6D6D6D" stroke-width="4"/>
<path d="M912.048 266.655L975 230.309L1037.95 266.655V339.345L975 375.691L912.048 339.345V266.655Z" stroke="#6D6D6D" stroke-width="4"/>
<path d="M303.048 223.655L366 187.309L428.952 223.655V296.345L366 332.691L303.048 296.345V223.655Z" stroke="#6D6D6D" stroke-width="4"/>
<path d="M183.699 423.155L225 399.309L266.301 423.155V470.845L225 494.691L183.699 470.845V423.155Z" stroke="#6D6D6D" stroke-width="4"/>
<path d="M808.699 129.155L850 105.309L891.301 129.155V176.845L850 200.691L808.699 176.845V129.155Z" stroke="#6D6D6D" stroke-width="4"/>
<path d="M630.349 23.6547L650 12.3094L669.651 23.6547V46.3453L650 57.6906L630.349 46.3453V23.6547Z" stroke="#6D6D6D" stroke-width="4"/>
<path d="M519.349 348.655L539 337.309L558.651 348.655V371.345L539 382.691L519.349 371.345V348.655Z" stroke="#6D6D6D" stroke-width="4"/>
<path d="M469.349 98.6547L489 87.3094L508.651 98.6547V121.345L489 132.691L469.349 121.345V98.6547Z" stroke="#6D6D6D" stroke-width="4"/>
</g>
<g filter="url(#filter1_f_76_5009)">
<path d="M128.278 288V276.364H132.426C133.328 276.364 134.076 276.519 134.67 276.83C135.269 277.14 135.716 277.57 136.011 278.119C136.307 278.665 136.455 279.295 136.455 280.011C136.455 280.723 136.305 281.35 136.006 281.892C135.71 282.43 135.263 282.848 134.665 283.148C134.07 283.447 133.322 283.597 132.42 283.597H129.278V282.085H132.261C132.83 282.085 133.292 282.004 133.648 281.841C134.008 281.678 134.271 281.441 134.438 281.131C134.604 280.82 134.688 280.447 134.688 280.011C134.688 279.572 134.602 279.191 134.432 278.869C134.265 278.547 134.002 278.301 133.642 278.131C133.286 277.956 132.818 277.869 132.239 277.869H130.034V288H128.278ZM134.023 282.75L136.898 288H134.898L132.08 282.75H134.023ZM148.507 288.176C147.647 288.176 146.906 287.992 146.285 287.625C145.668 287.254 145.19 286.733 144.853 286.062C144.52 285.388 144.353 284.598 144.353 283.693C144.353 282.799 144.52 282.011 144.853 281.33C145.19 280.648 145.66 280.116 146.262 279.733C146.868 279.35 147.577 279.159 148.387 279.159C148.88 279.159 149.357 279.241 149.819 279.403C150.281 279.566 150.696 279.822 151.063 280.17C151.431 280.519 151.721 280.972 151.933 281.528C152.145 282.081 152.251 282.754 152.251 283.545V284.148H145.313V282.875H150.586C150.586 282.428 150.495 282.032 150.313 281.688C150.132 281.339 149.876 281.064 149.546 280.864C149.221 280.663 148.838 280.562 148.399 280.562C147.921 280.562 147.505 280.68 147.149 280.915C146.796 281.146 146.524 281.449 146.33 281.824C146.141 282.195 146.046 282.598 146.046 283.034V284.028C146.046 284.612 146.149 285.108 146.353 285.517C146.561 285.926 146.851 286.239 147.222 286.455C147.594 286.667 148.027 286.773 148.524 286.773C148.846 286.773 149.139 286.727 149.404 286.636C149.669 286.542 149.899 286.402 150.092 286.216C150.285 286.03 150.433 285.801 150.535 285.528L152.143 285.818C152.014 286.292 151.783 286.706 151.45 287.062C151.12 287.415 150.705 287.689 150.205 287.886C149.709 288.08 149.143 288.176 148.507 288.176ZM166.428 291.273V286.642H166.326C166.223 286.828 166.076 287.04 165.882 287.278C165.693 287.517 165.432 287.725 165.098 287.903C164.765 288.081 164.333 288.17 163.803 288.17C163.098 288.17 162.47 287.991 161.916 287.631C161.367 287.267 160.935 286.75 160.621 286.08C160.31 285.405 160.155 284.597 160.155 283.653C160.155 282.71 160.312 281.903 160.627 281.233C160.945 280.562 161.38 280.049 161.934 279.693C162.487 279.337 163.113 279.159 163.814 279.159C164.356 279.159 164.791 279.25 165.121 279.432C165.454 279.61 165.712 279.818 165.894 280.057C166.079 280.295 166.223 280.506 166.326 280.688H166.468V279.273H168.127V291.273H166.428ZM164.178 286.722C164.666 286.722 165.079 286.593 165.416 286.335C165.757 286.074 166.015 285.712 166.189 285.25C166.367 284.788 166.456 284.25 166.456 283.636C166.456 283.03 166.369 282.5 166.195 282.045C166.021 281.591 165.765 281.237 165.428 280.983C165.091 280.729 164.674 280.602 164.178 280.602C163.666 280.602 163.24 280.735 162.899 281C162.559 281.265 162.301 281.627 162.127 282.085C161.956 282.544 161.871 283.061 161.871 283.636C161.871 284.22 161.958 284.744 162.132 285.21C162.307 285.676 162.564 286.045 162.905 286.318C163.25 286.587 163.674 286.722 164.178 286.722ZM182.339 284.381V279.273H184.044V288H182.373V286.489H182.282C182.082 286.955 181.76 287.343 181.316 287.653C180.877 287.96 180.33 288.114 179.674 288.114C179.114 288.114 178.618 287.991 178.186 287.744C177.758 287.494 177.421 287.125 177.174 286.636C176.932 286.148 176.811 285.544 176.811 284.824V279.273H178.51V284.619C178.51 285.214 178.674 285.687 179.004 286.04C179.334 286.392 179.762 286.568 180.288 286.568C180.606 286.568 180.923 286.489 181.237 286.33C181.555 286.17 181.818 285.93 182.027 285.608C182.239 285.286 182.343 284.877 182.339 284.381ZM196.488 288.176C195.628 288.176 194.887 287.992 194.266 287.625C193.649 287.254 193.171 286.733 192.834 286.062C192.501 285.388 192.334 284.598 192.334 283.693C192.334 282.799 192.501 282.011 192.834 281.33C193.171 280.648 193.641 280.116 194.243 279.733C194.85 279.35 195.558 279.159 196.368 279.159C196.861 279.159 197.338 279.241 197.8 279.403C198.262 279.566 198.677 279.822 199.045 280.17C199.412 280.519 199.702 280.972 199.914 281.528C200.126 282.081 200.232 282.754 200.232 283.545V284.148H193.295V282.875H198.567C198.567 282.428 198.476 282.032 198.295 281.688C198.113 281.339 197.857 281.064 197.528 280.864C197.202 280.663 196.819 280.562 196.38 280.562C195.903 280.562 195.486 280.68 195.13 280.915C194.778 281.146 194.505 281.449 194.312 281.824C194.122 282.195 194.028 282.598 194.028 283.034V284.028C194.028 284.612 194.13 285.108 194.334 285.517C194.543 285.926 194.832 286.239 195.204 286.455C195.575 286.667 196.009 286.773 196.505 286.773C196.827 286.773 197.12 286.727 197.386 286.636C197.651 286.542 197.88 286.402 198.073 286.216C198.266 286.03 198.414 285.801 198.516 285.528L200.124 285.818C199.995 286.292 199.764 286.706 199.431 287.062C199.101 287.415 198.687 287.689 198.187 287.886C197.69 288.08 197.124 288.176 196.488 288.176ZM215.057 281.403L213.517 281.676C213.453 281.479 213.35 281.292 213.21 281.114C213.074 280.936 212.888 280.79 212.653 280.676C212.419 280.562 212.125 280.506 211.773 280.506C211.292 280.506 210.89 280.614 210.568 280.83C210.246 281.042 210.085 281.316 210.085 281.653C210.085 281.945 210.193 282.18 210.409 282.358C210.625 282.536 210.973 282.682 211.455 282.795L212.841 283.114C213.644 283.299 214.242 283.585 214.636 283.972C215.03 284.358 215.227 284.86 215.227 285.477C215.227 286 215.076 286.466 214.773 286.875C214.473 287.28 214.055 287.598 213.517 287.83C212.983 288.061 212.364 288.176 211.659 288.176C210.682 288.176 209.884 287.968 209.267 287.551C208.65 287.131 208.271 286.534 208.131 285.761L209.773 285.511C209.875 285.939 210.085 286.263 210.403 286.483C210.722 286.699 211.136 286.807 211.648 286.807C212.205 286.807 212.65 286.691 212.983 286.46C213.316 286.225 213.483 285.939 213.483 285.602C213.483 285.33 213.381 285.1 213.176 284.915C212.975 284.729 212.667 284.589 212.25 284.494L210.773 284.17C209.958 283.985 209.356 283.689 208.966 283.284C208.58 282.879 208.386 282.366 208.386 281.744C208.386 281.229 208.53 280.778 208.818 280.392C209.106 280.006 209.504 279.705 210.011 279.489C210.519 279.269 211.1 279.159 211.756 279.159C212.699 279.159 213.441 279.364 213.983 279.773C214.525 280.178 214.883 280.722 215.057 281.403ZM227.569 279.273V280.636H222.802V279.273H227.569ZM224.08 277.182H225.779V285.438C225.779 285.767 225.829 286.015 225.927 286.182C226.025 286.345 226.152 286.456 226.308 286.517C226.467 286.574 226.639 286.602 226.825 286.602C226.961 286.602 227.08 286.593 227.183 286.574C227.285 286.555 227.364 286.54 227.421 286.528L227.728 287.932C227.63 287.97 227.489 288.008 227.308 288.045C227.126 288.087 226.899 288.11 226.626 288.114C226.179 288.121 225.762 288.042 225.376 287.875C224.989 287.708 224.677 287.451 224.438 287.102C224.2 286.754 224.08 286.316 224.08 285.79V277.182ZM239.516 288.176C238.656 288.176 237.916 287.992 237.294 287.625C236.677 287.254 236.2 286.733 235.863 286.062C235.529 285.388 235.363 284.598 235.363 283.693C235.363 282.799 235.529 282.011 235.863 281.33C236.2 280.648 236.669 280.116 237.272 279.733C237.878 279.35 238.586 279.159 239.397 279.159C239.889 279.159 240.366 279.241 240.828 279.403C241.291 279.566 241.705 279.822 242.073 280.17C242.44 280.519 242.73 280.972 242.942 281.528C243.154 282.081 243.26 282.754 243.26 283.545V284.148H236.323V282.875H241.595C241.595 282.428 241.505 282.032 241.323 281.688C241.141 281.339 240.885 281.064 240.556 280.864C240.23 280.663 239.847 280.562 239.408 280.562C238.931 280.562 238.514 280.68 238.158 280.915C237.806 281.146 237.533 281.449 237.34 281.824C237.15 282.195 237.056 282.598 237.056 283.034V284.028C237.056 284.612 237.158 285.108 237.363 285.517C237.571 285.926 237.861 286.239 238.232 286.455C238.603 286.667 239.037 286.773 239.533 286.773C239.855 286.773 240.148 286.727 240.414 286.636C240.679 286.542 240.908 286.402 241.101 286.216C241.294 286.03 241.442 285.801 241.544 285.528L243.152 285.818C243.023 286.292 242.792 286.706 242.459 287.062C242.13 287.415 241.715 287.689 241.215 287.886C240.719 288.08 240.152 288.176 239.516 288.176ZM254.812 288.17C254.108 288.17 253.479 287.991 252.926 287.631C252.377 287.267 251.945 286.75 251.63 286.08C251.32 285.405 251.164 284.597 251.164 283.653C251.164 282.71 251.322 281.903 251.636 281.233C251.954 280.562 252.39 280.049 252.943 279.693C253.496 279.337 254.123 279.159 254.824 279.159C255.365 279.159 255.801 279.25 256.13 279.432C256.464 279.61 256.721 279.818 256.903 280.057C257.089 280.295 257.233 280.506 257.335 280.688H257.437V276.364H259.136V288H257.477V286.642H257.335C257.233 286.828 257.085 287.04 256.892 287.278C256.702 287.517 256.441 287.725 256.108 287.903C255.774 288.081 255.343 288.17 254.812 288.17ZM255.187 286.722C255.676 286.722 256.089 286.593 256.426 286.335C256.767 286.074 257.024 285.712 257.199 285.25C257.377 284.788 257.466 284.25 257.466 283.636C257.466 283.03 257.379 282.5 257.204 282.045C257.03 281.591 256.774 281.237 256.437 280.983C256.1 280.729 255.683 280.602 255.187 280.602C254.676 280.602 254.25 280.735 253.909 281C253.568 281.265 253.31 281.627 253.136 282.085C252.966 282.544 252.88 283.061 252.88 283.636C252.88 284.22 252.968 284.744 253.142 285.21C253.316 285.676 253.574 286.045 253.914 286.318C254.259 286.587 254.683 286.722 255.187 286.722ZM281.135 288.193C280.582 288.193 280.082 288.091 279.635 287.886C279.188 287.678 278.834 287.377 278.572 286.983C278.315 286.589 278.186 286.106 278.186 285.534C278.186 285.042 278.281 284.636 278.47 284.318C278.66 284 278.915 283.748 279.237 283.562C279.559 283.377 279.919 283.237 280.317 283.142C280.714 283.047 281.12 282.975 281.533 282.926C282.055 282.866 282.48 282.816 282.805 282.778C283.131 282.737 283.368 282.67 283.516 282.58C283.663 282.489 283.737 282.341 283.737 282.136V282.097C283.737 281.6 283.597 281.216 283.317 280.943C283.04 280.67 282.627 280.534 282.078 280.534C281.506 280.534 281.055 280.661 280.726 280.915C280.4 281.165 280.175 281.443 280.05 281.75L278.453 281.386C278.643 280.856 278.919 280.428 279.283 280.102C279.65 279.773 280.072 279.534 280.55 279.386C281.027 279.235 281.529 279.159 282.055 279.159C282.404 279.159 282.773 279.201 283.163 279.284C283.557 279.364 283.925 279.511 284.266 279.727C284.61 279.943 284.893 280.252 285.112 280.653C285.332 281.051 285.442 281.568 285.442 282.205V288H283.783V286.807H283.714C283.605 287.027 283.44 287.242 283.22 287.455C283 287.667 282.718 287.843 282.374 287.983C282.029 288.123 281.616 288.193 281.135 288.193ZM281.504 286.83C281.974 286.83 282.375 286.737 282.709 286.551C283.046 286.366 283.302 286.123 283.476 285.824C283.654 285.521 283.743 285.197 283.743 284.852V283.727C283.682 283.788 283.565 283.845 283.391 283.898C283.22 283.947 283.025 283.991 282.805 284.028C282.586 284.062 282.372 284.095 282.163 284.125C281.955 284.152 281.781 284.174 281.641 284.193C281.311 284.235 281.01 284.305 280.737 284.403C280.468 284.502 280.252 284.644 280.089 284.83C279.93 285.011 279.851 285.254 279.851 285.557C279.851 285.977 280.006 286.295 280.317 286.511C280.627 286.723 281.023 286.83 281.504 286.83ZM297.781 288.176C296.936 288.176 296.209 287.985 295.599 287.602C294.993 287.216 294.527 286.684 294.201 286.006C293.875 285.328 293.712 284.551 293.712 283.676C293.712 282.79 293.879 282.008 294.212 281.33C294.546 280.648 295.016 280.116 295.622 279.733C296.228 279.35 296.942 279.159 297.764 279.159C298.427 279.159 299.017 279.282 299.536 279.528C300.055 279.771 300.474 280.112 300.792 280.551C301.114 280.991 301.305 281.504 301.366 282.091H299.712C299.622 281.682 299.413 281.33 299.087 281.034C298.766 280.739 298.334 280.591 297.792 280.591C297.319 280.591 296.904 280.716 296.548 280.966C296.195 281.212 295.921 281.564 295.724 282.023C295.527 282.477 295.428 283.015 295.428 283.636C295.428 284.273 295.525 284.822 295.718 285.284C295.911 285.746 296.184 286.104 296.536 286.358C296.892 286.612 297.311 286.739 297.792 286.739C298.114 286.739 298.406 286.68 298.667 286.562C298.932 286.441 299.154 286.269 299.332 286.045C299.514 285.822 299.641 285.553 299.712 285.239H301.366C301.305 285.803 301.122 286.307 300.815 286.75C300.508 287.193 300.097 287.542 299.582 287.795C299.07 288.049 298.47 288.176 297.781 288.176ZM313.259 288.176C312.414 288.176 311.687 287.985 311.077 287.602C310.471 287.216 310.005 286.684 309.679 286.006C309.354 285.328 309.191 284.551 309.191 283.676C309.191 282.79 309.357 282.008 309.691 281.33C310.024 280.648 310.494 280.116 311.1 279.733C311.706 279.35 312.42 279.159 313.242 279.159C313.905 279.159 314.496 279.282 315.014 279.528C315.533 279.771 315.952 280.112 316.27 280.551C316.592 280.991 316.783 281.504 316.844 282.091H315.191C315.1 281.682 314.891 281.33 314.566 281.034C314.244 280.739 313.812 280.591 313.27 280.591C312.797 280.591 312.382 280.716 312.026 280.966C311.674 281.212 311.399 281.564 311.202 282.023C311.005 282.477 310.907 283.015 310.907 283.636C310.907 284.273 311.003 284.822 311.196 285.284C311.389 285.746 311.662 286.104 312.014 286.358C312.371 286.612 312.789 286.739 313.27 286.739C313.592 286.739 313.884 286.68 314.145 286.562C314.41 286.441 314.632 286.269 314.81 286.045C314.992 285.822 315.119 285.553 315.191 285.239H316.844C316.783 285.803 316.6 286.307 316.293 286.75C315.986 287.193 315.575 287.542 315.06 287.795C314.549 288.049 313.948 288.176 313.259 288.176ZM328.822 288.176C327.962 288.176 327.222 287.992 326.601 287.625C325.983 287.254 325.506 286.733 325.169 286.062C324.835 285.388 324.669 284.598 324.669 283.693C324.669 282.799 324.835 282.011 325.169 281.33C325.506 280.648 325.976 280.116 326.578 279.733C327.184 279.35 327.892 279.159 328.703 279.159C329.195 279.159 329.673 279.241 330.135 279.403C330.597 279.566 331.012 279.822 331.379 280.17C331.746 280.519 332.036 280.972 332.248 281.528C332.46 282.081 332.566 282.754 332.566 283.545V284.148H325.629V282.875H330.902C330.902 282.428 330.811 282.032 330.629 281.688C330.447 281.339 330.191 281.064 329.862 280.864C329.536 280.663 329.154 280.562 328.714 280.562C328.237 280.562 327.82 280.68 327.464 280.915C327.112 281.146 326.839 281.449 326.646 281.824C326.457 282.195 326.362 282.598 326.362 283.034V284.028C326.362 284.612 326.464 285.108 326.669 285.517C326.877 285.926 327.167 286.239 327.538 286.455C327.909 286.667 328.343 286.773 328.839 286.773C329.161 286.773 329.455 286.727 329.72 286.636C329.985 286.542 330.214 286.402 330.407 286.216C330.601 286.03 330.748 285.801 330.851 285.528L332.459 285.818C332.33 286.292 332.099 286.706 331.765 287.062C331.436 287.415 331.021 287.689 330.521 287.886C330.025 288.08 329.459 288.176 328.822 288.176ZM347.391 281.403L345.851 281.676C345.787 281.479 345.685 281.292 345.545 281.114C345.408 280.936 345.223 280.79 344.988 280.676C344.753 280.562 344.459 280.506 344.107 280.506C343.626 280.506 343.225 280.614 342.903 280.83C342.581 281.042 342.42 281.316 342.42 281.653C342.42 281.945 342.528 282.18 342.743 282.358C342.959 282.536 343.308 282.682 343.789 282.795L345.175 283.114C345.978 283.299 346.577 283.585 346.971 283.972C347.365 284.358 347.562 284.86 347.562 285.477C347.562 286 347.41 286.466 347.107 286.875C346.808 287.28 346.389 287.598 345.851 287.83C345.317 288.061 344.698 288.176 343.993 288.176C343.016 288.176 342.219 287.968 341.601 287.551C340.984 287.131 340.605 286.534 340.465 285.761L342.107 285.511C342.209 285.939 342.42 286.263 342.738 286.483C343.056 286.699 343.471 286.807 343.982 286.807C344.539 286.807 344.984 286.691 345.317 286.46C345.651 286.225 345.817 285.939 345.817 285.602C345.817 285.33 345.715 285.1 345.511 284.915C345.31 284.729 345.001 284.589 344.584 284.494L343.107 284.17C342.293 283.985 341.69 283.689 341.3 283.284C340.914 282.879 340.721 282.366 340.721 281.744C340.721 281.229 340.865 280.778 341.153 280.392C341.44 280.006 341.838 279.705 342.346 279.489C342.853 279.269 343.435 279.159 344.09 279.159C345.033 279.159 345.776 279.364 346.317 279.773C346.859 280.178 347.217 280.722 347.391 281.403ZM362.369 281.403L360.83 281.676C360.765 281.479 360.663 281.292 360.523 281.114C360.386 280.936 360.201 280.79 359.966 280.676C359.731 280.562 359.438 280.506 359.085 280.506C358.604 280.506 358.203 280.614 357.881 280.83C357.559 281.042 357.398 281.316 357.398 281.653C357.398 281.945 357.506 282.18 357.722 282.358C357.938 282.536 358.286 282.682 358.767 282.795L360.153 283.114C360.956 283.299 361.555 283.585 361.949 283.972C362.343 284.358 362.54 284.86 362.54 285.477C362.54 286 362.388 286.466 362.085 286.875C361.786 287.28 361.367 287.598 360.83 287.83C360.295 288.061 359.676 288.176 358.972 288.176C357.994 288.176 357.197 287.968 356.58 287.551C355.962 287.131 355.583 286.534 355.443 285.761L357.085 285.511C357.188 285.939 357.398 286.263 357.716 286.483C358.034 286.699 358.449 286.807 358.96 286.807C359.517 286.807 359.962 286.691 360.295 286.46C360.629 286.225 360.795 285.939 360.795 285.602C360.795 285.33 360.693 285.1 360.489 284.915C360.288 284.729 359.979 284.589 359.562 284.494L358.085 284.17C357.271 283.985 356.669 283.689 356.278 283.284C355.892 282.879 355.699 282.366 355.699 281.744C355.699 281.229 355.843 280.778 356.131 280.392C356.419 280.006 356.816 279.705 357.324 279.489C357.831 279.269 358.413 279.159 359.068 279.159C360.011 279.159 360.754 279.364 361.295 279.773C361.837 280.178 362.195 280.722 362.369 281.403ZM385.516 279.273V280.636H380.749V279.273H385.516ZM382.027 277.182H383.726V285.438C383.726 285.767 383.775 286.015 383.874 286.182C383.972 286.345 384.099 286.456 384.255 286.517C384.414 286.574 384.586 286.602 384.772 286.602C384.908 286.602 385.027 286.593 385.13 286.574C385.232 286.555 385.311 286.54 385.368 286.528L385.675 287.932C385.577 287.97 385.436 288.008 385.255 288.045C385.073 288.087 384.845 288.11 384.573 288.114C384.126 288.121 383.709 288.042 383.323 287.875C382.936 287.708 382.624 287.451 382.385 287.102C382.147 286.754 382.027 286.316 382.027 285.79V277.182ZM397.378 288.176C396.559 288.176 395.845 287.989 395.236 287.614C394.626 287.239 394.152 286.714 393.815 286.04C393.478 285.366 393.309 284.578 393.309 283.676C393.309 282.771 393.478 281.979 393.815 281.301C394.152 280.623 394.626 280.097 395.236 279.722C395.845 279.347 396.559 279.159 397.378 279.159C398.196 279.159 398.91 279.347 399.52 279.722C400.129 280.097 400.603 280.623 400.94 281.301C401.277 281.979 401.446 282.771 401.446 283.676C401.446 284.578 401.277 285.366 400.94 286.04C400.603 286.714 400.129 287.239 399.52 287.614C398.91 287.989 398.196 288.176 397.378 288.176ZM397.383 286.75C397.914 286.75 398.353 286.61 398.701 286.33C399.05 286.049 399.307 285.676 399.474 285.21C399.645 284.744 399.73 284.231 399.73 283.67C399.73 283.114 399.645 282.602 399.474 282.136C399.307 281.667 399.05 281.29 398.701 281.006C398.353 280.722 397.914 280.58 397.383 280.58C396.849 280.58 396.406 280.722 396.054 281.006C395.705 281.29 395.446 281.667 395.275 282.136C395.109 282.602 395.025 283.114 395.025 283.67C395.025 284.231 395.109 284.744 395.275 285.21C395.446 285.676 395.705 286.049 396.054 286.33C396.406 286.61 396.849 286.75 397.383 286.75ZM424.45 279.273V280.636H419.683V279.273H424.45ZM420.962 277.182H422.661V285.438C422.661 285.767 422.71 286.015 422.808 286.182C422.907 286.345 423.034 286.456 423.189 286.517C423.348 286.574 423.52 286.602 423.706 286.602C423.842 286.602 423.962 286.593 424.064 286.574C424.166 286.555 424.246 286.54 424.303 286.528L424.609 287.932C424.511 287.97 424.371 288.008 424.189 288.045C424.007 288.087 423.78 288.11 423.507 288.114C423.06 288.121 422.643 288.042 422.257 287.875C421.871 287.708 421.558 287.451 421.32 287.102C421.081 286.754 420.962 286.316 420.962 285.79V277.182ZM434.616 282.818V288H432.917V276.364H434.593V280.693H434.701C434.906 280.223 435.218 279.85 435.639 279.574C436.059 279.297 436.608 279.159 437.286 279.159C437.885 279.159 438.408 279.282 438.855 279.528C439.305 279.775 439.654 280.142 439.9 280.631C440.15 281.116 440.275 281.722 440.275 282.449V288H438.576V282.653C438.576 282.013 438.411 281.517 438.082 281.165C437.752 280.809 437.294 280.631 436.707 280.631C436.305 280.631 435.945 280.716 435.627 280.886C435.313 281.057 435.065 281.307 434.883 281.636C434.705 281.962 434.616 282.356 434.616 282.818ZM448.942 288V279.273H450.641V288H448.942ZM449.8 277.926C449.505 277.926 449.251 277.828 449.039 277.631C448.83 277.43 448.726 277.191 448.726 276.915C448.726 276.634 448.83 276.396 449.039 276.199C449.251 275.998 449.505 275.898 449.8 275.898C450.095 275.898 450.347 275.998 450.556 276.199C450.768 276.396 450.874 276.634 450.874 276.915C450.874 277.191 450.768 277.43 450.556 277.631C450.347 277.828 450.095 277.926 449.8 277.926ZM465.866 281.403L464.326 281.676C464.262 281.479 464.16 281.292 464.02 281.114C463.883 280.936 463.698 280.79 463.463 280.676C463.228 280.562 462.934 280.506 462.582 280.506C462.101 280.506 461.7 280.614 461.378 280.83C461.056 281.042 460.895 281.316 460.895 281.653C460.895 281.945 461.003 282.18 461.218 282.358C461.434 282.536 461.783 282.682 462.264 282.795L463.65 283.114C464.453 283.299 465.052 283.585 465.446 283.972C465.84 284.358 466.037 284.86 466.037 285.477C466.037 286 465.885 286.466 465.582 286.875C465.283 287.28 464.864 287.598 464.326 287.83C463.792 288.061 463.173 288.176 462.468 288.176C461.491 288.176 460.694 287.968 460.076 287.551C459.459 287.131 459.08 286.534 458.94 285.761L460.582 285.511C460.684 285.939 460.895 286.263 461.213 286.483C461.531 286.699 461.946 286.807 462.457 286.807C463.014 286.807 463.459 286.691 463.792 286.46C464.126 286.225 464.292 285.939 464.292 285.602C464.292 285.33 464.19 285.1 463.986 284.915C463.785 284.729 463.476 284.589 463.059 284.494L461.582 284.17C460.768 283.985 460.165 283.689 459.775 283.284C459.389 282.879 459.196 282.366 459.196 281.744C459.196 281.229 459.34 280.778 459.628 280.392C459.915 280.006 460.313 279.705 460.821 279.489C461.328 279.269 461.91 279.159 462.565 279.159C463.508 279.159 464.251 279.364 464.792 279.773C465.334 280.178 465.692 280.722 465.866 281.403ZM491.479 281.403L489.939 281.676C489.875 281.479 489.772 281.292 489.632 281.114C489.496 280.936 489.31 280.79 489.075 280.676C488.84 280.562 488.547 280.506 488.195 280.506C487.714 280.506 487.312 280.614 486.99 280.83C486.668 281.042 486.507 281.316 486.507 281.653C486.507 281.945 486.615 282.18 486.831 282.358C487.047 282.536 487.395 282.682 487.876 282.795L489.263 283.114C490.066 283.299 490.664 283.585 491.058 283.972C491.452 284.358 491.649 284.86 491.649 285.477C491.649 286 491.498 286.466 491.195 286.875C490.895 287.28 490.477 287.598 489.939 287.83C489.405 288.061 488.786 288.176 488.081 288.176C487.104 288.176 486.306 287.968 485.689 287.551C485.071 287.131 484.693 286.534 484.553 285.761L486.195 285.511C486.297 285.939 486.507 286.263 486.825 286.483C487.143 286.699 487.558 286.807 488.07 286.807C488.626 286.807 489.071 286.691 489.405 286.46C489.738 286.225 489.905 285.939 489.905 285.602C489.905 285.33 489.803 285.1 489.598 284.915C489.397 284.729 489.089 284.589 488.672 284.494L487.195 284.17C486.38 283.985 485.778 283.689 485.388 283.284C485.001 282.879 484.808 282.366 484.808 281.744C484.808 281.229 484.952 280.778 485.24 280.392C485.528 280.006 485.926 279.705 486.433 279.489C486.941 279.269 487.522 279.159 488.178 279.159C489.121 279.159 489.863 279.364 490.405 279.773C490.946 280.178 491.304 280.722 491.479 281.403ZM503.678 288.176C502.819 288.176 502.078 287.992 501.457 287.625C500.839 287.254 500.362 286.733 500.025 286.062C499.692 285.388 499.525 284.598 499.525 283.693C499.525 282.799 499.692 282.011 500.025 281.33C500.362 280.648 500.832 280.116 501.434 279.733C502.04 279.35 502.748 279.159 503.559 279.159C504.052 279.159 504.529 279.241 504.991 279.403C505.453 279.566 505.868 279.822 506.235 280.17C506.603 280.519 506.892 280.972 507.105 281.528C507.317 282.081 507.423 282.754 507.423 283.545V284.148H500.485V282.875H505.758C505.758 282.428 505.667 282.032 505.485 281.688C505.303 281.339 505.048 281.064 504.718 280.864C504.392 280.663 504.01 280.562 503.57 280.562C503.093 280.562 502.677 280.68 502.32 280.915C501.968 281.146 501.695 281.449 501.502 281.824C501.313 282.195 501.218 282.598 501.218 283.034V284.028C501.218 284.612 501.32 285.108 501.525 285.517C501.733 285.926 502.023 286.239 502.394 286.455C502.766 286.667 503.199 286.773 503.695 286.773C504.017 286.773 504.311 286.727 504.576 286.636C504.841 286.542 505.07 286.402 505.264 286.216C505.457 286.03 505.605 285.801 505.707 285.528L507.315 285.818C507.186 286.292 506.955 286.706 506.622 287.062C506.292 287.415 505.877 287.689 505.377 287.886C504.881 288.08 504.315 288.176 503.678 288.176ZM515.708 288V279.273H517.35V280.659H517.441C517.6 280.189 517.88 279.82 518.282 279.551C518.687 279.278 519.145 279.142 519.657 279.142C519.763 279.142 519.888 279.146 520.032 279.153C520.179 279.161 520.295 279.17 520.378 279.182V280.807C520.31 280.788 520.189 280.767 520.014 280.744C519.84 280.718 519.666 280.705 519.492 280.705C519.09 280.705 518.732 280.79 518.418 280.96C518.107 281.127 517.861 281.36 517.679 281.659C517.497 281.955 517.407 282.292 517.407 282.67V288H515.708ZM535.98 279.273L532.815 288H530.997L527.826 279.273H529.65L531.861 285.989H531.951L534.156 279.273H535.98ZM547.441 288.176C546.581 288.176 545.841 287.992 545.219 287.625C544.602 287.254 544.125 286.733 543.788 286.062C543.454 285.388 543.288 284.598 543.288 283.693C543.288 282.799 543.454 282.011 543.788 281.33C544.125 280.648 544.594 280.116 545.197 279.733C545.803 279.35 546.511 279.159 547.322 279.159C547.814 279.159 548.291 279.241 548.753 279.403C549.216 279.566 549.63 279.822 549.998 280.17C550.365 280.519 550.655 280.972 550.867 281.528C551.079 282.081 551.185 282.754 551.185 283.545V284.148H544.248V282.875H549.52C549.52 282.428 549.43 282.032 549.248 281.688C549.066 281.339 548.81 281.064 548.481 280.864C548.155 280.663 547.772 280.562 547.333 280.562C546.856 280.562 546.439 280.68 546.083 280.915C545.731 281.146 545.458 281.449 545.265 281.824C545.075 282.195 544.981 282.598 544.981 283.034V284.028C544.981 284.612 545.083 285.108 545.288 285.517C545.496 285.926 545.786 286.239 546.157 286.455C546.528 286.667 546.962 286.773 547.458 286.773C547.78 286.773 548.073 286.727 548.339 286.636C548.604 286.542 548.833 286.402 549.026 286.216C549.219 286.03 549.367 285.801 549.469 285.528L551.077 285.818C550.948 286.292 550.717 286.706 550.384 287.062C550.055 287.415 549.64 287.689 549.14 287.886C548.644 288.08 548.077 288.176 547.441 288.176ZM559.47 288V279.273H561.112V280.659H561.203C561.362 280.189 561.643 279.82 562.044 279.551C562.449 279.278 562.908 279.142 563.419 279.142C563.525 279.142 563.65 279.146 563.794 279.153C563.942 279.161 564.057 279.17 564.141 279.182V280.807C564.072 280.788 563.951 280.767 563.777 280.744C563.603 280.718 563.429 280.705 563.254 280.705C562.853 280.705 562.495 280.79 562.18 280.96C561.87 281.127 561.624 281.36 561.442 281.659C561.26 281.955 561.169 282.292 561.169 282.67V288H559.47ZM584.344 282.818V288H582.645V276.364H584.321V280.693H584.429C584.634 280.223 584.946 279.85 585.367 279.574C585.787 279.297 586.336 279.159 587.014 279.159C587.613 279.159 588.136 279.282 588.583 279.528C589.033 279.775 589.382 280.142 589.628 280.631C589.878 281.116 590.003 281.722 590.003 282.449V288H588.304V282.653C588.304 282.013 588.139 281.517 587.81 281.165C587.48 280.809 587.022 280.631 586.435 280.631C586.033 280.631 585.674 280.716 585.355 280.886C585.041 281.057 584.793 281.307 584.611 281.636C584.433 281.962 584.344 282.356 584.344 282.818ZM601.21 288.193C600.657 288.193 600.157 288.091 599.71 287.886C599.263 287.678 598.909 287.377 598.647 286.983C598.39 286.589 598.261 286.106 598.261 285.534C598.261 285.042 598.356 284.636 598.545 284.318C598.735 284 598.99 283.748 599.312 283.562C599.634 283.377 599.994 283.237 600.392 283.142C600.79 283.047 601.195 282.975 601.608 282.926C602.13 282.866 602.555 282.816 602.88 282.778C603.206 282.737 603.443 282.67 603.591 282.58C603.738 282.489 603.812 282.341 603.812 282.136V282.097C603.812 281.6 603.672 281.216 603.392 280.943C603.115 280.67 602.702 280.534 602.153 280.534C601.581 280.534 601.13 280.661 600.801 280.915C600.475 281.165 600.25 281.443 600.125 281.75L598.528 281.386C598.718 280.856 598.994 280.428 599.358 280.102C599.725 279.773 600.147 279.534 600.625 279.386C601.102 279.235 601.604 279.159 602.13 279.159C602.479 279.159 602.848 279.201 603.238 279.284C603.632 279.364 604 279.511 604.341 279.727C604.685 279.943 604.968 280.252 605.187 280.653C605.407 281.051 605.517 281.568 605.517 282.205V288H603.858V286.807H603.79C603.68 287.027 603.515 287.242 603.295 287.455C603.075 287.667 602.793 287.843 602.449 287.983C602.104 288.123 601.691 288.193 601.21 288.193ZM601.579 286.83C602.049 286.83 602.45 286.737 602.784 286.551C603.121 286.366 603.377 286.123 603.551 285.824C603.729 285.521 603.818 285.197 603.818 284.852V283.727C603.757 283.788 603.64 283.845 603.466 283.898C603.295 283.947 603.1 283.991 602.88 284.028C602.661 284.062 602.447 284.095 602.238 284.125C602.03 284.152 601.856 284.174 601.716 284.193C601.386 284.235 601.085 284.305 600.812 284.403C600.543 284.502 600.327 284.644 600.165 284.83C600.005 285.011 599.926 285.254 599.926 285.557C599.926 285.977 600.081 286.295 600.392 286.511C600.702 286.723 601.098 286.83 601.579 286.83ZM620.719 281.403L619.18 281.676C619.115 281.479 619.013 281.292 618.873 281.114C618.736 280.936 618.551 280.79 618.316 280.676C618.081 280.562 617.788 280.506 617.435 280.506C616.954 280.506 616.553 280.614 616.231 280.83C615.909 281.042 615.748 281.316 615.748 281.653C615.748 281.945 615.856 282.18 616.072 282.358C616.288 282.536 616.636 282.682 617.117 282.795L618.503 283.114C619.306 283.299 619.905 283.585 620.299 283.972C620.693 284.358 620.89 284.86 620.89 285.477C620.89 286 620.738 286.466 620.435 286.875C620.136 287.28 619.717 287.598 619.18 287.83C618.645 288.061 618.026 288.176 617.322 288.176C616.344 288.176 615.547 287.968 614.93 287.551C614.312 287.131 613.933 286.534 613.793 285.761L615.435 285.511C615.538 285.939 615.748 286.263 616.066 286.483C616.384 286.699 616.799 286.807 617.31 286.807C617.867 286.807 618.312 286.691 618.645 286.46C618.979 286.225 619.145 285.939 619.145 285.602C619.145 285.33 619.043 285.1 618.839 284.915C618.638 284.729 618.329 284.589 617.913 284.494L616.435 284.17C615.621 283.985 615.019 283.689 614.628 283.284C614.242 282.879 614.049 282.366 614.049 281.744C614.049 281.229 614.193 280.778 614.481 280.392C614.769 280.006 615.166 279.705 615.674 279.489C616.181 279.269 616.763 279.159 617.418 279.159C618.361 279.159 619.104 279.364 619.645 279.773C620.187 280.178 620.545 280.722 620.719 281.403ZM639.928 288V276.364H641.627V280.688H641.73C641.828 280.506 641.97 280.295 642.156 280.057C642.341 279.818 642.599 279.61 642.928 279.432C643.258 279.25 643.694 279.159 644.235 279.159C644.94 279.159 645.569 279.337 646.122 279.693C646.675 280.049 647.108 280.562 647.423 281.233C647.741 281.903 647.9 282.71 647.9 283.653C647.9 284.597 647.743 285.405 647.428 286.08C647.114 286.75 646.682 287.267 646.133 287.631C645.584 287.991 644.957 288.17 644.252 288.17C643.722 288.17 643.288 288.081 642.951 287.903C642.618 287.725 642.356 287.517 642.167 287.278C641.978 287.04 641.832 286.828 641.73 286.642H641.587V288H639.928ZM641.593 283.636C641.593 284.25 641.682 284.788 641.86 285.25C642.038 285.712 642.296 286.074 642.633 286.335C642.97 286.593 643.383 286.722 643.872 286.722C644.379 286.722 644.803 286.587 645.144 286.318C645.485 286.045 645.743 285.676 645.917 285.21C646.095 284.744 646.184 284.22 646.184 283.636C646.184 283.061 646.097 282.544 645.923 282.085C645.752 281.627 645.495 281.265 645.15 281C644.809 280.735 644.383 280.602 643.872 280.602C643.379 280.602 642.962 280.729 642.622 280.983C642.284 281.237 642.029 281.591 641.855 282.045C641.68 282.5 641.593 283.03 641.593 283.636ZM659.969 288.176C659.109 288.176 658.369 287.992 657.747 287.625C657.13 287.254 656.653 286.733 656.316 286.062C655.982 285.388 655.816 284.598 655.816 283.693C655.816 282.799 655.982 282.011 656.316 281.33C656.653 280.648 657.122 280.116 657.725 279.733C658.331 279.35 659.039 279.159 659.85 279.159C660.342 279.159 660.819 279.241 661.282 279.403C661.744 279.566 662.158 279.822 662.526 280.17C662.893 280.519 663.183 280.972 663.395 281.528C663.607 282.081 663.713 282.754 663.713 283.545V284.148H656.776V282.875H662.049C662.049 282.428 661.958 282.032 661.776 281.688C661.594 281.339 661.338 281.064 661.009 280.864C660.683 280.663 660.3 280.562 659.861 280.562C659.384 280.562 658.967 280.68 658.611 280.915C658.259 281.146 657.986 281.449 657.793 281.824C657.603 282.195 657.509 282.598 657.509 283.034V284.028C657.509 284.612 657.611 285.108 657.816 285.517C658.024 285.926 658.314 286.239 658.685 286.455C659.056 286.667 659.49 286.773 659.986 286.773C660.308 286.773 660.602 286.727 660.867 286.636C661.132 286.542 661.361 286.402 661.554 286.216C661.747 286.03 661.895 285.801 661.997 285.528L663.605 285.818C663.477 286.292 663.246 286.706 662.912 287.062C662.583 287.415 662.168 287.689 661.668 287.886C661.172 288.08 660.605 288.176 659.969 288.176ZM671.998 288V279.273H673.697V288H671.998ZM672.856 277.926C672.561 277.926 672.307 277.828 672.095 277.631C671.887 277.43 671.782 277.191 671.782 276.915C671.782 276.634 671.887 276.396 672.095 276.199C672.307 275.998 672.561 275.898 672.856 275.898C673.152 275.898 673.404 275.998 673.612 276.199C673.824 276.396 673.93 276.634 673.93 276.915C673.93 277.191 673.824 277.43 673.612 277.631C673.404 277.828 673.152 277.926 672.856 277.926ZM684.082 282.818V288H682.383V279.273H684.013V280.693H684.121C684.322 280.231 684.636 279.86 685.064 279.58C685.496 279.299 686.04 279.159 686.695 279.159C687.29 279.159 687.811 279.284 688.258 279.534C688.705 279.78 689.051 280.148 689.297 280.636C689.544 281.125 689.667 281.729 689.667 282.449V288H687.968V282.653C687.968 282.021 687.803 281.527 687.474 281.17C687.144 280.811 686.691 280.631 686.116 280.631C685.722 280.631 685.371 280.716 685.064 280.886C684.761 281.057 684.521 281.307 684.343 281.636C684.169 281.962 684.082 282.356 684.082 282.818ZM702.004 291.455C701.311 291.455 700.714 291.364 700.214 291.182C699.718 291 699.313 290.759 698.999 290.46C698.684 290.161 698.449 289.833 698.294 289.477L699.754 288.875C699.857 289.042 699.993 289.218 700.163 289.403C700.338 289.593 700.572 289.754 700.868 289.886C701.167 290.019 701.552 290.085 702.021 290.085C702.665 290.085 703.197 289.928 703.618 289.614C704.038 289.303 704.249 288.807 704.249 288.125V286.409H704.141C704.038 286.595 703.891 286.801 703.697 287.028C703.508 287.256 703.247 287.453 702.913 287.619C702.58 287.786 702.146 287.869 701.612 287.869C700.923 287.869 700.302 287.708 699.749 287.386C699.199 287.061 698.764 286.581 698.442 285.949C698.124 285.312 697.964 284.53 697.964 283.602C697.964 282.674 698.122 281.879 698.436 281.216C698.754 280.553 699.19 280.045 699.743 279.693C700.296 279.337 700.923 279.159 701.624 279.159C702.165 279.159 702.603 279.25 702.936 279.432C703.269 279.61 703.529 279.818 703.714 280.057C703.904 280.295 704.05 280.506 704.152 280.688H704.277V279.273H705.942V288.193C705.942 288.943 705.768 289.559 705.419 290.04C705.071 290.521 704.599 290.877 704.004 291.108C703.413 291.339 702.747 291.455 702.004 291.455ZM701.987 286.46C702.476 286.46 702.889 286.347 703.226 286.119C703.567 285.888 703.824 285.559 703.999 285.131C704.177 284.699 704.266 284.182 704.266 283.58C704.266 282.992 704.179 282.475 704.004 282.028C703.83 281.581 703.574 281.233 703.237 280.983C702.9 280.729 702.483 280.602 701.987 280.602C701.476 280.602 701.05 280.735 700.709 281C700.368 281.261 700.11 281.617 699.936 282.068C699.766 282.519 699.68 283.023 699.68 283.58C699.68 284.152 699.768 284.653 699.942 285.085C700.116 285.517 700.374 285.854 700.714 286.097C701.059 286.339 701.483 286.46 701.987 286.46ZM728.522 288.17C727.817 288.17 727.188 287.991 726.635 287.631C726.086 287.267 725.654 286.75 725.34 286.08C725.029 285.405 724.874 284.597 724.874 283.653C724.874 282.71 725.031 281.903 725.345 281.233C725.664 280.562 726.099 280.049 726.652 279.693C727.205 279.337 727.832 279.159 728.533 279.159C729.075 279.159 729.51 279.25 729.84 279.432C730.173 279.61 730.431 279.818 730.612 280.057C730.798 280.295 730.942 280.506 731.044 280.688H731.147V276.364H732.845V288H731.186V286.642H731.044C730.942 286.828 730.794 287.04 730.601 287.278C730.412 287.517 730.15 287.725 729.817 287.903C729.484 288.081 729.052 288.17 728.522 288.17ZM728.897 286.722C729.385 286.722 729.798 286.593 730.135 286.335C730.476 286.074 730.734 285.712 730.908 285.25C731.086 284.788 731.175 284.25 731.175 283.636C731.175 283.03 731.088 282.5 730.914 282.045C730.739 281.591 730.484 281.237 730.147 280.983C729.809 280.729 729.393 280.602 728.897 280.602C728.385 280.602 727.959 280.735 727.618 281C727.277 281.265 727.02 281.627 726.845 282.085C726.675 282.544 726.59 283.061 726.59 283.636C726.59 284.22 726.677 284.744 726.851 285.21C727.025 285.676 727.283 286.045 727.624 286.318C727.969 286.587 728.393 286.722 728.897 286.722ZM745.432 288.176C744.572 288.176 743.831 287.992 743.21 287.625C742.593 287.254 742.115 286.733 741.778 286.062C741.445 285.388 741.278 284.598 741.278 283.693C741.278 282.799 741.445 282.011 741.778 281.33C742.115 280.648 742.585 280.116 743.187 279.733C743.793 279.35 744.502 279.159 745.312 279.159C745.805 279.159 746.282 279.241 746.744 279.403C747.206 279.566 747.621 279.822 747.988 280.17C748.356 280.519 748.646 280.972 748.858 281.528C749.07 282.081 749.176 282.754 749.176 283.545V284.148H742.238V282.875H747.511C747.511 282.428 747.42 282.032 747.238 281.688C747.057 281.339 746.801 281.064 746.471 280.864C746.146 280.663 745.763 280.562 745.324 280.562C744.846 280.562 744.43 280.68 744.074 280.915C743.721 281.146 743.449 281.449 743.255 281.824C743.066 282.195 742.971 282.598 742.971 283.034V284.028C742.971 284.612 743.074 285.108 743.278 285.517C743.486 285.926 743.776 286.239 744.147 286.455C744.519 286.667 744.952 286.773 745.449 286.773C745.771 286.773 746.064 286.727 746.329 286.636C746.594 286.542 746.824 286.402 747.017 286.216C747.21 286.03 747.358 285.801 747.46 285.528L749.068 285.818C748.939 286.292 748.708 286.706 748.375 287.062C748.045 287.415 747.63 287.689 747.13 287.886C746.634 288.08 746.068 288.176 745.432 288.176ZM759.16 282.818V288H757.461V279.273H759.091V280.693H759.199C759.4 280.231 759.715 279.86 760.143 279.58C760.574 279.299 761.118 279.159 761.773 279.159C762.368 279.159 762.889 279.284 763.336 279.534C763.783 279.78 764.129 280.148 764.376 280.636C764.622 281.125 764.745 281.729 764.745 282.449V288H763.046V282.653C763.046 282.021 762.881 281.527 762.552 281.17C762.222 280.811 761.769 280.631 761.194 280.631C760.8 280.631 760.449 280.716 760.143 280.886C759.84 281.057 759.599 281.307 759.421 281.636C759.247 281.962 759.16 282.356 759.16 282.818ZM773.423 288V279.273H775.122V288H773.423ZM774.281 277.926C773.986 277.926 773.732 277.828 773.52 277.631C773.312 277.43 773.207 277.191 773.207 276.915C773.207 276.634 773.312 276.396 773.52 276.199C773.732 275.998 773.986 275.898 774.281 275.898C774.577 275.898 774.829 275.998 775.037 276.199C775.249 276.396 775.355 276.634 775.355 276.915C775.355 277.191 775.249 277.43 775.037 277.631C774.829 277.828 774.577 277.926 774.281 277.926ZM787.569 288.176C786.709 288.176 785.969 287.992 785.347 287.625C784.73 287.254 784.253 286.733 783.916 286.062C783.582 285.388 783.416 284.598 783.416 283.693C783.416 282.799 783.582 282.011 783.916 281.33C784.253 280.648 784.722 280.116 785.325 279.733C785.931 279.35 786.639 279.159 787.45 279.159C787.942 279.159 788.419 279.241 788.882 279.403C789.344 279.566 789.758 279.822 790.126 280.17C790.493 280.519 790.783 280.972 790.995 281.528C791.207 282.081 791.313 282.754 791.313 283.545V284.148H784.376V282.875H789.649C789.649 282.428 789.558 282.032 789.376 281.688C789.194 281.339 788.938 281.064 788.609 280.864C788.283 280.663 787.9 280.562 787.461 280.562C786.984 280.562 786.567 280.68 786.211 280.915C785.859 281.146 785.586 281.449 785.393 281.824C785.204 282.195 785.109 282.598 785.109 283.034V284.028C785.109 284.612 785.211 285.108 785.416 285.517C785.624 285.926 785.914 286.239 786.285 286.455C786.656 286.667 787.09 286.773 787.586 286.773C787.908 286.773 788.202 286.727 788.467 286.636C788.732 286.542 788.961 286.402 789.154 286.216C789.347 286.03 789.495 285.801 789.597 285.528L791.205 285.818C791.077 286.292 790.846 286.706 790.512 287.062C790.183 287.415 789.768 287.689 789.268 287.886C788.772 288.08 788.205 288.176 787.569 288.176ZM802.865 288.17C802.161 288.17 801.532 287.991 800.979 287.631C800.43 287.267 799.998 286.75 799.684 286.08C799.373 285.405 799.218 284.597 799.218 283.653C799.218 282.71 799.375 281.903 799.689 281.233C800.007 280.562 800.443 280.049 800.996 279.693C801.549 279.337 802.176 279.159 802.877 279.159C803.418 279.159 803.854 279.25 804.184 279.432C804.517 279.61 804.774 279.818 804.956 280.057C805.142 280.295 805.286 280.506 805.388 280.688H805.49V276.364H807.189V288H805.53V286.642H805.388C805.286 286.828 805.138 287.04 804.945 287.278C804.755 287.517 804.494 287.725 804.161 287.903C803.827 288.081 803.396 288.17 802.865 288.17ZM803.24 286.722C803.729 286.722 804.142 286.593 804.479 286.335C804.82 286.074 805.077 285.712 805.252 285.25C805.43 284.788 805.519 284.25 805.519 283.636C805.519 283.03 805.432 282.5 805.257 282.045C805.083 281.591 804.827 281.237 804.49 280.983C804.153 280.729 803.737 280.602 803.24 280.602C802.729 280.602 802.303 280.735 801.962 281C801.621 281.265 801.363 281.627 801.189 282.085C801.019 282.544 800.934 283.061 800.934 283.636C800.934 284.22 801.021 284.744 801.195 285.21C801.369 285.676 801.627 286.045 801.968 286.318C802.312 286.587 802.737 286.722 803.24 286.722Z" fill="#28ECD4"/>
</g>
<path d="M128.278 288V276.364H132.426C133.328 276.364 134.076 276.519 134.67 276.83C135.269 277.14 135.716 277.57 136.011 278.119C136.307 278.665 136.455 279.295 136.455 280.011C136.455 280.723 136.305 281.35 136.006 281.892C135.71 282.43 135.263 282.848 134.665 283.148C134.07 283.447 133.322 283.597 132.42 283.597H129.278V282.085H132.261C132.83 282.085 133.292 282.004 133.648 281.841C134.008 281.678 134.271 281.441 134.438 281.131C134.604 280.82 134.688 280.447 134.688 280.011C134.688 279.572 134.602 279.191 134.432 278.869C134.265 278.547 134.002 278.301 133.642 278.131C133.286 277.956 132.818 277.869 132.239 277.869H130.034V288H128.278ZM134.023 282.75L136.898 288H134.898L132.08 282.75H134.023ZM148.507 288.176C147.647 288.176 146.906 287.992 146.285 287.625C145.668 287.254 145.19 286.733 144.853 286.062C144.52 285.388 144.353 284.598 144.353 283.693C144.353 282.799 144.52 282.011 144.853 281.33C145.19 280.648 145.66 280.116 146.262 279.733C146.868 279.35 147.577 279.159 148.387 279.159C148.88 279.159 149.357 279.241 149.819 279.403C150.281 279.566 150.696 279.822 151.063 280.17C151.431 280.519 151.721 280.972 151.933 281.528C152.145 282.081 152.251 282.754 152.251 283.545V284.148H145.313V282.875H150.586C150.586 282.428 150.495 282.032 150.313 281.688C150.132 281.339 149.876 281.064 149.546 280.864C149.221 280.663 148.838 280.562 148.399 280.562C147.921 280.562 147.505 280.68 147.149 280.915C146.796 281.146 146.524 281.449 146.33 281.824C146.141 282.195 146.046 282.598 146.046 283.034V284.028C146.046 284.612 146.149 285.108 146.353 285.517C146.561 285.926 146.851 286.239 147.222 286.455C147.594 286.667 148.027 286.773 148.524 286.773C148.846 286.773 149.139 286.727 149.404 286.636C149.669 286.542 149.899 286.402 150.092 286.216C150.285 286.03 150.433 285.801 150.535 285.528L152.143 285.818C152.014 286.292 151.783 286.706 151.45 287.062C151.12 287.415 150.705 287.689 150.205 287.886C149.709 288.08 149.143 288.176 148.507 288.176ZM166.428 291.273V286.642H166.326C166.223 286.828 166.076 287.04 165.882 287.278C165.693 287.517 165.432 287.725 165.098 287.903C164.765 288.081 164.333 288.17 163.803 288.17C163.098 288.17 162.47 287.991 161.916 287.631C161.367 287.267 160.935 286.75 160.621 286.08C160.31 285.405 160.155 284.597 160.155 283.653C160.155 282.71 160.312 281.903 160.627 281.233C160.945 280.562 161.38 280.049 161.934 279.693C162.487 279.337 163.113 279.159 163.814 279.159C164.356 279.159 164.791 279.25 165.121 279.432C165.454 279.61 165.712 279.818 165.894 280.057C166.079 280.295 166.223 280.506 166.326 280.688H166.468V279.273H168.127V291.273H166.428ZM164.178 286.722C164.666 286.722 165.079 286.593 165.416 286.335C165.757 286.074 166.015 285.712 166.189 285.25C166.367 284.788 166.456 284.25 166.456 283.636C166.456 283.03 166.369 282.5 166.195 282.045C166.021 281.591 165.765 281.237 165.428 280.983C165.091 280.729 164.674 280.602 164.178 280.602C163.666 280.602 163.24 280.735 162.899 281C162.559 281.265 162.301 281.627 162.127 282.085C161.956 282.544 161.871 283.061 161.871 283.636C161.871 284.22 161.958 284.744 162.132 285.21C162.307 285.676 162.564 286.045 162.905 286.318C163.25 286.587 163.674 286.722 164.178 286.722ZM182.339 284.381V279.273H184.044V288H182.373V286.489H182.282C182.082 286.955 181.76 287.343 181.316 287.653C180.877 287.96 180.33 288.114 179.674 288.114C179.114 288.114 178.618 287.991 178.186 287.744C177.758 287.494 177.421 287.125 177.174 286.636C176.932 286.148 176.811 285.544 176.811 284.824V279.273H178.51V284.619C178.51 285.214 178.674 285.687 179.004 286.04C179.334 286.392 179.762 286.568 180.288 286.568C180.606 286.568 180.923 286.489 181.237 286.33C181.555 286.17 181.818 285.93 182.027 285.608C182.239 285.286 182.343 284.877 182.339 284.381ZM196.488 288.176C195.628 288.176 194.887 287.992 194.266 287.625C193.649 287.254 193.171 286.733 192.834 286.062C192.501 285.388 192.334 284.598 192.334 283.693C192.334 282.799 192.501 282.011 192.834 281.33C193.171 280.648 193.641 280.116 194.243 279.733C194.85 279.35 195.558 279.159 196.368 279.159C196.861 279.159 197.338 279.241 197.8 279.403C198.262 279.566 198.677 279.822 199.045 280.17C199.412 280.519 199.702 280.972 199.914 281.528C200.126 282.081 200.232 282.754 200.232 283.545V284.148H193.295V282.875H198.567C198.567 282.428 198.476 282.032 198.295 281.688C198.113 281.339 197.857 281.064 197.528 280.864C197.202 280.663 196.819 280.562 196.38 280.562C195.903 280.562 195.486 280.68 195.13 280.915C194.778 281.146 194.505 281.449 194.312 281.824C194.122 282.195 194.028 282.598 194.028 283.034V284.028C194.028 284.612 194.13 285.108 194.334 285.517C194.543 285.926 194.832 286.239 195.204 286.455C195.575 286.667 196.009 286.773 196.505 286.773C196.827 286.773 197.12 286.727 197.386 286.636C197.651 286.542 197.88 286.402 198.073 286.216C198.266 286.03 198.414 285.801 198.516 285.528L200.124 285.818C199.995 286.292 199.764 286.706 199.431 287.062C199.101 287.415 198.687 287.689 198.187 287.886C197.69 288.08 197.124 288.176 196.488 288.176ZM215.057 281.403L213.517 281.676C213.453 281.479 213.35 281.292 213.21 281.114C213.074 280.936 212.888 280.79 212.653 280.676C212.419 280.562 212.125 280.506 211.773 280.506C211.292 280.506 210.89 280.614 210.568 280.83C210.246 281.042 210.085 281.316 210.085 281.653C210.085 281.945 210.193 282.18 210.409 282.358C210.625 282.536 210.973 282.682 211.455 282.795L212.841 283.114C213.644 283.299 214.242 283.585 214.636 283.972C215.03 284.358 215.227 284.86 215.227 285.477C215.227 286 215.076 286.466 214.773 286.875C214.473 287.28 214.055 287.598 213.517 287.83C212.983 288.061 212.364 288.176 211.659 288.176C210.682 288.176 209.884 287.968 209.267 287.551C208.65 287.131 208.271 286.534 208.131 285.761L209.773 285.511C209.875 285.939 210.085 286.263 210.403 286.483C210.722 286.699 211.136 286.807 211.648 286.807C212.205 286.807 212.65 286.691 212.983 286.46C213.316 286.225 213.483 285.939 213.483 285.602C213.483 285.33 213.381 285.1 213.176 284.915C212.975 284.729 212.667 284.589 212.25 284.494L210.773 284.17C209.958 283.985 209.356 283.689 208.966 283.284C208.58 282.879 208.386 282.366 208.386 281.744C208.386 281.229 208.53 280.778 208.818 280.392C209.106 280.006 209.504 279.705 210.011 279.489C210.519 279.269 211.1 279.159 211.756 279.159C212.699 279.159 213.441 279.364 213.983 279.773C214.525 280.178 214.883 280.722 215.057 281.403ZM227.569 279.273V280.636H222.802V279.273H227.569ZM224.08 277.182H225.779V285.438C225.779 285.767 225.829 286.015 225.927 286.182C226.025 286.345 226.152 286.456 226.308 286.517C226.467 286.574 226.639 286.602 226.825 286.602C226.961 286.602 227.08 286.593 227.183 286.574C227.285 286.555 227.364 286.54 227.421 286.528L227.728 287.932C227.63 287.97 227.489 288.008 227.308 288.045C227.126 288.087 226.899 288.11 226.626 288.114C226.179 288.121 225.762 288.042 225.376 287.875C224.989 287.708 224.677 287.451 224.438 287.102C224.2 286.754 224.08 286.316 224.08 285.79V277.182ZM239.516 288.176C238.656 288.176 237.916 287.992 237.294 287.625C236.677 287.254 236.2 286.733 235.863 286.062C235.529 285.388 235.363 284.598 235.363 283.693C235.363 282.799 235.529 282.011 235.863 281.33C236.2 280.648 236.669 280.116 237.272 279.733C237.878 279.35 238.586 279.159 239.397 279.159C239.889 279.159 240.366 279.241 240.828 279.403C241.291 279.566 241.705 279.822 242.073 280.17C242.44 280.519 242.73 280.972 242.942 281.528C243.154 282.081 243.26 282.754 243.26 283.545V284.148H236.323V282.875H241.595C241.595 282.428 241.505 282.032 241.323 281.688C241.141 281.339 240.885 281.064 240.556 280.864C240.23 280.663 239.847 280.562 239.408 280.562C238.931 280.562 238.514 280.68 238.158 280.915C237.806 281.146 237.533 281.449 237.34 281.824C237.15 282.195 237.056 282.598 237.056 283.034V284.028C237.056 284.612 237.158 285.108 237.363 285.517C237.571 285.926 237.861 286.239 238.232 286.455C238.603 286.667 239.037 286.773 239.533 286.773C239.855 286.773 240.148 286.727 240.414 286.636C240.679 286.542 240.908 286.402 241.101 286.216C241.294 286.03 241.442 285.801 241.544 285.528L243.152 285.818C243.023 286.292 242.792 286.706 242.459 287.062C242.13 287.415 241.715 287.689 241.215 287.886C240.719 288.08 240.152 288.176 239.516 288.176ZM254.812 288.17C254.108 288.17 253.479 287.991 252.926 287.631C252.377 287.267 251.945 286.75 251.63 286.08C251.32 285.405 251.164 284.597 251.164 283.653C251.164 282.71 251.322 281.903 251.636 281.233C251.954 280.562 252.39 280.049 252.943 279.693C253.496 279.337 254.123 279.159 254.824 279.159C255.365 279.159 255.801 279.25 256.13 279.432C256.464 279.61 256.721 279.818 256.903 280.057C257.089 280.295 257.233 280.506 257.335 280.688H257.437V276.364H259.136V288H257.477V286.642H257.335C257.233 286.828 257.085 287.04 256.892 287.278C256.702 287.517 256.441 287.725 256.108 287.903C255.774 288.081 255.343 288.17 254.812 288.17ZM255.187 286.722C255.676 286.722 256.089 286.593 256.426 286.335C256.767 286.074 257.024 285.712 257.199 285.25C257.377 284.788 257.466 284.25 257.466 283.636C257.466 283.03 257.379 282.5 257.204 282.045C257.03 281.591 256.774 281.237 256.437 280.983C256.1 280.729 255.683 280.602 255.187 280.602C254.676 280.602 254.25 280.735 253.909 281C253.568 281.265 253.31 281.627 253.136 282.085C252.966 282.544 252.88 283.061 252.88 283.636C252.88 284.22 252.968 284.744 253.142 285.21C253.316 285.676 253.574 286.045 253.914 286.318C254.259 286.587 254.683 286.722 255.187 286.722ZM281.135 288.193C280.582 288.193 280.082 288.091 279.635 287.886C279.188 287.678 278.834 287.377 278.572 286.983C278.315 286.589 278.186 286.106 278.186 285.534C278.186 285.042 278.281 284.636 278.47 284.318C278.66 284 278.915 283.748 279.237 283.562C279.559 283.377 279.919 283.237 280.317 283.142C280.714 283.047 281.12 282.975 281.533 282.926C282.055 282.866 282.48 282.816 282.805 282.778C283.131 282.737 283.368 282.67 283.516 282.58C283.663 282.489 283.737 282.341 283.737 282.136V282.097C283.737 281.6 283.597 281.216 283.317 280.943C283.04 280.67 282.627 280.534 282.078 280.534C281.506 280.534 281.055 280.661 280.726 280.915C280.4 281.165 280.175 281.443 280.05 281.75L278.453 281.386C278.643 280.856 278.919 280.428 279.283 280.102C279.65 279.773 280.072 279.534 280.55 279.386C281.027 279.235 281.529 279.159 282.055 279.159C282.404 279.159 282.773 279.201 283.163 279.284C283.557 279.364 283.925 279.511 284.266 279.727C284.61 279.943 284.893 280.252 285.112 280.653C285.332 281.051 285.442 281.568 285.442 282.205V288H283.783V286.807H283.714C283.605 287.027 283.44 287.242 283.22 287.455C283 287.667 282.718 287.843 282.374 287.983C282.029 288.123 281.616 288.193 281.135 288.193ZM281.504 286.83C281.974 286.83 282.375 286.737 282.709 286.551C283.046 286.366 283.302 286.123 283.476 285.824C283.654 285.521 283.743 285.197 283.743 284.852V283.727C283.682 283.788 283.565 283.845 283.391 283.898C283.22 283.947 283.025 283.991 282.805 284.028C282.586 284.062 282.372 284.095 282.163 284.125C281.955 284.152 281.781 284.174 281.641 284.193C281.311 284.235 281.01 284.305 280.737 284.403C280.468 284.502 280.252 284.644 280.089 284.83C279.93 285.011 279.851 285.254 279.851 285.557C279.851 285.977 280.006 286.295 280.317 286.511C280.627 286.723 281.023 286.83 281.504 286.83ZM297.781 288.176C296.936 288.176 296.209 287.985 295.599 287.602C294.993 287.216 294.527 286.684 294.201 286.006C293.875 285.328 293.712 284.551 293.712 283.676C293.712 282.79 293.879 282.008 294.212 281.33C294.546 280.648 295.016 280.116 295.622 279.733C296.228 279.35 296.942 279.159 297.764 279.159C298.427 279.159 299.017 279.282 299.536 279.528C300.055 279.771 300.474 280.112 300.792 280.551C301.114 280.991 301.305 281.504 301.366 282.091H299.712C299.622 281.682 299.413 281.33 299.087 281.034C298.766 280.739 298.334 280.591 297.792 280.591C297.319 280.591 296.904 280.716 296.548 280.966C296.195 281.212 295.921 281.564 295.724 282.023C295.527 282.477 295.428 283.015 295.428 283.636C295.428 284.273 295.525 284.822 295.718 285.284C295.911 285.746 296.184 286.104 296.536 286.358C296.892 286.612 297.311 286.739 297.792 286.739C298.114 286.739 298.406 286.68 298.667 286.562C298.932 286.441 299.154 286.269 299.332 286.045C299.514 285.822 299.641 285.553 299.712 285.239H301.366C301.305 285.803 301.122 286.307 300.815 286.75C300.508 287.193 300.097 287.542 299.582 287.795C299.07 288.049 298.47 288.176 297.781 288.176ZM313.259 288.176C312.414 288.176 311.687 287.985 311.077 287.602C310.471 287.216 310.005 286.684 309.679 286.006C309.354 285.328 309.191 284.551 309.191 283.676C309.191 282.79 309.357 282.008 309.691 281.33C310.024 280.648 310.494 280.116 311.1 279.733C311.706 279.35 312.42 279.159 313.242 279.159C313.905 279.159 314.496 279.282 315.014 279.528C315.533 279.771 315.952 280.112 316.27 280.551C316.592 280.991 316.783 281.504 316.844 282.091H315.191C315.1 281.682 314.891 281.33 314.566 281.034C314.244 280.739 313.812 280.591 313.27 280.591C312.797 280.591 312.382 280.716 312.026 280.966C311.674 281.212 311.399 281.564 311.202 282.023C311.005 282.477 310.907 283.015 310.907 283.636C310.907 284.273 311.003 284.822 311.196 285.284C311.389 285.746 311.662 286.104 312.014 286.358C312.371 286.612 312.789 286.739 313.27 286.739C313.592 286.739 313.884 286.68 314.145 286.562C314.41 286.441 314.632 286.269 314.81 286.045C314.992 285.822 315.119 285.553 315.191 285.239H316.844C316.783 285.803 316.6 286.307 316.293 286.75C315.986 287.193 315.575 287.542 315.06 287.795C314.549 288.049 313.948 288.176 313.259 288.176ZM328.822 288.176C327.962 288.176 327.222 287.992 326.601 287.625C325.983 287.254 325.506 286.733 325.169 286.062C324.835 285.388 324.669 284.598 324.669 283.693C324.669 282.799 324.835 282.011 325.169 281.33C325.506 280.648 325.976 280.116 326.578 279.733C327.184 279.35 327.892 279.159 328.703 279.159C329.195 279.159 329.673 279.241 330.135 279.403C330.597 279.566 331.012 279.822 331.379 280.17C331.746 280.519 332.036 280.972 332.248 281.528C332.46 282.081 332.566 282.754 332.566 283.545V284.148H325.629V282.875H330.902C330.902 282.428 330.811 282.032 330.629 281.688C330.447 281.339 330.191 281.064 329.862 280.864C329.536 280.663 329.154 280.562 328.714 280.562C328.237 280.562 327.82 280.68 327.464 280.915C327.112 281.146 326.839 281.449 326.646 281.824C326.457 282.195 326.362 282.598 326.362 283.034V284.028C326.362 284.612 326.464 285.108 326.669 285.517C326.877 285.926 327.167 286.239 327.538 286.455C327.909 286.667 328.343 286.773 328.839 286.773C329.161 286.773 329.455 286.727 329.72 286.636C329.985 286.542 330.214 286.402 330.407 286.216C330.601 286.03 330.748 285.801 330.851 285.528L332.459 285.818C332.33 286.292 332.099 286.706 331.765 287.062C331.436 287.415 331.021 287.689 330.521 287.886C330.025 288.08 329.459 288.176 328.822 288.176ZM347.391 281.403L345.851 281.676C345.787 281.479 345.685 281.292 345.545 281.114C345.408 280.936 345.223 280.79 344.988 280.676C344.753 280.562 344.459 280.506 344.107 280.506C343.626 280.506 343.225 280.614 342.903 280.83C342.581 281.042 342.42 281.316 342.42 281.653C342.42 281.945 342.528 282.18 342.743 282.358C342.959 282.536 343.308 282.682 343.789 282.795L345.175 283.114C345.978 283.299 346.577 283.585 346.971 283.972C347.365 284.358 347.562 284.86 347.562 285.477C347.562 286 347.41 286.466 347.107 286.875C346.808 287.28 346.389 287.598 345.851 287.83C345.317 288.061 344.698 288.176 343.993 288.176C343.016 288.176 342.219 287.968 341.601 287.551C340.984 287.131 340.605 286.534 340.465 285.761L342.107 285.511C342.209 285.939 342.42 286.263 342.738 286.483C343.056 286.699 343.471 286.807 343.982 286.807C344.539 286.807 344.984 286.691 345.317 286.46C345.651 286.225 345.817 285.939 345.817 285.602C345.817 285.33 345.715 285.1 345.511 284.915C345.31 284.729 345.001 284.589 344.584 284.494L343.107 284.17C342.293 283.985 341.69 283.689 341.3 283.284C340.914 282.879 340.721 282.366 340.721 281.744C340.721 281.229 340.865 280.778 341.153 280.392C341.44 280.006 341.838 279.705 342.346 279.489C342.853 279.269 343.435 279.159 344.09 279.159C345.033 279.159 345.776 279.364 346.317 279.773C346.859 280.178 347.217 280.722 347.391 281.403ZM362.369 281.403L360.83 281.676C360.765 281.479 360.663 281.292 360.523 281.114C360.386 280.936 360.201 280.79 359.966 280.676C359.731 280.562 359.438 280.506 359.085 280.506C358.604 280.506 358.203 280.614 357.881 280.83C357.559 281.042 357.398 281.316 357.398 281.653C357.398 281.945 357.506 282.18 357.722 282.358C357.938 282.536 358.286 282.682 358.767 282.795L360.153 283.114C360.956 283.299 361.555 283.585 361.949 283.972C362.343 284.358 362.54 284.86 362.54 285.477C362.54 286 362.388 286.466 362.085 286.875C361.786 287.28 361.367 287.598 360.83 287.83C360.295 288.061 359.676 288.176 358.972 288.176C357.994 288.176 357.197 287.968 356.58 287.551C355.962 287.131 355.583 286.534 355.443 285.761L357.085 285.511C357.188 285.939 357.398 286.263 357.716 286.483C358.034 286.699 358.449 286.807 358.96 286.807C359.517 286.807 359.962 286.691 360.295 286.46C360.629 286.225 360.795 285.939 360.795 285.602C360.795 285.33 360.693 285.1 360.489 284.915C360.288 284.729 359.979 284.589 359.562 284.494L358.085 284.17C357.271 283.985 356.669 283.689 356.278 283.284C355.892 282.879 355.699 282.366 355.699 281.744C355.699 281.229 355.843 280.778 356.131 280.392C356.419 280.006 356.816 279.705 357.324 279.489C357.831 279.269 358.413 279.159 359.068 279.159C360.011 279.159 360.754 279.364 361.295 279.773C361.837 280.178 362.195 280.722 362.369 281.403ZM385.516 279.273V280.636H380.749V279.273H385.516ZM382.027 277.182H383.726V285.438C383.726 285.767 383.775 286.015 383.874 286.182C383.972 286.345 384.099 286.456 384.255 286.517C384.414 286.574 384.586 286.602 384.772 286.602C384.908 286.602 385.027 286.593 385.13 286.574C385.232 286.555 385.311 286.54 385.368 286.528L385.675 287.932C385.577 287.97 385.436 288.008 385.255 288.045C385.073 288.087 384.845 288.11 384.573 288.114C384.126 288.121 383.709 288.042 383.323 287.875C382.936 287.708 382.624 287.451 382.385 287.102C382.147 286.754 382.027 286.316 382.027 285.79V277.182ZM397.378 288.176C396.559 288.176 395.845 287.989 395.236 287.614C394.626 287.239 394.152 286.714 393.815 286.04C393.478 285.366 393.309 284.578 393.309 283.676C393.309 282.771 393.478 281.979 393.815 281.301C394.152 280.623 394.626 280.097 395.236 279.722C395.845 279.347 396.559 279.159 397.378 279.159C398.196 279.159 398.91 279.347 399.52 279.722C400.129 280.097 400.603 280.623 400.94 281.301C401.277 281.979 401.446 282.771 401.446 283.676C401.446 284.578 401.277 285.366 400.94 286.04C400.603 286.714 400.129 287.239 399.52 287.614C398.91 287.989 398.196 288.176 397.378 288.176ZM397.383 286.75C397.914 286.75 398.353 286.61 398.701 286.33C399.05 286.049 399.307 285.676 399.474 285.21C399.645 284.744 399.73 284.231 399.73 283.67C399.73 283.114 399.645 282.602 399.474 282.136C399.307 281.667 399.05 281.29 398.701 281.006C398.353 280.722 397.914 280.58 397.383 280.58C396.849 280.58 396.406 280.722 396.054 281.006C395.705 281.29 395.446 281.667 395.275 282.136C395.109 282.602 395.025 283.114 395.025 283.67C395.025 284.231 395.109 284.744 395.275 285.21C395.446 285.676 395.705 286.049 396.054 286.33C396.406 286.61 396.849 286.75 397.383 286.75ZM424.45 279.273V280.636H419.683V279.273H424.45ZM420.962 277.182H422.661V285.438C422.661 285.767 422.71 286.015 422.808 286.182C422.907 286.345 423.034 286.456 423.189 286.517C423.348 286.574 423.52 286.602 423.706 286.602C423.842 286.602 423.962 286.593 424.064 286.574C424.166 286.555 424.246 286.54 424.303 286.528L424.609 287.932C424.511 287.97 424.371 288.008 424.189 288.045C424.007 288.087 423.78 288.11 423.507 288.114C423.06 288.121 422.643 288.042 422.257 287.875C421.871 287.708 421.558 287.451 421.32 287.102C421.081 286.754 420.962 286.316 420.962 285.79V277.182ZM434.616 282.818V288H432.917V276.364H434.593V280.693H434.701C434.906 280.223 435.218 279.85 435.639 279.574C436.059 279.297 436.608 279.159 437.286 279.159C437.885 279.159 438.408 279.282 438.855 279.528C439.305 279.775 439.654 280.142 439.9 280.631C440.15 281.116 440.275 281.722 440.275 282.449V288H438.576V282.653C438.576 282.013 438.411 281.517 438.082 281.165C437.752 280.809 437.294 280.631 436.707 280.631C436.305 280.631 435.945 280.716 435.627 280.886C435.313 281.057 435.065 281.307 434.883 281.636C434.705 281.962 434.616 282.356 434.616 282.818ZM448.942 288V279.273H450.641V288H448.942ZM449.8 277.926C449.505 277.926 449.251 277.828 449.039 277.631C448.83 277.43 448.726 277.191 448.726 276.915C448.726 276.634 448.83 276.396 449.039 276.199C449.251 275.998 449.505 275.898 449.8 275.898C450.095 275.898 450.347 275.998 450.556 276.199C450.768 276.396 450.874 276.634 450.874 276.915C450.874 277.191 450.768 277.43 450.556 277.631C450.347 277.828 450.095 277.926 449.8 277.926ZM465.866 281.403L464.326 281.676C464.262 281.479 464.16 281.292 464.02 281.114C463.883 280.936 463.698 280.79 463.463 280.676C463.228 280.562 462.934 280.506 462.582 280.506C462.101 280.506 461.7 280.614 461.378 280.83C461.056 281.042 460.895 281.316 460.895 281.653C460.895 281.945 461.003 282.18 461.218 282.358C461.434 282.536 461.783 282.682 462.264 282.795L463.65 283.114C464.453 283.299 465.052 283.585 465.446 283.972C465.84 284.358 466.037 284.86 466.037 285.477C466.037 286 465.885 286.466 465.582 286.875C465.283 287.28 464.864 287.598 464.326 287.83C463.792 288.061 463.173 288.176 462.468 288.176C461.491 288.176 460.694 287.968 460.076 287.551C459.459 287.131 459.08 286.534 458.94 285.761L460.582 285.511C460.684 285.939 460.895 286.263 461.213 286.483C461.531 286.699 461.946 286.807 462.457 286.807C463.014 286.807 463.459 286.691 463.792 286.46C464.126 286.225 464.292 285.939 464.292 285.602C464.292 285.33 464.19 285.1 463.986 284.915C463.785 284.729 463.476 284.589 463.059 284.494L461.582 284.17C460.768 283.985 460.165 283.689 459.775 283.284C459.389 282.879 459.196 282.366 459.196 281.744C459.196 281.229 459.34 280.778 459.628 280.392C459.915 280.006 460.313 279.705 460.821 279.489C461.328 279.269 461.91 279.159 462.565 279.159C463.508 279.159 464.251 279.364 464.792 279.773C465.334 280.178 465.692 280.722 465.866 281.403ZM491.479 281.403L489.939 281.676C489.875 281.479 489.772 281.292 489.632 281.114C489.496 280.936 489.31 280.79 489.075 280.676C488.84 280.562 488.547 280.506 488.195 280.506C487.714 280.506 487.312 280.614 486.99 280.83C486.668 281.042 486.507 281.316 486.507 281.653C486.507 281.945 486.615 282.18 486.831 282.358C487.047 282.536 487.395 282.682 487.876 282.795L489.263 283.114C490.066 283.299 490.664 283.585 491.058 283.972C491.452 284.358 491.649 284.86 491.649 285.477C491.649 286 491.498 286.466 491.195 286.875C490.895 287.28 490.477 287.598 489.939 287.83C489.405 288.061 488.786 288.176 488.081 288.176C487.104 288.176 486.306 287.968 485.689 287.551C485.071 287.131 484.693 286.534 484.553 285.761L486.195 285.511C486.297 285.939 486.507 286.263 486.825 286.483C487.143 286.699 487.558 286.807 488.07 286.807C488.626 286.807 489.071 286.691 489.405 286.46C489.738 286.225 489.905 285.939 489.905 285.602C489.905 285.33 489.803 285.1 489.598 284.915C489.397 284.729 489.089 284.589 488.672 284.494L487.195 284.17C486.38 283.985 485.778 283.689 485.388 283.284C485.001 282.879 484.808 282.366 484.808 281.744C484.808 281.229 484.952 280.778 485.24 280.392C485.528 280.006 485.926 279.705 486.433 279.489C486.941 279.269 487.522 279.159 488.178 279.159C489.121 279.159 489.863 279.364 490.405 279.773C490.946 280.178 491.304 280.722 491.479 281.403ZM503.678 288.176C502.819 288.176 502.078 287.992 501.457 287.625C500.839 287.254 500.362 286.733 500.025 286.062C499.692 285.388 499.525 284.598 499.525 283.693C499.525 282.799 499.692 282.011 500.025 281.33C500.362 280.648 500.832 280.116 501.434 279.733C502.04 279.35 502.748 279.159 503.559 279.159C504.052 279.159 504.529 279.241 504.991 279.403C505.453 279.566 505.868 279.822 506.235 280.17C506.603 280.519 506.892 280.972 507.105 281.528C507.317 282.081 507.423 282.754 507.423 283.545V284.148H500.485V282.875H505.758C505.758 282.428 505.667 282.032 505.485 281.688C505.303 281.339 505.048 281.064 504.718 280.864C504.392 280.663 504.01 280.562 503.57 280.562C503.093 280.562 502.677 280.68 502.32 280.915C501.968 281.146 501.695 281.449 501.502 281.824C501.313 282.195 501.218 282.598 501.218 283.034V284.028C501.218 284.612 501.32 285.108 501.525 285.517C501.733 285.926 502.023 286.239 502.394 286.455C502.766 286.667 503.199 286.773 503.695 286.773C504.017 286.773 504.311 286.727 504.576 286.636C504.841 286.542 505.07 286.402 505.264 286.216C505.457 286.03 505.605 285.801 505.707 285.528L507.315 285.818C507.186 286.292 506.955 286.706 506.622 287.062C506.292 287.415 505.877 287.689 505.377 287.886C504.881 288.08 504.315 288.176 503.678 288.176ZM515.708 288V279.273H517.35V280.659H517.441C517.6 280.189 517.88 279.82 518.282 279.551C518.687 279.278 519.145 279.142 519.657 279.142C519.763 279.142 519.888 279.146 520.032 279.153C520.179 279.161 520.295 279.17 520.378 279.182V280.807C520.31 280.788 520.189 280.767 520.014 280.744C519.84 280.718 519.666 280.705 519.492 280.705C519.09 280.705 518.732 280.79 518.418 280.96C518.107 281.127 517.861 281.36 517.679 281.659C517.497 281.955 517.407 282.292 517.407 282.67V288H515.708ZM535.98 279.273L532.815 288H530.997L527.826 279.273H529.65L531.861 285.989H531.951L534.156 279.273H535.98ZM547.441 288.176C546.581 288.176 545.841 287.992 545.219 287.625C544.602 287.254 544.125 286.733 543.788 286.062C543.454 285.388 543.288 284.598 543.288 283.693C543.288 282.799 543.454 282.011 543.788 281.33C544.125 280.648 544.594 280.116 545.197 279.733C545.803 279.35 546.511 279.159 547.322 279.159C547.814 279.159 548.291 279.241 548.753 279.403C549.216 279.566 549.63 279.822 549.998 280.17C550.365 280.519 550.655 280.972 550.867 281.528C551.079 282.081 551.185 282.754 551.185 283.545V284.148H544.248V282.875H549.52C549.52 282.428 549.43 282.032 549.248 281.688C549.066 281.339 548.81 281.064 548.481 280.864C548.155 280.663 547.772 280.562 547.333 280.562C546.856 280.562 546.439 280.68 546.083 280.915C545.731 281.146 545.458 281.449 545.265 281.824C545.075 282.195 544.981 282.598 544.981 283.034V284.028C544.981 284.612 545.083 285.108 545.288 285.517C545.496 285.926 545.786 286.239 546.157 286.455C546.528 286.667 546.962 286.773 547.458 286.773C547.78 286.773 548.073 286.727 548.339 286.636C548.604 286.542 548.833 286.402 549.026 286.216C549.219 286.03 549.367 285.801 549.469 285.528L551.077 285.818C550.948 286.292 550.717 286.706 550.384 287.062C550.055 287.415 549.64 287.689 549.14 287.886C548.644 288.08 548.077 288.176 547.441 288.176ZM559.47 288V279.273H561.112V280.659H561.203C561.362 280.189 561.643 279.82 562.044 279.551C562.449 279.278 562.908 279.142 563.419 279.142C563.525 279.142 563.65 279.146 563.794 279.153C563.942 279.161 564.057 279.17 564.141 279.182V280.807C564.072 280.788 563.951 280.767 563.777 280.744C563.603 280.718 563.429 280.705 563.254 280.705C562.853 280.705 562.495 280.79 562.18 280.96C561.87 281.127 561.624 281.36 561.442 281.659C561.26 281.955 561.169 282.292 561.169 282.67V288H559.47ZM584.344 282.818V288H582.645V276.364H584.321V280.693H584.429C584.634 280.223 584.946 279.85 585.367 279.574C585.787 279.297 586.336 279.159 587.014 279.159C587.613 279.159 588.136 279.282 588.583 279.528C589.033 279.775 589.382 280.142 589.628 280.631C589.878 281.116 590.003 281.722 590.003 282.449V288H588.304V282.653C588.304 282.013 588.139 281.517 587.81 281.165C587.48 280.809 587.022 280.631 586.435 280.631C586.033 280.631 585.674 280.716 585.355 280.886C585.041 281.057 584.793 281.307 584.611 281.636C584.433 281.962 584.344 282.356 584.344 282.818ZM601.21 288.193C600.657 288.193 600.157 288.091 599.71 287.886C599.263 287.678 598.909 287.377 598.647 286.983C598.39 286.589 598.261 286.106 598.261 285.534C598.261 285.042 598.356 284.636 598.545 284.318C598.735 284 598.99 283.748 599.312 283.562C599.634 283.377 599.994 283.237 600.392 283.142C600.79 283.047 601.195 282.975 601.608 282.926C602.13 282.866 602.555 282.816 602.88 282.778C603.206 282.737 603.443 282.67 603.591 282.58C603.738 282.489 603.812 282.341 603.812 282.136V282.097C603.812 281.6 603.672 281.216 603.392 280.943C603.115 280.67 602.702 280.534 602.153 280.534C601.581 280.534 601.13 280.661 600.801 280.915C600.475 281.165 600.25 281.443 600.125 281.75L598.528 281.386C598.718 280.856 598.994 280.428 599.358 280.102C599.725 279.773 600.147 279.534 600.625 279.386C601.102 279.235 601.604 279.159 602.13 279.159C602.479 279.159 602.848 279.201 603.238 279.284C603.632 279.364 604 279.511 604.341 279.727C604.685 279.943 604.968 280.252 605.187 280.653C605.407 281.051 605.517 281.568 605.517 282.205V288H603.858V286.807H603.79C603.68 287.027 603.515 287.242 603.295 287.455C603.075 287.667 602.793 287.843 602.449 287.983C602.104 288.123 601.691 288.193 601.21 288.193ZM601.579 286.83C602.049 286.83 602.45 286.737 602.784 286.551C603.121 286.366 603.377 286.123 603.551 285.824C603.729 285.521 603.818 285.197 603.818 284.852V283.727C603.757 283.788 603.64 283.845 603.466 283.898C603.295 283.947 603.1 283.991 602.88 284.028C602.661 284.062 602.447 284.095 602.238 284.125C602.03 284.152 601.856 284.174 601.716 284.193C601.386 284.235 601.085 284.305 600.812 284.403C600.543 284.502 600.327 284.644 600.165 284.83C600.005 285.011 599.926 285.254 599.926 285.557C599.926 285.977 600.081 286.295 600.392 286.511C600.702 286.723 601.098 286.83 601.579 286.83ZM620.719 281.403L619.18 281.676C619.115 281.479 619.013 281.292 618.873 281.114C618.736 280.936 618.551 280.79 618.316 280.676C618.081 280.562 617.788 280.506 617.435 280.506C616.954 280.506 616.553 280.614 616.231 280.83C615.909 281.042 615.748 281.316 615.748 281.653C615.748 281.945 615.856 282.18 616.072 282.358C616.288 282.536 616.636 282.682 617.117 282.795L618.503 283.114C619.306 283.299 619.905 283.585 620.299 283.972C620.693 284.358 620.89 284.86 620.89 285.477C620.89 286 620.738 286.466 620.435 286.875C620.136 287.28 619.717 287.598 619.18 287.83C618.645 288.061 618.026 288.176 617.322 288.176C616.344 288.176 615.547 287.968 614.93 287.551C614.312 287.131 613.933 286.534 613.793 285.761L615.435 285.511C615.538 285.939 615.748 286.263 616.066 286.483C616.384 286.699 616.799 286.807 617.31 286.807C617.867 286.807 618.312 286.691 618.645 286.46C618.979 286.225 619.145 285.939 619.145 285.602C619.145 285.33 619.043 285.1 618.839 284.915C618.638 284.729 618.329 284.589 617.913 284.494L616.435 284.17C615.621 283.985 615.019 283.689 614.628 283.284C614.242 282.879 614.049 282.366 614.049 281.744C614.049 281.229 614.193 280.778 614.481 280.392C614.769 280.006 615.166 279.705 615.674 279.489C616.181 279.269 616.763 279.159 617.418 279.159C618.361 279.159 619.104 279.364 619.645 279.773C620.187 280.178 620.545 280.722 620.719 281.403ZM639.928 288V276.364H641.627V280.688H641.73C641.828 280.506 641.97 280.295 642.156 280.057C642.341 279.818 642.599 279.61 642.928 279.432C643.258 279.25 643.694 279.159 644.235 279.159C644.94 279.159 645.569 279.337 646.122 279.693C646.675 280.049 647.108 280.562 647.423 281.233C647.741 281.903 647.9 282.71 647.9 283.653C647.9 284.597 647.743 285.405 647.428 286.08C647.114 286.75 646.682 287.267 646.133 287.631C645.584 287.991 644.957 288.17 644.252 288.17C643.722 288.17 643.288 288.081 642.951 287.903C642.618 287.725 642.356 287.517 642.167 287.278C641.978 287.04 641.832 286.828 641.73 286.642H641.587V288H639.928ZM641.593 283.636C641.593 284.25 641.682 284.788 641.86 285.25C642.038 285.712 642.296 286.074 642.633 286.335C642.97 286.593 643.383 286.722 643.872 286.722C644.379 286.722 644.803 286.587 645.144 286.318C645.485 286.045 645.743 285.676 645.917 285.21C646.095 284.744 646.184 284.22 646.184 283.636C646.184 283.061 646.097 282.544 645.923 282.085C645.752 281.627 645.495 281.265 645.15 281C644.809 280.735 644.383 280.602 643.872 280.602C643.379 280.602 642.962 280.729 642.622 280.983C642.284 281.237 642.029 281.591 641.855 282.045C641.68 282.5 641.593 283.03 641.593 283.636ZM659.969 288.176C659.109 288.176 658.369 287.992 657.747 287.625C657.13 287.254 656.653 286.733 656.316 286.062C655.982 285.388 655.816 284.598 655.816 283.693C655.816 282.799 655.982 282.011 656.316 281.33C656.653 280.648 657.122 280.116 657.725 279.733C658.331 279.35 659.039 279.159 659.85 279.159C660.342 279.159 660.819 279.241 661.282 279.403C661.744 279.566 662.158 279.822 662.526 280.17C662.893 280.519 663.183 280.972 663.395 281.528C663.607 282.081 663.713 282.754 663.713 283.545V284.148H656.776V282.875H662.049C662.049 282.428 661.958 282.032 661.776 281.688C661.594 281.339 661.338 281.064 661.009 280.864C660.683 280.663 660.3 280.562 659.861 280.562C659.384 280.562 658.967 280.68 658.611 280.915C658.259 281.146 657.986 281.449 657.793 281.824C657.603 282.195 657.509 282.598 657.509 283.034V284.028C657.509 284.612 657.611 285.108 657.816 285.517C658.024 285.926 658.314 286.239 658.685 286.455C659.056 286.667 659.49 286.773 659.986 286.773C660.308 286.773 660.602 286.727 660.867 286.636C661.132 286.542 661.361 286.402 661.554 286.216C661.747 286.03 661.895 285.801 661.997 285.528L663.605 285.818C663.477 286.292 663.246 286.706 662.912 287.062C662.583 287.415 662.168 287.689 661.668 287.886C661.172 288.08 660.605 288.176 659.969 288.176ZM671.998 288V279.273H673.697V288H671.998ZM672.856 277.926C672.561 277.926 672.307 277.828 672.095 277.631C671.887 277.43 671.782 277.191 671.782 276.915C671.782 276.634 671.887 276.396 672.095 276.199C672.307 275.998 672.561 275.898 672.856 275.898C673.152 275.898 673.404 275.998 673.612 276.199C673.824 276.396 673.93 276.634 673.93 276.915C673.93 277.191 673.824 277.43 673.612 277.631C673.404 277.828 673.152 277.926 672.856 277.926ZM684.082 282.818V288H682.383V279.273H684.013V280.693H684.121C684.322 280.231 684.636 279.86 685.064 279.58C685.496 279.299 686.04 279.159 686.695 279.159C687.29 279.159 687.811 279.284 688.258 279.534C688.705 279.78 689.051 280.148 689.297 280.636C689.544 281.125 689.667 281.729 689.667 282.449V288H687.968V282.653C687.968 282.021 687.803 281.527 687.474 281.17C687.144 280.811 686.691 280.631 686.116 280.631C685.722 280.631 685.371 280.716 685.064 280.886C684.761 281.057 684.521 281.307 684.343 281.636C684.169 281.962 684.082 282.356 684.082 282.818ZM702.004 291.455C701.311 291.455 700.714 291.364 700.214 291.182C699.718 291 699.313 290.759 698.999 290.46C698.684 290.161 698.449 289.833 698.294 289.477L699.754 288.875C699.857 289.042 699.993 289.218 700.163 289.403C700.338 289.593 700.572 289.754 700.868 289.886C701.167 290.019 701.552 290.085 702.021 290.085C702.665 290.085 703.197 289.928 703.618 289.614C704.038 289.303 704.249 288.807 704.249 288.125V286.409H704.141C704.038 286.595 703.891 286.801 703.697 287.028C703.508 287.256 703.247 287.453 702.913 287.619C702.58 287.786 702.146 287.869 701.612 287.869C700.923 287.869 700.302 287.708 699.749 287.386C699.199 287.061 698.764 286.581 698.442 285.949C698.124 285.312 697.964 284.53 697.964 283.602C697.964 282.674 698.122 281.879 698.436 281.216C698.754 280.553 699.19 280.045 699.743 279.693C700.296 279.337 700.923 279.159 701.624 279.159C702.165 279.159 702.603 279.25 702.936 279.432C703.269 279.61 703.529 279.818 703.714 280.057C703.904 280.295 704.05 280.506 704.152 280.688H704.277V279.273H705.942V288.193C705.942 288.943 705.768 289.559 705.419 290.04C705.071 290.521 704.599 290.877 704.004 291.108C703.413 291.339 702.747 291.455 702.004 291.455ZM701.987 286.46C702.476 286.46 702.889 286.347 703.226 286.119C703.567 285.888 703.824 285.559 703.999 285.131C704.177 284.699 704.266 284.182 704.266 283.58C704.266 282.992 704.179 282.475 704.004 282.028C703.83 281.581 703.574 281.233 703.237 280.983C702.9 280.729 702.483 280.602 701.987 280.602C701.476 280.602 701.05 280.735 700.709 281C700.368 281.261 700.11 281.617 699.936 282.068C699.766 282.519 699.68 283.023 699.68 283.58C699.68 284.152 699.768 284.653 699.942 285.085C700.116 285.517 700.374 285.854 700.714 286.097C701.059 286.339 701.483 286.46 701.987 286.46ZM728.522 288.17C727.817 288.17 727.188 287.991 726.635 287.631C726.086 287.267 725.654 286.75 725.34 286.08C725.029 285.405 724.874 284.597 724.874 283.653C724.874 282.71 725.031 281.903 725.345 281.233C725.664 280.562 726.099 280.049 726.652 279.693C727.205 279.337 727.832 279.159 728.533 279.159C729.075 279.159 729.51 279.25 729.84 279.432C730.173 279.61 730.431 279.818 730.612 280.057C730.798 280.295 730.942 280.506 731.044 280.688H731.147V276.364H732.845V288H731.186V286.642H731.044C730.942 286.828 730.794 287.04 730.601 287.278C730.412 287.517 730.15 287.725 729.817 287.903C729.484 288.081 729.052 288.17 728.522 288.17ZM728.897 286.722C729.385 286.722 729.798 286.593 730.135 286.335C730.476 286.074 730.734 285.712 730.908 285.25C731.086 284.788 731.175 284.25 731.175 283.636C731.175 283.03 731.088 282.5 730.914 282.045C730.739 281.591 730.484 281.237 730.147 280.983C729.809 280.729 729.393 280.602 728.897 280.602C728.385 280.602 727.959 280.735 727.618 281C727.277 281.265 727.02 281.627 726.845 282.085C726.675 282.544 726.59 283.061 726.59 283.636C726.59 284.22 726.677 284.744 726.851 285.21C727.025 285.676 727.283 286.045 727.624 286.318C727.969 286.587 728.393 286.722 728.897 286.722ZM745.432 288.176C744.572 288.176 743.831 287.992 743.21 287.625C742.593 287.254 742.115 286.733 741.778 286.062C741.445 285.388 741.278 284.598 741.278 283.693C741.278 282.799 741.445 282.011 741.778 281.33C742.115 280.648 742.585 280.116 743.187 279.733C743.793 279.35 744.502 279.159 745.312 279.159C745.805 279.159 746.282 279.241 746.744 279.403C747.206 279.566 747.621 279.822 747.988 280.17C748.356 280.519 748.646 280.972 748.858 281.528C749.07 282.081 749.176 282.754 749.176 283.545V284.148H742.238V282.875H747.511C747.511 282.428 747.42 282.032 747.238 281.688C747.057 281.339 746.801 281.064 746.471 280.864C746.146 280.663 745.763 280.562 745.324 280.562C744.846 280.562 744.43 280.68 744.074 280.915C743.721 281.146 743.449 281.449 743.255 281.824C743.066 282.195 742.971 282.598 742.971 283.034V284.028C742.971 284.612 743.074 285.108 743.278 285.517C743.486 285.926 743.776 286.239 744.147 286.455C744.519 286.667 744.952 286.773 745.449 286.773C745.771 286.773 746.064 286.727 746.329 286.636C746.594 286.542 746.824 286.402 747.017 286.216C747.21 286.03 747.358 285.801 747.46 285.528L749.068 285.818C748.939 286.292 748.708 286.706 748.375 287.062C748.045 287.415 747.63 287.689 747.13 287.886C746.634 288.08 746.068 288.176 745.432 288.176ZM759.16 282.818V288H757.461V279.273H759.091V280.693H759.199C759.4 280.231 759.715 279.86 760.143 279.58C760.574 279.299 761.118 279.159 761.773 279.159C762.368 279.159 762.889 279.284 763.336 279.534C763.783 279.78 764.129 280.148 764.376 280.636C764.622 281.125 764.745 281.729 764.745 282.449V288H763.046V282.653C763.046 282.021 762.881 281.527 762.552 281.17C762.222 280.811 761.769 280.631 761.194 280.631C760.8 280.631 760.449 280.716 760.143 280.886C759.84 281.057 759.599 281.307 759.421 281.636C759.247 281.962 759.16 282.356 759.16 282.818ZM773.423 288V279.273H775.122V288H773.423ZM774.281 277.926C773.986 277.926 773.732 277.828 773.52 277.631C773.312 277.43 773.207 277.191 773.207 276.915C773.207 276.634 773.312 276.396 773.52 276.199C773.732 275.998 773.986 275.898 774.281 275.898C774.577 275.898 774.829 275.998 775.037 276.199C775.249 276.396 775.355 276.634 775.355 276.915C775.355 277.191 775.249 277.43 775.037 277.631C774.829 277.828 774.577 277.926 774.281 277.926ZM787.569 288.176C786.709 288.176 785.969 287.992 785.347 287.625C784.73 287.254 784.253 286.733 783.916 286.062C783.582 285.388 783.416 284.598 783.416 283.693C783.416 282.799 783.582 282.011 783.916 281.33C784.253 280.648 784.722 280.116 785.325 279.733C785.931 279.35 786.639 279.159 787.45 279.159C787.942 279.159 788.419 279.241 788.882 279.403C789.344 279.566 789.758 279.822 790.126 280.17C790.493 280.519 790.783 280.972 790.995 281.528C791.207 282.081 791.313 282.754 791.313 283.545V284.148H784.376V282.875H789.649C789.649 282.428 789.558 282.032 789.376 281.688C789.194 281.339 788.938 281.064 788.609 280.864C788.283 280.663 787.9 280.562 787.461 280.562C786.984 280.562 786.567 280.68 786.211 280.915C785.859 281.146 785.586 281.449 785.393 281.824C785.204 282.195 785.109 282.598 785.109 283.034V284.028C785.109 284.612 785.211 285.108 785.416 285.517C785.624 285.926 785.914 286.239 786.285 286.455C786.656 286.667 787.09 286.773 787.586 286.773C787.908 286.773 788.202 286.727 788.467 286.636C788.732 286.542 788.961 286.402 789.154 286.216C789.347 286.03 789.495 285.801 789.597 285.528L791.205 285.818C791.077 286.292 790.846 286.706 790.512 287.062C790.183 287.415 789.768 287.689 789.268 287.886C788.772 288.08 788.205 288.176 787.569 288.176ZM802.865 288.17C802.161 288.17 801.532 287.991 800.979 287.631C800.43 287.267 799.998 286.75 799.684 286.08C799.373 285.405 799.218 284.597 799.218 283.653C799.218 282.71 799.375 281.903 799.689 281.233C800.007 280.562 800.443 280.049 800.996 279.693C801.549 279.337 802.176 279.159 802.877 279.159C803.418 279.159 803.854 279.25 804.184 279.432C804.517 279.61 804.774 279.818 804.956 280.057C805.142 280.295 805.286 280.506 805.388 280.688H805.49V276.364H807.189V288H805.53V286.642H805.388C805.286 286.828 805.138 287.04 804.945 287.278C804.755 287.517 804.494 287.725 804.161 287.903C803.827 288.081 803.396 288.17 802.865 288.17ZM803.24 286.722C803.729 286.722 804.142 286.593 804.479 286.335C804.82 286.074 805.077 285.712 805.252 285.25C805.43 284.788 805.519 284.25 805.519 283.636C805.519 283.03 805.432 282.5 805.257 282.045C805.083 281.591 804.827 281.237 804.49 280.983C804.153 280.729 803.737 280.602 803.24 280.602C802.729 280.602 802.303 280.735 801.962 281C801.621 281.265 801.363 281.627 801.189 282.085C801.019 282.544 800.934 283.061 800.934 283.636C800.934 284.22 801.021 284.744 801.195 285.21C801.369 285.676 801.627 286.045 801.968 286.318C802.312 286.587 802.737 286.722 803.24 286.722Z" fill="#E0E0E0"/>
<g filter="url(#filter2_f_76_5009)">
<path d="M129.943 223.045V212.989L159.568 166.182H167.955V180.5H162.841L142.898 212.102V212.648H184.25V223.045H129.943ZM163.25 236V219.977L163.386 215.477V166.182H175.318V236H163.25ZM259.349 237.33C253.735 237.33 248.917 235.909 244.894 233.068C240.894 230.205 237.815 226.08 235.656 220.693C233.519 215.284 232.451 208.773 232.451 201.159C232.474 193.545 233.553 187.068 235.69 181.727C237.849 176.364 240.928 172.273 244.928 169.455C248.951 166.636 253.758 165.227 259.349 165.227C264.94 165.227 269.747 166.636 273.769 169.455C277.792 172.273 280.872 176.364 283.008 181.727C285.167 187.091 286.247 193.568 286.247 201.159C286.247 208.795 285.167 215.318 283.008 220.727C280.872 226.114 277.792 230.227 273.769 233.068C269.769 235.909 264.963 237.33 259.349 237.33ZM259.349 226.659C263.713 226.659 267.156 224.511 269.678 220.216C272.224 215.898 273.497 209.545 273.497 201.159C273.497 195.614 272.917 190.955 271.758 187.182C270.599 183.409 268.963 180.568 266.849 178.659C264.735 176.727 262.235 175.761 259.349 175.761C255.008 175.761 251.576 177.92 249.053 182.239C246.531 186.534 245.258 192.841 245.235 201.159C245.213 206.727 245.769 211.409 246.906 215.205C248.065 219 249.701 221.864 251.815 223.795C253.928 225.705 256.44 226.659 259.349 226.659ZM361.03 236.955C356.121 236.955 351.757 236.114 347.939 234.432C344.144 232.75 341.144 230.409 338.939 227.409C336.735 224.409 335.564 220.943 335.428 217.011H348.246C348.36 218.898 348.985 220.545 350.121 221.955C351.257 223.341 352.769 224.42 354.655 225.193C356.541 225.966 358.655 226.352 360.996 226.352C363.496 226.352 365.712 225.92 367.644 225.057C369.576 224.17 371.087 222.943 372.178 221.375C373.269 219.807 373.803 218 373.78 215.955C373.803 213.841 373.257 211.977 372.144 210.364C371.03 208.75 369.416 207.489 367.303 206.58C365.212 205.67 362.689 205.216 359.735 205.216H353.564V195.466H359.735C362.166 195.466 364.291 195.045 366.11 194.205C367.951 193.364 369.394 192.182 370.439 190.659C371.485 189.114 371.996 187.33 371.973 185.307C371.996 183.33 371.553 181.614 370.644 180.159C369.757 178.682 368.496 177.534 366.86 176.716C365.246 175.898 363.348 175.489 361.166 175.489C359.03 175.489 357.053 175.875 355.235 176.648C353.416 177.42 351.951 178.523 350.837 179.955C349.723 181.364 349.132 183.045 349.064 185H336.894C336.985 181.091 338.11 177.659 340.269 174.705C342.451 171.727 345.36 169.409 348.996 167.75C352.632 166.068 356.712 165.227 361.235 165.227C365.894 165.227 369.939 166.102 373.371 167.852C376.826 169.58 379.496 171.909 381.382 174.841C383.269 177.773 384.212 181.011 384.212 184.557C384.235 188.489 383.076 191.784 380.735 194.443C378.416 197.102 375.371 198.841 371.598 199.659V200.205C376.507 200.886 380.269 202.705 382.882 205.659C385.519 208.591 386.826 212.239 386.803 216.602C386.803 220.511 385.689 224.011 383.462 227.102C381.257 230.17 378.212 232.58 374.326 234.33C370.462 236.08 366.03 236.955 361.03 236.955ZM499.799 236V166.182H545.208V176.784H512.447V195.739H542.856V206.341H512.447V225.398H545.481V236H499.799ZM596.511 236V166.182H622.693C628.057 166.182 632.557 167.114 636.193 168.977C639.852 170.841 642.614 173.455 644.477 176.818C646.364 180.159 647.307 184.057 647.307 188.511C647.307 192.989 646.352 196.875 644.443 200.17C642.557 203.443 639.773 205.977 636.091 207.773C632.409 209.545 627.886 210.432 622.523 210.432H603.875V199.932H620.818C623.955 199.932 626.523 199.5 628.523 198.636C630.523 197.75 632 196.466 632.955 194.784C633.932 193.08 634.42 190.989 634.42 188.511C634.42 186.034 633.932 183.92 632.955 182.17C631.977 180.398 630.489 179.057 628.489 178.148C626.489 177.216 623.909 176.75 620.75 176.75H609.159V236H596.511ZM632.58 204.364L649.864 236H635.75L618.773 204.364H632.58ZM697.349 236V166.182H723.531C728.894 166.182 733.394 167.114 737.031 168.977C740.69 170.841 743.451 173.455 745.315 176.818C747.201 180.159 748.144 184.057 748.144 188.511C748.144 192.989 747.19 196.875 745.281 200.17C743.394 203.443 740.61 205.977 736.928 207.773C733.247 209.545 728.724 210.432 723.36 210.432H704.713V199.932H721.656C724.792 199.932 727.36 199.5 729.36 198.636C731.36 197.75 732.838 196.466 733.792 194.784C734.769 193.08 735.258 190.989 735.258 188.511C735.258 186.034 734.769 183.92 733.792 182.17C732.815 180.398 731.326 179.057 729.326 178.148C727.326 177.216 724.747 176.75 721.588 176.75H709.997V236H697.349ZM733.417 204.364L750.701 236H736.588L719.61 204.364H733.417ZM860.573 201.091C860.573 208.614 859.164 215.057 856.345 220.42C853.55 225.761 849.732 229.852 844.891 232.693C840.073 235.534 834.607 236.955 828.493 236.955C822.38 236.955 816.902 235.534 812.061 232.693C807.243 229.83 803.425 225.727 800.607 220.386C797.811 215.023 796.414 208.591 796.414 201.091C796.414 193.568 797.811 187.136 800.607 181.795C803.425 176.432 807.243 172.33 812.061 169.489C816.902 166.648 822.38 165.227 828.493 165.227C834.607 165.227 840.073 166.648 844.891 169.489C849.732 172.33 853.55 176.432 856.345 181.795C859.164 187.136 860.573 193.568 860.573 201.091ZM847.857 201.091C847.857 195.795 847.027 191.33 845.368 187.693C843.732 184.034 841.459 181.273 838.55 179.409C835.641 177.523 832.289 176.58 828.493 176.58C824.698 176.58 821.345 177.523 818.436 179.409C815.527 181.273 813.243 184.034 811.584 187.693C809.948 191.33 809.13 195.795 809.13 201.091C809.13 206.386 809.948 210.864 811.584 214.523C813.243 218.159 815.527 220.92 818.436 222.807C821.345 224.67 824.698 225.602 828.493 225.602C832.289 225.602 835.641 224.67 838.55 222.807C841.459 220.92 843.732 218.159 845.368 214.523C847.027 210.864 847.857 206.386 847.857 201.091ZM910.93 236V166.182H937.112C942.476 166.182 946.976 167.114 950.612 168.977C954.271 170.841 957.032 173.455 958.896 176.818C960.782 180.159 961.726 184.057 961.726 188.511C961.726 192.989 960.771 196.875 958.862 200.17C956.976 203.443 954.191 205.977 950.51 207.773C946.828 209.545 942.305 210.432 936.941 210.432H918.294V199.932H935.237C938.373 199.932 940.941 199.5 942.941 198.636C944.941 197.75 946.419 196.466 947.373 194.784C948.351 193.08 948.839 190.989 948.839 188.511C948.839 186.034 948.351 183.92 947.373 182.17C946.396 180.398 944.907 179.057 942.907 178.148C940.907 177.216 938.328 176.75 935.169 176.75H923.578V236H910.93ZM946.998 204.364L964.282 236H950.169L933.191 204.364H946.998Z" fill="#28ECD4"/>
</g>
<path d="M129.943 223.045V212.989L159.568 166.182H167.955V180.5H162.841L142.898 212.102V212.648H184.25V223.045H129.943ZM163.25 236V219.977L163.386 215.477V166.182H175.318V236H163.25ZM259.349 237.33C253.735 237.33 248.917 235.909 244.894 233.068C240.894 230.205 237.815 226.08 235.656 220.693C233.519 215.284 232.451 208.773 232.451 201.159C232.474 193.545 233.553 187.068 235.69 181.727C237.849 176.364 240.928 172.273 244.928 169.455C248.951 166.636 253.758 165.227 259.349 165.227C264.94 165.227 269.747 166.636 273.769 169.455C277.792 172.273 280.872 176.364 283.008 181.727C285.167 187.091 286.247 193.568 286.247 201.159C286.247 208.795 285.167 215.318 283.008 220.727C280.872 226.114 277.792 230.227 273.769 233.068C269.769 235.909 264.963 237.33 259.349 237.33ZM259.349 226.659C263.713 226.659 267.156 224.511 269.678 220.216C272.224 215.898 273.497 209.545 273.497 201.159C273.497 195.614 272.917 190.955 271.758 187.182C270.599 183.409 268.963 180.568 266.849 178.659C264.735 176.727 262.235 175.761 259.349 175.761C255.008 175.761 251.576 177.92 249.053 182.239C246.531 186.534 245.258 192.841 245.235 201.159C245.213 206.727 245.769 211.409 246.906 215.205C248.065 219 249.701 221.864 251.815 223.795C253.928 225.705 256.44 226.659 259.349 226.659ZM361.03 236.955C356.121 236.955 351.757 236.114 347.939 234.432C344.144 232.75 341.144 230.409 338.939 227.409C336.735 224.409 335.564 220.943 335.428 217.011H348.246C348.36 218.898 348.985 220.545 350.121 221.955C351.257 223.341 352.769 224.42 354.655 225.193C356.541 225.966 358.655 226.352 360.996 226.352C363.496 226.352 365.712 225.92 367.644 225.057C369.576 224.17 371.087 222.943 372.178 221.375C373.269 219.807 373.803 218 373.78 215.955C373.803 213.841 373.257 211.977 372.144 210.364C371.03 208.75 369.416 207.489 367.303 206.58C365.212 205.67 362.689 205.216 359.735 205.216H353.564V195.466H359.735C362.166 195.466 364.291 195.045 366.11 194.205C367.951 193.364 369.394 192.182 370.439 190.659C371.485 189.114 371.996 187.33 371.973 185.307C371.996 183.33 371.553 181.614 370.644 180.159C369.757 178.682 368.496 177.534 366.86 176.716C365.246 175.898 363.348 175.489 361.166 175.489C359.03 175.489 357.053 175.875 355.235 176.648C353.416 177.42 351.951 178.523 350.837 179.955C349.723 181.364 349.132 183.045 349.064 185H336.894C336.985 181.091 338.11 177.659 340.269 174.705C342.451 171.727 345.36 169.409 348.996 167.75C352.632 166.068 356.712 165.227 361.235 165.227C365.894 165.227 369.939 166.102 373.371 167.852C376.826 169.58 379.496 171.909 381.382 174.841C383.269 177.773 384.212 181.011 384.212 184.557C384.235 188.489 383.076 191.784 380.735 194.443C378.416 197.102 375.371 198.841 371.598 199.659V200.205C376.507 200.886 380.269 202.705 382.882 205.659C385.519 208.591 386.826 212.239 386.803 216.602C386.803 220.511 385.689 224.011 383.462 227.102C381.257 230.17 378.212 232.58 374.326 234.33C370.462 236.08 366.03 236.955 361.03 236.955ZM499.799 236V166.182H545.208V176.784H512.447V195.739H542.856V206.341H512.447V225.398H545.481V236H499.799ZM596.511 236V166.182H622.693C628.057 166.182 632.557 167.114 636.193 168.977C639.852 170.841 642.614 173.455 644.477 176.818C646.364 180.159 647.307 184.057 647.307 188.511C647.307 192.989 646.352 196.875 644.443 200.17C642.557 203.443 639.773 205.977 636.091 207.773C632.409 209.545 627.886 210.432 622.523 210.432H603.875V199.932H620.818C623.955 199.932 626.523 199.5 628.523 198.636C630.523 197.75 632 196.466 632.955 194.784C633.932 193.08 634.42 190.989 634.42 188.511C634.42 186.034 633.932 183.92 632.955 182.17C631.977 180.398 630.489 179.057 628.489 178.148C626.489 177.216 623.909 176.75 620.75 176.75H609.159V236H596.511ZM632.58 204.364L649.864 236H635.75L618.773 204.364H632.58ZM697.349 236V166.182H723.531C728.894 166.182 733.394 167.114 737.031 168.977C740.69 170.841 743.451 173.455 745.315 176.818C747.201 180.159 748.144 184.057 748.144 188.511C748.144 192.989 747.19 196.875 745.281 200.17C743.394 203.443 740.61 205.977 736.928 207.773C733.247 209.545 728.724 210.432 723.36 210.432H704.713V199.932H721.656C724.792 199.932 727.36 199.5 729.36 198.636C731.36 197.75 732.838 196.466 733.792 194.784C734.769 193.08 735.258 190.989 735.258 188.511C735.258 186.034 734.769 183.92 733.792 182.17C732.815 180.398 731.326 179.057 729.326 178.148C727.326 177.216 724.747 176.75 721.588 176.75H709.997V236H697.349ZM733.417 204.364L750.701 236H736.588L719.61 204.364H733.417ZM860.573 201.091C860.573 208.614 859.164 215.057 856.345 220.42C853.55 225.761 849.732 229.852 844.891 232.693C840.073 235.534 834.607 236.955 828.493 236.955C822.38 236.955 816.902 235.534 812.061 232.693C807.243 229.83 803.425 225.727 800.607 220.386C797.811 215.023 796.414 208.591 796.414 201.091C796.414 193.568 797.811 187.136 800.607 181.795C803.425 176.432 807.243 172.33 812.061 169.489C816.902 166.648 822.38 165.227 828.493 165.227C834.607 165.227 840.073 166.648 844.891 169.489C849.732 172.33 853.55 176.432 856.345 181.795C859.164 187.136 860.573 193.568 860.573 201.091ZM847.857 201.091C847.857 195.795 847.027 191.33 845.368 187.693C843.732 184.034 841.459 181.273 838.55 179.409C835.641 177.523 832.289 176.58 828.493 176.58C824.698 176.58 821.345 177.523 818.436 179.409C815.527 181.273 813.243 184.034 811.584 187.693C809.948 191.33 809.13 195.795 809.13 201.091C809.13 206.386 809.948 210.864 811.584 214.523C813.243 218.159 815.527 220.92 818.436 222.807C821.345 224.67 824.698 225.602 828.493 225.602C832.289 225.602 835.641 224.67 838.55 222.807C841.459 220.92 843.732 218.159 845.368 214.523C847.027 210.864 847.857 206.386 847.857 201.091ZM910.93 236V166.182H937.112C942.476 166.182 946.976 167.114 950.612 168.977C954.271 170.841 957.032 173.455 958.896 176.818C960.782 180.159 961.726 184.057 961.726 188.511C961.726 192.989 960.771 196.875 958.862 200.17C956.976 203.443 954.191 205.977 950.51 207.773C946.828 209.545 942.305 210.432 936.941 210.432H918.294V199.932H935.237C938.373 199.932 940.941 199.5 942.941 198.636C944.941 197.75 946.419 196.466 947.373 194.784C948.351 193.08 948.839 190.989 948.839 188.511C948.839 186.034 948.351 183.92 947.373 182.17C946.396 180.398 944.907 179.057 942.907 178.148C940.907 177.216 938.328 176.75 935.169 176.75H923.578V236H910.93ZM946.998 204.364L964.282 236H950.169L933.191 204.364H946.998Z" fill="#28ECD4"/>
<defs>
<filter id="filter0_f_76_5009" x="4.73718" y="0" width="1045.21" height="583" filterUnits="userSpaceOnUse" color-interpolation-filters="sRGB">
<feFlood flood-opacity="0" result="BackgroundImageFix"/>
<feBlend mode="normal" in="SourceGraphic" in2="BackgroundImageFix" result="shape"/>
<feGaussianBlur stdDeviation="5" result="effect1_foregroundBlur_76_5009"/>
</filter>
<filter id="filter1_f_76_5009" x="124.278" y="271.897" width="686.911" height="23.5566" filterUnits="userSpaceOnUse" color-interpolation-filters="sRGB">
<feFlood flood-opacity="0" result="BackgroundImageFix"/>
<feBlend mode="normal" in="SourceGraphic" in2="BackgroundImageFix" result="shape"/>
<feGaussianBlur stdDeviation="2" result="effect1_foregroundBlur_76_5009"/>
</filter>
<filter id="filter2_f_76_5009" x="125.943" y="161.228" width="842.339" height="80.1016" filterUnits="userSpaceOnUse" color-interpolation-filters="sRGB">
<feFlood flood-opacity="0" result="BackgroundImageFix"/>
<feBlend mode="normal" in="SourceGraphic" in2="BackgroundImageFix" result="shape"/>
<feGaussianBlur stdDeviation="2" result="effect1_foregroundBlur_76_5009"/>
</filter>
</defs>
</svg>
