<svg width="1050" height="583" viewBox="0 0 1050 583" fill="none" xmlns="http://www.w3.org/2000/svg">
<g filter="url(#filter0_f_76_4994)">
<path d="M16.7372 89.1547L110 35.3094L203.263 89.1547V196.845L110 250.691L16.7372 196.845V89.1547Z" stroke="#6D6D6D" stroke-width="4"/>
<path d="M656.737 409.155L750 355.309L843.263 409.155V516.845L750 570.691L656.737 516.845V409.155Z" stroke="#6D6D6D" stroke-width="4"/>
<path d="M912.048 266.655L975 230.309L1037.95 266.655V339.345L975 375.691L912.048 339.345V266.655Z" stroke="#6D6D6D" stroke-width="4"/>
<path d="M303.048 223.655L366 187.309L428.952 223.655V296.345L366 332.691L303.048 296.345V223.655Z" stroke="#6D6D6D" stroke-width="4"/>
<path d="M183.699 423.155L225 399.309L266.301 423.155V470.845L225 494.691L183.699 470.845V423.155Z" stroke="#6D6D6D" stroke-width="4"/>
<path d="M808.699 129.155L850 105.309L891.301 129.155V176.845L850 200.691L808.699 176.845V129.155Z" stroke="#6D6D6D" stroke-width="4"/>
<path d="M630.349 23.6547L650 12.3094L669.651 23.6547V46.3453L650 57.6906L630.349 46.3453V23.6547Z" stroke="#6D6D6D" stroke-width="4"/>
<path d="M519.349 348.655L539 337.309L558.651 348.655V371.345L539 382.691L519.349 371.345V348.655Z" stroke="#6D6D6D" stroke-width="4"/>
<path d="M469.349 98.6547L489 87.3094L508.651 98.6547V121.345L489 132.691L469.349 121.345V98.6547Z" stroke="#6D6D6D" stroke-width="4"/>
</g>
<g filter="url(#filter1_f_76_4994)">
<path d="M128.278 288V276.364H132.426C133.328 276.364 134.076 276.519 134.67 276.83C135.269 277.14 135.716 277.57 136.011 278.119C136.307 278.665 136.455 279.295 136.455 280.011C136.455 280.723 136.305 281.35 136.006 281.892C135.71 282.43 135.263 282.848 134.665 283.148C134.07 283.447 133.322 283.597 132.42 283.597H129.278V282.085H132.261C132.83 282.085 133.292 282.004 133.648 281.841C134.008 281.678 134.271 281.441 134.438 281.131C134.604 280.82 134.688 280.447 134.688 280.011C134.688 279.572 134.602 279.191 134.432 278.869C134.265 278.547 134.002 278.301 133.642 278.131C133.286 277.956 132.818 277.869 132.239 277.869H130.034V288H128.278ZM134.023 282.75L136.898 288H134.898L132.08 282.75H134.023ZM148.507 288.176C147.647 288.176 146.906 287.992 146.285 287.625C145.668 287.254 145.19 286.733 144.853 286.062C144.52 285.388 144.353 284.598 144.353 283.693C144.353 282.799 144.52 282.011 144.853 281.33C145.19 280.648 145.66 280.116 146.262 279.733C146.868 279.35 147.577 279.159 148.387 279.159C148.88 279.159 149.357 279.241 149.819 279.403C150.281 279.566 150.696 279.822 151.063 280.17C151.431 280.519 151.721 280.972 151.933 281.528C152.145 282.081 152.251 282.754 152.251 283.545V284.148H145.313V282.875H150.586C150.586 282.428 150.495 282.032 150.313 281.688C150.132 281.339 149.876 281.064 149.546 280.864C149.221 280.663 148.838 280.562 148.399 280.562C147.921 280.562 147.505 280.68 147.149 280.915C146.796 281.146 146.524 281.449 146.33 281.824C146.141 282.195 146.046 282.598 146.046 283.034V284.028C146.046 284.612 146.149 285.108 146.353 285.517C146.561 285.926 146.851 286.239 147.222 286.455C147.594 286.667 148.027 286.773 148.524 286.773C148.846 286.773 149.139 286.727 149.404 286.636C149.669 286.542 149.899 286.402 150.092 286.216C150.285 286.03 150.433 285.801 150.535 285.528L152.143 285.818C152.014 286.292 151.783 286.706 151.45 287.062C151.12 287.415 150.705 287.689 150.205 287.886C149.709 288.08 149.143 288.176 148.507 288.176ZM166.428 291.273V286.642H166.326C166.223 286.828 166.076 287.04 165.882 287.278C165.693 287.517 165.432 287.725 165.098 287.903C164.765 288.081 164.333 288.17 163.803 288.17C163.098 288.17 162.47 287.991 161.916 287.631C161.367 287.267 160.935 286.75 160.621 286.08C160.31 285.405 160.155 284.597 160.155 283.653C160.155 282.71 160.312 281.903 160.627 281.233C160.945 280.562 161.38 280.049 161.934 279.693C162.487 279.337 163.113 279.159 163.814 279.159C164.356 279.159 164.791 279.25 165.121 279.432C165.454 279.61 165.712 279.818 165.894 280.057C166.079 280.295 166.223 280.506 166.326 280.688H166.468V279.273H168.127V291.273H166.428ZM164.178 286.722C164.666 286.722 165.079 286.593 165.416 286.335C165.757 286.074 166.015 285.712 166.189 285.25C166.367 284.788 166.456 284.25 166.456 283.636C166.456 283.03 166.369 282.5 166.195 282.045C166.021 281.591 165.765 281.237 165.428 280.983C165.091 280.729 164.674 280.602 164.178 280.602C163.666 280.602 163.24 280.735 162.899 281C162.559 281.265 162.301 281.627 162.127 282.085C161.956 282.544 161.871 283.061 161.871 283.636C161.871 284.22 161.958 284.744 162.132 285.21C162.307 285.676 162.564 286.045 162.905 286.318C163.25 286.587 163.674 286.722 164.178 286.722ZM182.339 284.381V279.273H184.044V288H182.373V286.489H182.282C182.082 286.955 181.76 287.343 181.316 287.653C180.877 287.96 180.33 288.114 179.674 288.114C179.114 288.114 178.618 287.991 178.186 287.744C177.758 287.494 177.421 287.125 177.174 286.636C176.932 286.148 176.811 285.544 176.811 284.824V279.273H178.51V284.619C178.51 285.214 178.674 285.687 179.004 286.04C179.334 286.392 179.762 286.568 180.288 286.568C180.606 286.568 180.923 286.489 181.237 286.33C181.555 286.17 181.818 285.93 182.027 285.608C182.239 285.286 182.343 284.877 182.339 284.381ZM196.488 288.176C195.628 288.176 194.887 287.992 194.266 287.625C193.649 287.254 193.171 286.733 192.834 286.062C192.501 285.388 192.334 284.598 192.334 283.693C192.334 282.799 192.501 282.011 192.834 281.33C193.171 280.648 193.641 280.116 194.243 279.733C194.85 279.35 195.558 279.159 196.368 279.159C196.861 279.159 197.338 279.241 197.8 279.403C198.262 279.566 198.677 279.822 199.045 280.17C199.412 280.519 199.702 280.972 199.914 281.528C200.126 282.081 200.232 282.754 200.232 283.545V284.148H193.295V282.875H198.567C198.567 282.428 198.476 282.032 198.295 281.688C198.113 281.339 197.857 281.064 197.528 280.864C197.202 280.663 196.819 280.562 196.38 280.562C195.903 280.562 195.486 280.68 195.13 280.915C194.778 281.146 194.505 281.449 194.312 281.824C194.122 282.195 194.028 282.598 194.028 283.034V284.028C194.028 284.612 194.13 285.108 194.334 285.517C194.543 285.926 194.832 286.239 195.204 286.455C195.575 286.667 196.009 286.773 196.505 286.773C196.827 286.773 197.12 286.727 197.386 286.636C197.651 286.542 197.88 286.402 198.073 286.216C198.266 286.03 198.414 285.801 198.516 285.528L200.124 285.818C199.995 286.292 199.764 286.706 199.431 287.062C199.101 287.415 198.687 287.689 198.187 287.886C197.69 288.08 197.124 288.176 196.488 288.176ZM215.057 281.403L213.517 281.676C213.453 281.479 213.35 281.292 213.21 281.114C213.074 280.936 212.888 280.79 212.653 280.676C212.419 280.562 212.125 280.506 211.773 280.506C211.292 280.506 210.89 280.614 210.568 280.83C210.246 281.042 210.085 281.316 210.085 281.653C210.085 281.945 210.193 282.18 210.409 282.358C210.625 282.536 210.973 282.682 211.455 282.795L212.841 283.114C213.644 283.299 214.242 283.585 214.636 283.972C215.03 284.358 215.227 284.86 215.227 285.477C215.227 286 215.076 286.466 214.773 286.875C214.473 287.28 214.055 287.598 213.517 287.83C212.983 288.061 212.364 288.176 211.659 288.176C210.682 288.176 209.884 287.968 209.267 287.551C208.65 287.131 208.271 286.534 208.131 285.761L209.773 285.511C209.875 285.939 210.085 286.263 210.403 286.483C210.722 286.699 211.136 286.807 211.648 286.807C212.205 286.807 212.65 286.691 212.983 286.46C213.316 286.225 213.483 285.939 213.483 285.602C213.483 285.33 213.381 285.1 213.176 284.915C212.975 284.729 212.667 284.589 212.25 284.494L210.773 284.17C209.958 283.985 209.356 283.689 208.966 283.284C208.58 282.879 208.386 282.366 208.386 281.744C208.386 281.229 208.53 280.778 208.818 280.392C209.106 280.006 209.504 279.705 210.011 279.489C210.519 279.269 211.1 279.159 211.756 279.159C212.699 279.159 213.441 279.364 213.983 279.773C214.525 280.178 214.883 280.722 215.057 281.403ZM227.569 279.273V280.636H222.802V279.273H227.569ZM224.08 277.182H225.779V285.438C225.779 285.767 225.829 286.015 225.927 286.182C226.025 286.345 226.152 286.456 226.308 286.517C226.467 286.574 226.639 286.602 226.825 286.602C226.961 286.602 227.08 286.593 227.183 286.574C227.285 286.555 227.364 286.54 227.421 286.528L227.728 287.932C227.63 287.97 227.489 288.008 227.308 288.045C227.126 288.087 226.899 288.11 226.626 288.114C226.179 288.121 225.762 288.042 225.376 287.875C224.989 287.708 224.677 287.451 224.438 287.102C224.2 286.754 224.08 286.316 224.08 285.79V277.182ZM239.516 288.176C238.656 288.176 237.916 287.992 237.294 287.625C236.677 287.254 236.2 286.733 235.863 286.062C235.529 285.388 235.363 284.598 235.363 283.693C235.363 282.799 235.529 282.011 235.863 281.33C236.2 280.648 236.669 280.116 237.272 279.733C237.878 279.35 238.586 279.159 239.397 279.159C239.889 279.159 240.366 279.241 240.828 279.403C241.291 279.566 241.705 279.822 242.073 280.17C242.44 280.519 242.73 280.972 242.942 281.528C243.154 282.081 243.26 282.754 243.26 283.545V284.148H236.323V282.875H241.595C241.595 282.428 241.505 282.032 241.323 281.688C241.141 281.339 240.885 281.064 240.556 280.864C240.23 280.663 239.847 280.562 239.408 280.562C238.931 280.562 238.514 280.68 238.158 280.915C237.806 281.146 237.533 281.449 237.34 281.824C237.15 282.195 237.056 282.598 237.056 283.034V284.028C237.056 284.612 237.158 285.108 237.363 285.517C237.571 285.926 237.861 286.239 238.232 286.455C238.603 286.667 239.037 286.773 239.533 286.773C239.855 286.773 240.148 286.727 240.414 286.636C240.679 286.542 240.908 286.402 241.101 286.216C241.294 286.03 241.442 285.801 241.544 285.528L243.152 285.818C243.023 286.292 242.792 286.706 242.459 287.062C242.13 287.415 241.715 287.689 241.215 287.886C240.719 288.08 240.152 288.176 239.516 288.176ZM254.812 288.17C254.108 288.17 253.479 287.991 252.926 287.631C252.377 287.267 251.945 286.75 251.63 286.08C251.32 285.405 251.164 284.597 251.164 283.653C251.164 282.71 251.322 281.903 251.636 281.233C251.954 280.562 252.39 280.049 252.943 279.693C253.496 279.337 254.123 279.159 254.824 279.159C255.365 279.159 255.801 279.25 256.13 279.432C256.464 279.61 256.721 279.818 256.903 280.057C257.089 280.295 257.233 280.506 257.335 280.688H257.437V276.364H259.136V288H257.477V286.642H257.335C257.233 286.828 257.085 287.04 256.892 287.278C256.702 287.517 256.441 287.725 256.108 287.903C255.774 288.081 255.343 288.17 254.812 288.17ZM255.187 286.722C255.676 286.722 256.089 286.593 256.426 286.335C256.767 286.074 257.024 285.712 257.199 285.25C257.377 284.788 257.466 284.25 257.466 283.636C257.466 283.03 257.379 282.5 257.204 282.045C257.03 281.591 256.774 281.237 256.437 280.983C256.1 280.729 255.683 280.602 255.187 280.602C254.676 280.602 254.25 280.735 253.909 281C253.568 281.265 253.31 281.627 253.136 282.085C252.966 282.544 252.88 283.061 252.88 283.636C252.88 284.22 252.968 284.744 253.142 285.21C253.316 285.676 253.574 286.045 253.914 286.318C254.259 286.587 254.683 286.722 255.187 286.722ZM278.595 288V279.273H280.237V280.659H280.328C280.487 280.189 280.768 279.82 281.169 279.551C281.574 279.278 282.033 279.142 282.544 279.142C282.65 279.142 282.775 279.146 282.919 279.153C283.067 279.161 283.182 279.17 283.266 279.182V280.807C283.197 280.788 283.076 280.767 282.902 280.744C282.728 280.718 282.554 280.705 282.379 280.705C281.978 280.705 281.62 280.79 281.305 280.96C280.995 281.127 280.749 281.36 280.567 281.659C280.385 281.955 280.294 282.292 280.294 282.67V288H278.595ZM294.585 288.176C293.725 288.176 292.984 287.992 292.363 287.625C291.746 287.254 291.268 286.733 290.931 286.062C290.598 285.388 290.431 284.598 290.431 283.693C290.431 282.799 290.598 282.011 290.931 281.33C291.268 280.648 291.738 280.116 292.34 279.733C292.946 279.35 293.655 279.159 294.465 279.159C294.958 279.159 295.435 279.241 295.897 279.403C296.359 279.566 296.774 279.822 297.141 280.17C297.509 280.519 297.799 280.972 298.011 281.528C298.223 282.081 298.329 282.754 298.329 283.545V284.148H291.391V282.875H296.664C296.664 282.428 296.573 282.032 296.391 281.688C296.21 281.339 295.954 281.064 295.624 280.864C295.299 280.663 294.916 280.562 294.477 280.562C293.999 280.562 293.583 280.68 293.227 280.915C292.874 281.146 292.602 281.449 292.409 281.824C292.219 282.195 292.124 282.598 292.124 283.034V284.028C292.124 284.612 292.227 285.108 292.431 285.517C292.64 285.926 292.929 286.239 293.301 286.455C293.672 286.667 294.105 286.773 294.602 286.773C294.924 286.773 295.217 286.727 295.482 286.636C295.748 286.542 295.977 286.402 296.17 286.216C296.363 286.03 296.511 285.801 296.613 285.528L298.221 285.818C298.092 286.292 297.861 286.706 297.528 287.062C297.198 287.415 296.784 287.689 296.284 287.886C295.787 288.08 295.221 288.176 294.585 288.176ZM313.154 281.403L311.614 281.676C311.55 281.479 311.447 281.292 311.307 281.114C311.171 280.936 310.985 280.79 310.75 280.676C310.515 280.562 310.222 280.506 309.87 280.506C309.389 280.506 308.987 280.614 308.665 280.83C308.343 281.042 308.182 281.316 308.182 281.653C308.182 281.945 308.29 282.18 308.506 282.358C308.722 282.536 309.07 282.682 309.551 282.795L310.938 283.114C311.741 283.299 312.339 283.585 312.733 283.972C313.127 284.358 313.324 284.86 313.324 285.477C313.324 286 313.173 286.466 312.87 286.875C312.57 287.28 312.152 287.598 311.614 287.83C311.08 288.061 310.461 288.176 309.756 288.176C308.779 288.176 307.981 287.968 307.364 287.551C306.746 287.131 306.368 286.534 306.228 285.761L307.87 285.511C307.972 285.939 308.182 286.263 308.5 286.483C308.818 286.699 309.233 286.807 309.745 286.807C310.301 286.807 310.746 286.691 311.08 286.46C311.413 286.225 311.58 285.939 311.58 285.602C311.58 285.33 311.478 285.1 311.273 284.915C311.072 284.729 310.764 284.589 310.347 284.494L308.87 284.17C308.055 283.985 307.453 283.689 307.063 283.284C306.676 282.879 306.483 282.366 306.483 281.744C306.483 281.229 306.627 280.778 306.915 280.392C307.203 280.006 307.601 279.705 308.108 279.489C308.616 279.269 309.197 279.159 309.853 279.159C310.796 279.159 311.538 279.364 312.08 279.773C312.621 280.178 312.979 280.722 313.154 281.403ZM325.268 288.176C324.45 288.176 323.736 287.989 323.126 287.614C322.516 287.239 322.043 286.714 321.706 286.04C321.369 285.366 321.2 284.578 321.2 283.676C321.2 282.771 321.369 281.979 321.706 281.301C322.043 280.623 322.516 280.097 323.126 279.722C323.736 279.347 324.45 279.159 325.268 279.159C326.086 279.159 326.8 279.347 327.41 279.722C328.02 280.097 328.494 280.623 328.831 281.301C329.168 281.979 329.336 282.771 329.336 283.676C329.336 284.578 329.168 285.366 328.831 286.04C328.494 286.714 328.02 287.239 327.41 287.614C326.8 287.989 326.086 288.176 325.268 288.176ZM325.274 286.75C325.804 286.75 326.244 286.61 326.592 286.33C326.941 286.049 327.198 285.676 327.365 285.21C327.535 284.744 327.62 284.231 327.62 283.67C327.62 283.114 327.535 282.602 327.365 282.136C327.198 281.667 326.941 281.29 326.592 281.006C326.244 280.722 325.804 280.58 325.274 280.58C324.74 280.58 324.297 280.722 323.944 281.006C323.596 281.29 323.336 281.667 323.166 282.136C322.999 282.602 322.916 283.114 322.916 283.67C322.916 284.231 322.999 284.744 323.166 285.21C323.336 285.676 323.596 286.049 323.944 286.33C324.297 286.61 324.74 286.75 325.274 286.75ZM343.161 284.381V279.273H344.866V288H343.195V286.489H343.104C342.904 286.955 342.582 287.343 342.138 287.653C341.699 287.96 341.152 288.114 340.496 288.114C339.936 288.114 339.439 287.991 339.008 287.744C338.58 287.494 338.243 287.125 337.996 286.636C337.754 286.148 337.633 285.544 337.633 284.824V279.273H339.332V284.619C339.332 285.214 339.496 285.687 339.826 286.04C340.155 286.392 340.583 286.568 341.11 286.568C341.428 286.568 341.744 286.489 342.059 286.33C342.377 286.17 342.64 285.93 342.849 285.608C343.061 285.286 343.165 284.877 343.161 284.381ZM353.548 288V279.273H355.19V280.659H355.281C355.44 280.189 355.721 279.82 356.122 279.551C356.527 279.278 356.986 279.142 357.497 279.142C357.603 279.142 357.728 279.146 357.872 279.153C358.02 279.161 358.135 279.17 358.219 279.182V280.807C358.151 280.788 358.029 280.767 357.855 280.744C357.681 280.718 357.507 280.705 357.332 280.705C356.931 280.705 356.573 280.79 356.259 280.96C355.948 281.127 355.702 281.36 355.52 281.659C355.338 281.955 355.247 282.292 355.247 282.67V288H353.548ZM369.453 288.176C368.608 288.176 367.881 287.985 367.271 287.602C366.665 287.216 366.199 286.684 365.873 286.006C365.547 285.328 365.384 284.551 365.384 283.676C365.384 282.79 365.551 282.008 365.884 281.33C366.218 280.648 366.687 280.116 367.293 279.733C367.9 279.35 368.614 279.159 369.436 279.159C370.098 279.159 370.689 279.282 371.208 279.528C371.727 279.771 372.146 280.112 372.464 280.551C372.786 280.991 372.977 281.504 373.038 282.091H371.384C371.293 281.682 371.085 281.33 370.759 281.034C370.437 280.739 370.006 280.591 369.464 280.591C368.99 280.591 368.576 280.716 368.22 280.966C367.867 281.212 367.593 281.564 367.396 282.023C367.199 282.477 367.1 283.015 367.1 283.636C367.1 284.273 367.197 284.822 367.39 285.284C367.583 285.746 367.856 286.104 368.208 286.358C368.564 286.612 368.983 286.739 369.464 286.739C369.786 286.739 370.078 286.68 370.339 286.562C370.604 286.441 370.826 286.269 371.004 286.045C371.186 285.822 371.312 285.553 371.384 285.239H373.038C372.977 285.803 372.793 286.307 372.487 286.75C372.18 287.193 371.769 287.542 371.254 287.795C370.742 288.049 370.142 288.176 369.453 288.176ZM385.016 288.176C384.156 288.176 383.416 287.992 382.794 287.625C382.177 287.254 381.7 286.733 381.363 286.062C381.029 285.388 380.863 284.598 380.863 283.693C380.863 282.799 381.029 282.011 381.363 281.33C381.7 280.648 382.169 280.116 382.772 279.733C383.378 279.35 384.086 279.159 384.897 279.159C385.389 279.159 385.866 279.241 386.328 279.403C386.791 279.566 387.205 279.822 387.573 280.17C387.94 280.519 388.23 280.972 388.442 281.528C388.654 282.081 388.76 282.754 388.76 283.545V284.148H381.823V282.875H387.095C387.095 282.428 387.005 282.032 386.823 281.688C386.641 281.339 386.385 281.064 386.056 280.864C385.73 280.663 385.347 280.562 384.908 280.562C384.431 280.562 384.014 280.68 383.658 280.915C383.306 281.146 383.033 281.449 382.84 281.824C382.65 282.195 382.556 282.598 382.556 283.034V284.028C382.556 284.612 382.658 285.108 382.863 285.517C383.071 285.926 383.361 286.239 383.732 286.455C384.103 286.667 384.537 286.773 385.033 286.773C385.355 286.773 385.648 286.727 385.914 286.636C386.179 286.542 386.408 286.402 386.601 286.216C386.794 286.03 386.942 285.801 387.044 285.528L388.652 285.818C388.523 286.292 388.292 286.706 387.959 287.062C387.63 287.415 387.215 287.689 386.715 287.886C386.219 288.08 385.652 288.176 385.016 288.176ZM407.68 288V279.273H409.378V288H407.68ZM408.538 277.926C408.242 277.926 407.988 277.828 407.776 277.631C407.568 277.43 407.464 277.191 407.464 276.915C407.464 276.634 407.568 276.396 407.776 276.199C407.988 275.998 408.242 275.898 408.538 275.898C408.833 275.898 409.085 275.998 409.293 276.199C409.505 276.396 409.611 276.634 409.611 276.915C409.611 277.191 409.505 277.43 409.293 277.631C409.085 277.828 408.833 277.926 408.538 277.926ZM424.604 281.403L423.064 281.676C423 281.479 422.897 281.292 422.757 281.114C422.621 280.936 422.435 280.79 422.2 280.676C421.965 280.562 421.672 280.506 421.32 280.506C420.839 280.506 420.437 280.614 420.115 280.83C419.793 281.042 419.632 281.316 419.632 281.653C419.632 281.945 419.74 282.18 419.956 282.358C420.172 282.536 420.52 282.682 421.001 282.795L422.388 283.114C423.191 283.299 423.789 283.585 424.183 283.972C424.577 284.358 424.774 284.86 424.774 285.477C424.774 286 424.623 286.466 424.32 286.875C424.02 287.28 423.602 287.598 423.064 287.83C422.53 288.061 421.911 288.176 421.206 288.176C420.229 288.176 419.431 287.968 418.814 287.551C418.196 287.131 417.818 286.534 417.678 285.761L419.32 285.511C419.422 285.939 419.632 286.263 419.95 286.483C420.268 286.699 420.683 286.807 421.195 286.807C421.751 286.807 422.196 286.691 422.53 286.46C422.863 286.225 423.03 285.939 423.03 285.602C423.03 285.33 422.928 285.1 422.723 284.915C422.522 284.729 422.214 284.589 421.797 284.494L420.32 284.17C419.505 283.985 418.903 283.689 418.513 283.284C418.126 282.879 417.933 282.366 417.933 281.744C417.933 281.229 418.077 280.778 418.365 280.392C418.653 280.006 419.051 279.705 419.558 279.489C420.066 279.269 420.647 279.159 421.303 279.159C422.246 279.159 422.988 279.364 423.53 279.773C424.071 280.178 424.429 280.722 424.604 281.403ZM445.375 282.818V288H443.676V279.273H445.307V280.693H445.415C445.616 280.231 445.93 279.86 446.358 279.58C446.79 279.299 447.334 279.159 447.989 279.159C448.584 279.159 449.104 279.284 449.551 279.534C449.998 279.78 450.345 280.148 450.591 280.636C450.837 281.125 450.96 281.729 450.96 282.449V288H449.262V282.653C449.262 282.021 449.097 281.527 448.767 281.17C448.438 280.811 447.985 280.631 447.409 280.631C447.015 280.631 446.665 280.716 446.358 280.886C446.055 281.057 445.815 281.307 445.637 281.636C445.462 281.962 445.375 282.356 445.375 282.818ZM463.315 288.176C462.497 288.176 461.783 287.989 461.173 287.614C460.563 287.239 460.09 286.714 459.753 286.04C459.415 285.366 459.247 284.578 459.247 283.676C459.247 282.771 459.415 281.979 459.753 281.301C460.09 280.623 460.563 280.097 461.173 279.722C461.783 279.347 462.497 279.159 463.315 279.159C464.133 279.159 464.847 279.347 465.457 279.722C466.067 280.097 466.54 280.623 466.878 281.301C467.215 281.979 467.383 282.771 467.383 283.676C467.383 284.578 467.215 285.366 466.878 286.04C466.54 286.714 466.067 287.239 465.457 287.614C464.847 287.989 464.133 288.176 463.315 288.176ZM463.321 286.75C463.851 286.75 464.29 286.61 464.639 286.33C464.987 286.049 465.245 285.676 465.412 285.21C465.582 284.744 465.667 284.231 465.667 283.67C465.667 283.114 465.582 282.602 465.412 282.136C465.245 281.667 464.987 281.29 464.639 281.006C464.29 280.722 463.851 280.58 463.321 280.58C462.787 280.58 462.343 280.722 461.991 281.006C461.643 281.29 461.383 281.667 461.213 282.136C461.046 282.602 460.963 283.114 460.963 283.67C460.963 284.231 461.046 284.744 461.213 285.21C461.383 285.676 461.643 286.049 461.991 286.33C462.343 286.61 462.787 286.75 463.321 286.75ZM479.753 279.273V280.636H474.986V279.273H479.753ZM476.265 277.182H477.964V285.438C477.964 285.767 478.013 286.015 478.111 286.182C478.21 286.345 478.337 286.456 478.492 286.517C478.651 286.574 478.823 286.602 479.009 286.602C479.145 286.602 479.265 286.593 479.367 286.574C479.469 286.555 479.549 286.54 479.606 286.528L479.913 287.932C479.814 287.97 479.674 288.008 479.492 288.045C479.31 288.087 479.083 288.11 478.81 288.114C478.363 288.121 477.947 288.042 477.56 287.875C477.174 287.708 476.861 287.451 476.623 287.102C476.384 286.754 476.265 286.316 476.265 285.79V277.182ZM501.207 288.193C500.654 288.193 500.154 288.091 499.707 287.886C499.26 287.678 498.906 287.377 498.644 286.983C498.387 286.589 498.258 286.106 498.258 285.534C498.258 285.042 498.353 284.636 498.542 284.318C498.731 284 498.987 283.748 499.309 283.562C499.631 283.377 499.991 283.237 500.389 283.142C500.786 283.047 501.192 282.975 501.605 282.926C502.127 282.866 502.552 282.816 502.877 282.778C503.203 282.737 503.44 282.67 503.587 282.58C503.735 282.489 503.809 282.341 503.809 282.136V282.097C503.809 281.6 503.669 281.216 503.389 280.943C503.112 280.67 502.699 280.534 502.15 280.534C501.578 280.534 501.127 280.661 500.798 280.915C500.472 281.165 500.247 281.443 500.122 281.75L498.525 281.386C498.714 280.856 498.991 280.428 499.355 280.102C499.722 279.773 500.144 279.534 500.622 279.386C501.099 279.235 501.601 279.159 502.127 279.159C502.476 279.159 502.845 279.201 503.235 279.284C503.629 279.364 503.997 279.511 504.337 279.727C504.682 279.943 504.964 280.252 505.184 280.653C505.404 281.051 505.514 281.568 505.514 282.205V288H503.855V286.807H503.786C503.677 287.027 503.512 287.242 503.292 287.455C503.072 287.667 502.79 287.843 502.445 287.983C502.101 288.123 501.688 288.193 501.207 288.193ZM501.576 286.83C502.046 286.83 502.447 286.737 502.781 286.551C503.118 286.366 503.373 286.123 503.548 285.824C503.726 285.521 503.815 285.197 503.815 284.852V283.727C503.754 283.788 503.637 283.845 503.462 283.898C503.292 283.947 503.097 283.991 502.877 284.028C502.658 284.062 502.444 284.095 502.235 284.125C502.027 284.152 501.853 284.174 501.712 284.193C501.383 284.235 501.082 284.305 500.809 284.403C500.54 284.502 500.324 284.644 500.161 284.83C500.002 285.011 499.923 285.254 499.923 285.557C499.923 285.977 500.078 286.295 500.389 286.511C500.699 286.723 501.095 286.83 501.576 286.83ZM521.33 279.273L518.165 288H516.347L513.176 279.273H515L517.21 285.989H517.301L519.506 279.273H521.33ZM531.616 288.193C531.063 288.193 530.563 288.091 530.116 287.886C529.669 287.678 529.315 287.377 529.054 286.983C528.796 286.589 528.667 286.106 528.667 285.534C528.667 285.042 528.762 284.636 528.951 284.318C529.141 284 529.397 283.748 529.718 283.562C530.04 283.377 530.4 283.237 530.798 283.142C531.196 283.047 531.601 282.975 532.014 282.926C532.537 282.866 532.961 282.816 533.287 282.778C533.612 282.737 533.849 282.67 533.997 282.58C534.145 282.489 534.218 282.341 534.218 282.136V282.097C534.218 281.6 534.078 281.216 533.798 280.943C533.522 280.67 533.109 280.534 532.559 280.534C531.987 280.534 531.537 280.661 531.207 280.915C530.881 281.165 530.656 281.443 530.531 281.75L528.934 281.386C529.124 280.856 529.4 280.428 529.764 280.102C530.131 279.773 530.554 279.534 531.031 279.386C531.508 279.235 532.01 279.159 532.537 279.159C532.885 279.159 533.254 279.201 533.645 279.284C534.039 279.364 534.406 279.511 534.747 279.727C535.092 279.943 535.374 280.252 535.593 280.653C535.813 281.051 535.923 281.568 535.923 282.205V288H534.264V286.807H534.196C534.086 287.027 533.921 287.242 533.701 287.455C533.482 287.667 533.2 287.843 532.855 287.983C532.51 288.123 532.097 288.193 531.616 288.193ZM531.986 286.83C532.455 286.83 532.857 286.737 533.19 286.551C533.527 286.366 533.783 286.123 533.957 285.824C534.135 285.521 534.224 285.197 534.224 284.852V283.727C534.164 283.788 534.046 283.845 533.872 283.898C533.701 283.947 533.506 283.991 533.287 284.028C533.067 284.062 532.853 284.095 532.645 284.125C532.436 284.152 532.262 284.174 532.122 284.193C531.792 284.235 531.491 284.305 531.218 284.403C530.95 284.502 530.734 284.644 530.571 284.83C530.412 285.011 530.332 285.254 530.332 285.557C530.332 285.977 530.487 286.295 530.798 286.511C531.109 286.723 531.504 286.83 531.986 286.83ZM544.586 288V279.273H546.285V288H544.586ZM545.444 277.926C545.148 277.926 544.895 277.828 544.682 277.631C544.474 277.43 544.37 277.191 544.37 276.915C544.37 276.634 544.474 276.396 544.682 276.199C544.895 275.998 545.148 275.898 545.444 275.898C545.739 275.898 545.991 275.998 546.199 276.199C546.412 276.396 546.518 276.634 546.518 276.915C546.518 277.191 546.412 277.43 546.199 277.631C545.991 277.828 545.739 277.926 545.444 277.926ZM556.669 276.364V288H554.97V276.364H556.669ZM567.894 288.193C567.341 288.193 566.841 288.091 566.394 287.886C565.947 287.678 565.593 287.377 565.332 286.983C565.074 286.589 564.945 286.106 564.945 285.534C564.945 285.042 565.04 284.636 565.23 284.318C565.419 284 565.675 283.748 565.997 283.562C566.319 283.377 566.678 283.237 567.076 283.142C567.474 283.047 567.879 282.975 568.292 282.926C568.815 282.866 569.239 282.816 569.565 282.778C569.891 282.737 570.127 282.67 570.275 282.58C570.423 282.489 570.497 282.341 570.497 282.136V282.097C570.497 281.6 570.356 281.216 570.076 280.943C569.8 280.67 569.387 280.534 568.837 280.534C568.266 280.534 567.815 280.661 567.485 280.915C567.159 281.165 566.934 281.443 566.809 281.75L565.212 281.386C565.402 280.856 565.678 280.428 566.042 280.102C566.409 279.773 566.832 279.534 567.309 279.386C567.786 279.235 568.288 279.159 568.815 279.159C569.163 279.159 569.533 279.201 569.923 279.284C570.317 279.364 570.684 279.511 571.025 279.727C571.37 279.943 571.652 280.252 571.872 280.653C572.091 281.051 572.201 281.568 572.201 282.205V288H570.542V286.807H570.474C570.364 287.027 570.199 287.242 569.98 287.455C569.76 287.667 569.478 287.843 569.133 287.983C568.788 288.123 568.375 288.193 567.894 288.193ZM568.264 286.83C568.733 286.83 569.135 286.737 569.468 286.551C569.805 286.366 570.061 286.123 570.235 285.824C570.413 285.521 570.502 285.197 570.502 284.852V283.727C570.442 283.788 570.324 283.845 570.15 283.898C569.98 283.947 569.784 283.991 569.565 284.028C569.345 284.062 569.131 284.095 568.923 284.125C568.714 284.152 568.54 284.174 568.4 284.193C568.07 284.235 567.769 284.305 567.497 284.403C567.228 284.502 567.012 284.644 566.849 284.83C566.69 285.011 566.61 285.254 566.61 285.557C566.61 285.977 566.766 286.295 567.076 286.511C567.387 286.723 567.783 286.83 568.264 286.83ZM581 288V276.364H582.699V280.688H582.801C582.9 280.506 583.042 280.295 583.228 280.057C583.413 279.818 583.671 279.61 584 279.432C584.33 279.25 584.765 279.159 585.307 279.159C586.012 279.159 586.64 279.337 587.193 279.693C587.746 280.049 588.18 280.562 588.495 281.233C588.813 281.903 588.972 282.71 588.972 283.653C588.972 284.597 588.815 285.405 588.5 286.08C588.186 286.75 587.754 287.267 587.205 287.631C586.656 287.991 586.029 288.17 585.324 288.17C584.794 288.17 584.36 288.081 584.023 287.903C583.69 287.725 583.428 287.517 583.239 287.278C583.05 287.04 582.904 286.828 582.801 286.642H582.659V288H581ZM582.665 283.636C582.665 284.25 582.754 284.788 582.932 285.25C583.11 285.712 583.368 286.074 583.705 286.335C584.042 286.593 584.455 286.722 584.943 286.722C585.451 286.722 585.875 286.587 586.216 286.318C586.557 286.045 586.815 285.676 586.989 285.21C587.167 284.744 587.256 284.22 587.256 283.636C587.256 283.061 587.169 282.544 586.995 282.085C586.824 281.627 586.567 281.265 586.222 281C585.881 280.735 585.455 280.602 584.943 280.602C584.451 280.602 584.034 280.729 583.693 280.983C583.356 281.237 583.101 281.591 582.926 282.045C582.752 282.5 582.665 283.03 582.665 283.636ZM598.978 276.364V288H597.28V276.364H598.978ZM611.425 288.176C610.565 288.176 609.825 287.992 609.204 287.625C608.586 287.254 608.109 286.733 607.772 286.062C607.439 285.388 607.272 284.598 607.272 283.693C607.272 282.799 607.439 282.011 607.772 281.33C608.109 280.648 608.579 280.116 609.181 279.733C609.787 279.35 610.495 279.159 611.306 279.159C611.798 279.159 612.276 279.241 612.738 279.403C613.2 279.566 613.615 279.822 613.982 280.17C614.35 280.519 614.639 280.972 614.851 281.528C615.064 282.081 615.17 282.754 615.17 283.545V284.148H608.232V282.875H613.505C613.505 282.428 613.414 282.032 613.232 281.688C613.05 281.339 612.795 281.064 612.465 280.864C612.139 280.663 611.757 280.562 611.317 280.562C610.84 280.562 610.423 280.68 610.067 280.915C609.715 281.146 609.442 281.449 609.249 281.824C609.06 282.195 608.965 282.598 608.965 283.034V284.028C608.965 284.612 609.067 285.108 609.272 285.517C609.48 285.926 609.77 286.239 610.141 286.455C610.512 286.667 610.946 286.773 611.442 286.773C611.764 286.773 612.058 286.727 612.323 286.636C612.588 286.542 612.817 286.402 613.011 286.216C613.204 286.03 613.351 285.801 613.454 285.528L615.062 285.818C614.933 286.292 614.702 286.706 614.368 287.062C614.039 287.415 613.624 287.689 613.124 287.886C612.628 288.08 612.062 288.176 611.425 288.176ZM636.629 288.193C636.076 288.193 635.576 288.091 635.129 287.886C634.682 287.678 634.328 287.377 634.066 286.983C633.809 286.589 633.68 286.106 633.68 285.534C633.68 285.042 633.775 284.636 633.964 284.318C634.153 284 634.409 283.748 634.731 283.562C635.053 283.377 635.413 283.237 635.811 283.142C636.208 283.047 636.614 282.975 637.026 282.926C637.549 282.866 637.973 282.816 638.299 282.778C638.625 282.737 638.862 282.67 639.009 282.58C639.157 282.489 639.231 282.341 639.231 282.136V282.097C639.231 281.6 639.091 281.216 638.811 280.943C638.534 280.67 638.121 280.534 637.572 280.534C637 280.534 636.549 280.661 636.22 280.915C635.894 281.165 635.668 281.443 635.543 281.75L633.947 281.386C634.136 280.856 634.413 280.428 634.776 280.102C635.144 279.773 635.566 279.534 636.043 279.386C636.521 279.235 637.023 279.159 637.549 279.159C637.898 279.159 638.267 279.201 638.657 279.284C639.051 279.364 639.418 279.511 639.759 279.727C640.104 279.943 640.386 280.252 640.606 280.653C640.826 281.051 640.936 281.568 640.936 282.205V288H639.276V286.807H639.208C639.098 287.027 638.934 287.242 638.714 287.455C638.494 287.667 638.212 287.843 637.867 287.983C637.523 288.123 637.11 288.193 636.629 288.193ZM636.998 286.83C637.468 286.83 637.869 286.737 638.203 286.551C638.54 286.366 638.795 286.123 638.97 285.824C639.148 285.521 639.237 285.197 639.237 284.852V283.727C639.176 283.788 639.059 283.845 638.884 283.898C638.714 283.947 638.519 283.991 638.299 284.028C638.079 284.062 637.865 284.095 637.657 284.125C637.449 284.152 637.275 284.174 637.134 284.193C636.805 284.235 636.504 284.305 636.231 284.403C635.962 284.502 635.746 284.644 635.583 284.83C635.424 285.011 635.345 285.254 635.345 285.557C635.345 285.977 635.5 286.295 635.811 286.511C636.121 286.723 636.517 286.83 636.998 286.83ZM653.672 279.273V280.636H648.905V279.273H653.672ZM650.184 277.182H651.882V285.438C651.882 285.767 651.932 286.015 652.03 286.182C652.129 286.345 652.255 286.456 652.411 286.517C652.57 286.574 652.742 286.602 652.928 286.602C653.064 286.602 653.184 286.593 653.286 286.574C653.388 286.555 653.468 286.54 653.524 286.528L653.831 287.932C653.733 287.97 653.593 288.008 653.411 288.045C653.229 288.087 653.002 288.11 652.729 288.114C652.282 288.121 651.865 288.042 651.479 287.875C651.093 287.708 650.78 287.451 650.541 287.102C650.303 286.754 650.184 286.316 650.184 285.79V277.182ZM676.66 279.273V280.636H671.893V279.273H676.66ZM673.171 277.182H674.87V285.438C674.87 285.767 674.919 286.015 675.018 286.182C675.116 286.345 675.243 286.456 675.398 286.517C675.557 286.574 675.73 286.602 675.915 286.602C676.052 286.602 676.171 286.593 676.273 286.574C676.376 286.555 676.455 286.54 676.512 286.528L676.819 287.932C676.72 287.97 676.58 288.008 676.398 288.045C676.216 288.087 675.989 288.11 675.716 288.114C675.269 288.121 674.853 288.042 674.466 287.875C674.08 287.708 673.768 287.451 673.529 287.102C673.29 286.754 673.171 286.316 673.171 285.79V277.182ZM686.825 282.818V288H685.126V276.364H686.803V280.693H686.911C687.115 280.223 687.428 279.85 687.848 279.574C688.268 279.297 688.818 279.159 689.496 279.159C690.094 279.159 690.617 279.282 691.064 279.528C691.515 279.775 691.863 280.142 692.109 280.631C692.359 281.116 692.484 281.722 692.484 282.449V288H690.786V282.653C690.786 282.013 690.621 281.517 690.291 281.165C689.962 280.809 689.503 280.631 688.916 280.631C688.515 280.631 688.155 280.716 687.837 280.886C687.522 281.057 687.274 281.307 687.092 281.636C686.914 281.962 686.825 282.356 686.825 282.818ZM704.913 288.176C704.053 288.176 703.312 287.992 702.691 287.625C702.074 287.254 701.597 286.733 701.259 286.062C700.926 285.388 700.759 284.598 700.759 283.693C700.759 282.799 700.926 282.011 701.259 281.33C701.597 280.648 702.066 280.116 702.668 279.733C703.275 279.35 703.983 279.159 704.793 279.159C705.286 279.159 705.763 279.241 706.225 279.403C706.687 279.566 707.102 279.822 707.47 280.17C707.837 280.519 708.127 280.972 708.339 281.528C708.551 282.081 708.657 282.754 708.657 283.545V284.148H701.72V282.875H706.992C706.992 282.428 706.901 282.032 706.72 281.688C706.538 281.339 706.282 281.064 705.953 280.864C705.627 280.663 705.244 280.562 704.805 280.562C704.328 280.562 703.911 280.68 703.555 280.915C703.203 281.146 702.93 281.449 702.737 281.824C702.547 282.195 702.453 282.598 702.453 283.034V284.028C702.453 284.612 702.555 285.108 702.759 285.517C702.968 285.926 703.258 286.239 703.629 286.455C704 286.667 704.434 286.773 704.93 286.773C705.252 286.773 705.545 286.727 705.811 286.636C706.076 286.542 706.305 286.402 706.498 286.216C706.691 286.03 706.839 285.801 706.941 285.528L708.549 285.818C708.42 286.292 708.189 286.706 707.856 287.062C707.526 287.415 707.112 287.689 706.612 287.886C706.115 288.08 705.549 288.176 704.913 288.176ZM727.576 288V279.273H729.207V280.693H729.315C729.497 280.212 729.794 279.837 730.207 279.568C730.62 279.295 731.114 279.159 731.69 279.159C732.273 279.159 732.762 279.295 733.156 279.568C733.554 279.841 733.847 280.216 734.037 280.693H734.128C734.336 280.227 734.667 279.856 735.122 279.58C735.576 279.299 736.118 279.159 736.747 279.159C737.539 279.159 738.184 279.407 738.684 279.903C739.188 280.4 739.44 281.148 739.44 282.148V288H737.741V282.307C737.741 281.716 737.58 281.288 737.258 281.023C736.936 280.758 736.552 280.625 736.105 280.625C735.552 280.625 735.122 280.795 734.815 281.136C734.508 281.473 734.355 281.907 734.355 282.438V288H732.662V282.199C732.662 281.725 732.514 281.345 732.218 281.057C731.923 280.769 731.539 280.625 731.065 280.625C730.743 280.625 730.446 280.71 730.173 280.881C729.904 281.047 729.686 281.28 729.52 281.58C729.357 281.879 729.275 282.225 729.275 282.619V288H727.576ZM751.793 288.176C750.975 288.176 750.261 287.989 749.651 287.614C749.041 287.239 748.568 286.714 748.231 286.04C747.894 285.366 747.725 284.578 747.725 283.676C747.725 282.771 747.894 281.979 748.231 281.301C748.568 280.623 749.041 280.097 749.651 279.722C750.261 279.347 750.975 279.159 751.793 279.159C752.611 279.159 753.325 279.347 753.935 279.722C754.545 280.097 755.019 280.623 755.356 281.301C755.693 281.979 755.861 282.771 755.861 283.676C755.861 284.578 755.693 285.366 755.356 286.04C755.019 286.714 754.545 287.239 753.935 287.614C753.325 287.989 752.611 288.176 751.793 288.176ZM751.799 286.75C752.329 286.75 752.769 286.61 753.117 286.33C753.466 286.049 753.723 285.676 753.89 285.21C754.06 284.744 754.145 284.231 754.145 283.67C754.145 283.114 754.06 282.602 753.89 282.136C753.723 281.667 753.466 281.29 753.117 281.006C752.769 280.722 752.329 280.58 751.799 280.58C751.265 280.58 750.822 280.722 750.469 281.006C750.121 281.29 749.861 281.667 749.691 282.136C749.524 282.602 749.441 283.114 749.441 283.67C749.441 284.231 749.524 284.744 749.691 285.21C749.861 285.676 750.121 286.049 750.469 286.33C750.822 286.61 751.265 286.75 751.799 286.75ZM764.158 288V279.273H765.788V280.693H765.896C766.078 280.212 766.375 279.837 766.788 279.568C767.201 279.295 767.696 279.159 768.271 279.159C768.855 279.159 769.343 279.295 769.737 279.568C770.135 279.841 770.429 280.216 770.618 280.693H770.709C770.917 280.227 771.249 279.856 771.703 279.58C772.158 279.299 772.699 279.159 773.328 279.159C774.12 279.159 774.766 279.407 775.266 279.903C775.769 280.4 776.021 281.148 776.021 282.148V288H774.322V282.307C774.322 281.716 774.161 281.288 773.839 281.023C773.518 280.758 773.133 280.625 772.686 280.625C772.133 280.625 771.703 280.795 771.396 281.136C771.089 281.473 770.936 281.907 770.936 282.438V288H769.243V282.199C769.243 281.725 769.095 281.345 768.8 281.057C768.504 280.769 768.12 280.625 767.646 280.625C767.324 280.625 767.027 280.71 766.754 280.881C766.485 281.047 766.268 281.28 766.101 281.58C765.938 281.879 765.857 282.225 765.857 282.619V288H764.158ZM788.46 288.176C787.6 288.176 786.859 287.992 786.238 287.625C785.621 287.254 785.143 286.733 784.806 286.062C784.473 285.388 784.306 284.598 784.306 283.693C784.306 282.799 784.473 282.011 784.806 281.33C785.143 280.648 785.613 280.116 786.215 279.733C786.821 279.35 787.53 279.159 788.34 279.159C788.833 279.159 789.31 279.241 789.772 279.403C790.234 279.566 790.649 279.822 791.017 280.17C791.384 280.519 791.674 280.972 791.886 281.528C792.098 282.081 792.204 282.754 792.204 283.545V284.148H785.267V282.875H790.539C790.539 282.428 790.448 282.032 790.267 281.688C790.085 281.339 789.829 281.064 789.499 280.864C789.174 280.663 788.791 280.562 788.352 280.562C787.874 280.562 787.458 280.68 787.102 280.915C786.749 281.146 786.477 281.449 786.284 281.824C786.094 282.195 785.999 282.598 785.999 283.034V284.028C785.999 284.612 786.102 285.108 786.306 285.517C786.515 285.926 786.804 286.239 787.176 286.455C787.547 286.667 787.981 286.773 788.477 286.773C788.799 286.773 789.092 286.727 789.357 286.636C789.623 286.542 789.852 286.402 790.045 286.216C790.238 286.03 790.386 285.801 790.488 285.528L792.096 285.818C791.967 286.292 791.736 286.706 791.403 287.062C791.073 287.415 790.659 287.689 790.159 287.886C789.662 288.08 789.096 288.176 788.46 288.176ZM802.188 282.818V288H800.489V279.273H802.12V280.693H802.228C802.428 280.231 802.743 279.86 803.171 279.58C803.603 279.299 804.146 279.159 804.801 279.159C805.396 279.159 805.917 279.284 806.364 279.534C806.811 279.78 807.157 280.148 807.404 280.636C807.65 281.125 807.773 281.729 807.773 282.449V288H806.074V282.653C806.074 282.021 805.909 281.527 805.58 281.17C805.25 280.811 804.798 280.631 804.222 280.631C803.828 280.631 803.478 280.716 803.171 280.886C802.868 281.057 802.627 281.307 802.449 281.636C802.275 281.962 802.188 282.356 802.188 282.818ZM820.525 279.273V280.636H815.758V279.273H820.525ZM817.037 277.182H818.736V285.438C818.736 285.767 818.785 286.015 818.883 286.182C818.982 286.345 819.109 286.456 819.264 286.517C819.423 286.574 819.595 286.602 819.781 286.602C819.917 286.602 820.037 286.593 820.139 286.574C820.241 286.555 820.321 286.54 820.378 286.528L820.684 287.932C820.586 287.97 820.446 288.008 820.264 288.045C820.082 288.087 819.855 288.11 819.582 288.114C819.135 288.121 818.718 288.042 818.332 287.875C817.946 287.708 817.633 287.451 817.395 287.102C817.156 286.754 817.037 286.316 817.037 285.79V277.182Z" fill="#28ECD4"/>
</g>
<path d="M128.278 288V276.364H132.426C133.328 276.364 134.076 276.519 134.67 276.83C135.269 277.14 135.716 277.57 136.011 278.119C136.307 278.665 136.455 279.295 136.455 280.011C136.455 280.723 136.305 281.35 136.006 281.892C135.71 282.43 135.263 282.848 134.665 283.148C134.07 283.447 133.322 283.597 132.42 283.597H129.278V282.085H132.261C132.83 282.085 133.292 282.004 133.648 281.841C134.008 281.678 134.271 281.441 134.438 281.131C134.604 280.82 134.688 280.447 134.688 280.011C134.688 279.572 134.602 279.191 134.432 278.869C134.265 278.547 134.002 278.301 133.642 278.131C133.286 277.956 132.818 277.869 132.239 277.869H130.034V288H128.278ZM134.023 282.75L136.898 288H134.898L132.08 282.75H134.023ZM148.507 288.176C147.647 288.176 146.906 287.992 146.285 287.625C145.668 287.254 145.19 286.733 144.853 286.062C144.52 285.388 144.353 284.598 144.353 283.693C144.353 282.799 144.52 282.011 144.853 281.33C145.19 280.648 145.66 280.116 146.262 279.733C146.868 279.35 147.577 279.159 148.387 279.159C148.88 279.159 149.357 279.241 149.819 279.403C150.281 279.566 150.696 279.822 151.063 280.17C151.431 280.519 151.721 280.972 151.933 281.528C152.145 282.081 152.251 282.754 152.251 283.545V284.148H145.313V282.875H150.586C150.586 282.428 150.495 282.032 150.313 281.688C150.132 281.339 149.876 281.064 149.546 280.864C149.221 280.663 148.838 280.562 148.399 280.562C147.921 280.562 147.505 280.68 147.149 280.915C146.796 281.146 146.524 281.449 146.33 281.824C146.141 282.195 146.046 282.598 146.046 283.034V284.028C146.046 284.612 146.149 285.108 146.353 285.517C146.561 285.926 146.851 286.239 147.222 286.455C147.594 286.667 148.027 286.773 148.524 286.773C148.846 286.773 149.139 286.727 149.404 286.636C149.669 286.542 149.899 286.402 150.092 286.216C150.285 286.03 150.433 285.801 150.535 285.528L152.143 285.818C152.014 286.292 151.783 286.706 151.45 287.062C151.12 287.415 150.705 287.689 150.205 287.886C149.709 288.08 149.143 288.176 148.507 288.176ZM166.428 291.273V286.642H166.326C166.223 286.828 166.076 287.04 165.882 287.278C165.693 287.517 165.432 287.725 165.098 287.903C164.765 288.081 164.333 288.17 163.803 288.17C163.098 288.17 162.47 287.991 161.916 287.631C161.367 287.267 160.935 286.75 160.621 286.08C160.31 285.405 160.155 284.597 160.155 283.653C160.155 282.71 160.312 281.903 160.627 281.233C160.945 280.562 161.38 280.049 161.934 279.693C162.487 279.337 163.113 279.159 163.814 279.159C164.356 279.159 164.791 279.25 165.121 279.432C165.454 279.61 165.712 279.818 165.894 280.057C166.079 280.295 166.223 280.506 166.326 280.688H166.468V279.273H168.127V291.273H166.428ZM164.178 286.722C164.666 286.722 165.079 286.593 165.416 286.335C165.757 286.074 166.015 285.712 166.189 285.25C166.367 284.788 166.456 284.25 166.456 283.636C166.456 283.03 166.369 282.5 166.195 282.045C166.021 281.591 165.765 281.237 165.428 280.983C165.091 280.729 164.674 280.602 164.178 280.602C163.666 280.602 163.24 280.735 162.899 281C162.559 281.265 162.301 281.627 162.127 282.085C161.956 282.544 161.871 283.061 161.871 283.636C161.871 284.22 161.958 284.744 162.132 285.21C162.307 285.676 162.564 286.045 162.905 286.318C163.25 286.587 163.674 286.722 164.178 286.722ZM182.339 284.381V279.273H184.044V288H182.373V286.489H182.282C182.082 286.955 181.76 287.343 181.316 287.653C180.877 287.96 180.33 288.114 179.674 288.114C179.114 288.114 178.618 287.991 178.186 287.744C177.758 287.494 177.421 287.125 177.174 286.636C176.932 286.148 176.811 285.544 176.811 284.824V279.273H178.51V284.619C178.51 285.214 178.674 285.687 179.004 286.04C179.334 286.392 179.762 286.568 180.288 286.568C180.606 286.568 180.923 286.489 181.237 286.33C181.555 286.17 181.818 285.93 182.027 285.608C182.239 285.286 182.343 284.877 182.339 284.381ZM196.488 288.176C195.628 288.176 194.887 287.992 194.266 287.625C193.649 287.254 193.171 286.733 192.834 286.062C192.501 285.388 192.334 284.598 192.334 283.693C192.334 282.799 192.501 282.011 192.834 281.33C193.171 280.648 193.641 280.116 194.243 279.733C194.85 279.35 195.558 279.159 196.368 279.159C196.861 279.159 197.338 279.241 197.8 279.403C198.262 279.566 198.677 279.822 199.045 280.17C199.412 280.519 199.702 280.972 199.914 281.528C200.126 282.081 200.232 282.754 200.232 283.545V284.148H193.295V282.875H198.567C198.567 282.428 198.476 282.032 198.295 281.688C198.113 281.339 197.857 281.064 197.528 280.864C197.202 280.663 196.819 280.562 196.38 280.562C195.903 280.562 195.486 280.68 195.13 280.915C194.778 281.146 194.505 281.449 194.312 281.824C194.122 282.195 194.028 282.598 194.028 283.034V284.028C194.028 284.612 194.13 285.108 194.334 285.517C194.543 285.926 194.832 286.239 195.204 286.455C195.575 286.667 196.009 286.773 196.505 286.773C196.827 286.773 197.12 286.727 197.386 286.636C197.651 286.542 197.88 286.402 198.073 286.216C198.266 286.03 198.414 285.801 198.516 285.528L200.124 285.818C199.995 286.292 199.764 286.706 199.431 287.062C199.101 287.415 198.687 287.689 198.187 287.886C197.69 288.08 197.124 288.176 196.488 288.176ZM215.057 281.403L213.517 281.676C213.453 281.479 213.35 281.292 213.21 281.114C213.074 280.936 212.888 280.79 212.653 280.676C212.419 280.562 212.125 280.506 211.773 280.506C211.292 280.506 210.89 280.614 210.568 280.83C210.246 281.042 210.085 281.316 210.085 281.653C210.085 281.945 210.193 282.18 210.409 282.358C210.625 282.536 210.973 282.682 211.455 282.795L212.841 283.114C213.644 283.299 214.242 283.585 214.636 283.972C215.03 284.358 215.227 284.86 215.227 285.477C215.227 286 215.076 286.466 214.773 286.875C214.473 287.28 214.055 287.598 213.517 287.83C212.983 288.061 212.364 288.176 211.659 288.176C210.682 288.176 209.884 287.968 209.267 287.551C208.65 287.131 208.271 286.534 208.131 285.761L209.773 285.511C209.875 285.939 210.085 286.263 210.403 286.483C210.722 286.699 211.136 286.807 211.648 286.807C212.205 286.807 212.65 286.691 212.983 286.46C213.316 286.225 213.483 285.939 213.483 285.602C213.483 285.33 213.381 285.1 213.176 284.915C212.975 284.729 212.667 284.589 212.25 284.494L210.773 284.17C209.958 283.985 209.356 283.689 208.966 283.284C208.58 282.879 208.386 282.366 208.386 281.744C208.386 281.229 208.53 280.778 208.818 280.392C209.106 280.006 209.504 279.705 210.011 279.489C210.519 279.269 211.1 279.159 211.756 279.159C212.699 279.159 213.441 279.364 213.983 279.773C214.525 280.178 214.883 280.722 215.057 281.403ZM227.569 279.273V280.636H222.802V279.273H227.569ZM224.08 277.182H225.779V285.438C225.779 285.767 225.829 286.015 225.927 286.182C226.025 286.345 226.152 286.456 226.308 286.517C226.467 286.574 226.639 286.602 226.825 286.602C226.961 286.602 227.08 286.593 227.183 286.574C227.285 286.555 227.364 286.54 227.421 286.528L227.728 287.932C227.63 287.97 227.489 288.008 227.308 288.045C227.126 288.087 226.899 288.11 226.626 288.114C226.179 288.121 225.762 288.042 225.376 287.875C224.989 287.708 224.677 287.451 224.438 287.102C224.2 286.754 224.08 286.316 224.08 285.79V277.182ZM239.516 288.176C238.656 288.176 237.916 287.992 237.294 287.625C236.677 287.254 236.2 286.733 235.863 286.062C235.529 285.388 235.363 284.598 235.363 283.693C235.363 282.799 235.529 282.011 235.863 281.33C236.2 280.648 236.669 280.116 237.272 279.733C237.878 279.35 238.586 279.159 239.397 279.159C239.889 279.159 240.366 279.241 240.828 279.403C241.291 279.566 241.705 279.822 242.073 280.17C242.44 280.519 242.73 280.972 242.942 281.528C243.154 282.081 243.26 282.754 243.26 283.545V284.148H236.323V282.875H241.595C241.595 282.428 241.505 282.032 241.323 281.688C241.141 281.339 240.885 281.064 240.556 280.864C240.23 280.663 239.847 280.562 239.408 280.562C238.931 280.562 238.514 280.68 238.158 280.915C237.806 281.146 237.533 281.449 237.34 281.824C237.15 282.195 237.056 282.598 237.056 283.034V284.028C237.056 284.612 237.158 285.108 237.363 285.517C237.571 285.926 237.861 286.239 238.232 286.455C238.603 286.667 239.037 286.773 239.533 286.773C239.855 286.773 240.148 286.727 240.414 286.636C240.679 286.542 240.908 286.402 241.101 286.216C241.294 286.03 241.442 285.801 241.544 285.528L243.152 285.818C243.023 286.292 242.792 286.706 242.459 287.062C242.13 287.415 241.715 287.689 241.215 287.886C240.719 288.08 240.152 288.176 239.516 288.176ZM254.812 288.17C254.108 288.17 253.479 287.991 252.926 287.631C252.377 287.267 251.945 286.75 251.63 286.08C251.32 285.405 251.164 284.597 251.164 283.653C251.164 282.71 251.322 281.903 251.636 281.233C251.954 280.562 252.39 280.049 252.943 279.693C253.496 279.337 254.123 279.159 254.824 279.159C255.365 279.159 255.801 279.25 256.13 279.432C256.464 279.61 256.721 279.818 256.903 280.057C257.089 280.295 257.233 280.506 257.335 280.688H257.437V276.364H259.136V288H257.477V286.642H257.335C257.233 286.828 257.085 287.04 256.892 287.278C256.702 287.517 256.441 287.725 256.108 287.903C255.774 288.081 255.343 288.17 254.812 288.17ZM255.187 286.722C255.676 286.722 256.089 286.593 256.426 286.335C256.767 286.074 257.024 285.712 257.199 285.25C257.377 284.788 257.466 284.25 257.466 283.636C257.466 283.03 257.379 282.5 257.204 282.045C257.03 281.591 256.774 281.237 256.437 280.983C256.1 280.729 255.683 280.602 255.187 280.602C254.676 280.602 254.25 280.735 253.909 281C253.568 281.265 253.31 281.627 253.136 282.085C252.966 282.544 252.88 283.061 252.88 283.636C252.88 284.22 252.968 284.744 253.142 285.21C253.316 285.676 253.574 286.045 253.914 286.318C254.259 286.587 254.683 286.722 255.187 286.722ZM278.595 288V279.273H280.237V280.659H280.328C280.487 280.189 280.768 279.82 281.169 279.551C281.574 279.278 282.033 279.142 282.544 279.142C282.65 279.142 282.775 279.146 282.919 279.153C283.067 279.161 283.182 279.17 283.266 279.182V280.807C283.197 280.788 283.076 280.767 282.902 280.744C282.728 280.718 282.554 280.705 282.379 280.705C281.978 280.705 281.62 280.79 281.305 280.96C280.995 281.127 280.749 281.36 280.567 281.659C280.385 281.955 280.294 282.292 280.294 282.67V288H278.595ZM294.585 288.176C293.725 288.176 292.984 287.992 292.363 287.625C291.746 287.254 291.268 286.733 290.931 286.062C290.598 285.388 290.431 284.598 290.431 283.693C290.431 282.799 290.598 282.011 290.931 281.33C291.268 280.648 291.738 280.116 292.34 279.733C292.946 279.35 293.655 279.159 294.465 279.159C294.958 279.159 295.435 279.241 295.897 279.403C296.359 279.566 296.774 279.822 297.141 280.17C297.509 280.519 297.799 280.972 298.011 281.528C298.223 282.081 298.329 282.754 298.329 283.545V284.148H291.391V282.875H296.664C296.664 282.428 296.573 282.032 296.391 281.688C296.21 281.339 295.954 281.064 295.624 280.864C295.299 280.663 294.916 280.562 294.477 280.562C293.999 280.562 293.583 280.68 293.227 280.915C292.874 281.146 292.602 281.449 292.409 281.824C292.219 282.195 292.124 282.598 292.124 283.034V284.028C292.124 284.612 292.227 285.108 292.431 285.517C292.64 285.926 292.929 286.239 293.301 286.455C293.672 286.667 294.105 286.773 294.602 286.773C294.924 286.773 295.217 286.727 295.482 286.636C295.748 286.542 295.977 286.402 296.17 286.216C296.363 286.03 296.511 285.801 296.613 285.528L298.221 285.818C298.092 286.292 297.861 286.706 297.528 287.062C297.198 287.415 296.784 287.689 296.284 287.886C295.787 288.08 295.221 288.176 294.585 288.176ZM313.154 281.403L311.614 281.676C311.55 281.479 311.447 281.292 311.307 281.114C311.171 280.936 310.985 280.79 310.75 280.676C310.515 280.562 310.222 280.506 309.87 280.506C309.389 280.506 308.987 280.614 308.665 280.83C308.343 281.042 308.182 281.316 308.182 281.653C308.182 281.945 308.29 282.18 308.506 282.358C308.722 282.536 309.07 282.682 309.551 282.795L310.938 283.114C311.741 283.299 312.339 283.585 312.733 283.972C313.127 284.358 313.324 284.86 313.324 285.477C313.324 286 313.173 286.466 312.87 286.875C312.57 287.28 312.152 287.598 311.614 287.83C311.08 288.061 310.461 288.176 309.756 288.176C308.779 288.176 307.981 287.968 307.364 287.551C306.746 287.131 306.368 286.534 306.228 285.761L307.87 285.511C307.972 285.939 308.182 286.263 308.5 286.483C308.818 286.699 309.233 286.807 309.745 286.807C310.301 286.807 310.746 286.691 311.08 286.46C311.413 286.225 311.58 285.939 311.58 285.602C311.58 285.33 311.478 285.1 311.273 284.915C311.072 284.729 310.764 284.589 310.347 284.494L308.87 284.17C308.055 283.985 307.453 283.689 307.063 283.284C306.676 282.879 306.483 282.366 306.483 281.744C306.483 281.229 306.627 280.778 306.915 280.392C307.203 280.006 307.601 279.705 308.108 279.489C308.616 279.269 309.197 279.159 309.853 279.159C310.796 279.159 311.538 279.364 312.08 279.773C312.621 280.178 312.979 280.722 313.154 281.403ZM325.268 288.176C324.45 288.176 323.736 287.989 323.126 287.614C322.516 287.239 322.043 286.714 321.706 286.04C321.369 285.366 321.2 284.578 321.2 283.676C321.2 282.771 321.369 281.979 321.706 281.301C322.043 280.623 322.516 280.097 323.126 279.722C323.736 279.347 324.45 279.159 325.268 279.159C326.086 279.159 326.8 279.347 327.41 279.722C328.02 280.097 328.494 280.623 328.831 281.301C329.168 281.979 329.336 282.771 329.336 283.676C329.336 284.578 329.168 285.366 328.831 286.04C328.494 286.714 328.02 287.239 327.41 287.614C326.8 287.989 326.086 288.176 325.268 288.176ZM325.274 286.75C325.804 286.75 326.244 286.61 326.592 286.33C326.941 286.049 327.198 285.676 327.365 285.21C327.535 284.744 327.62 284.231 327.62 283.67C327.62 283.114 327.535 282.602 327.365 282.136C327.198 281.667 326.941 281.29 326.592 281.006C326.244 280.722 325.804 280.58 325.274 280.58C324.74 280.58 324.297 280.722 323.944 281.006C323.596 281.29 323.336 281.667 323.166 282.136C322.999 282.602 322.916 283.114 322.916 283.67C322.916 284.231 322.999 284.744 323.166 285.21C323.336 285.676 323.596 286.049 323.944 286.33C324.297 286.61 324.74 286.75 325.274 286.75ZM343.161 284.381V279.273H344.866V288H343.195V286.489H343.104C342.904 286.955 342.582 287.343 342.138 287.653C341.699 287.96 341.152 288.114 340.496 288.114C339.936 288.114 339.439 287.991 339.008 287.744C338.58 287.494 338.243 287.125 337.996 286.636C337.754 286.148 337.633 285.544 337.633 284.824V279.273H339.332V284.619C339.332 285.214 339.496 285.687 339.826 286.04C340.155 286.392 340.583 286.568 341.11 286.568C341.428 286.568 341.744 286.489 342.059 286.33C342.377 286.17 342.64 285.93 342.849 285.608C343.061 285.286 343.165 284.877 343.161 284.381ZM353.548 288V279.273H355.19V280.659H355.281C355.44 280.189 355.721 279.82 356.122 279.551C356.527 279.278 356.986 279.142 357.497 279.142C357.603 279.142 357.728 279.146 357.872 279.153C358.02 279.161 358.135 279.17 358.219 279.182V280.807C358.151 280.788 358.029 280.767 357.855 280.744C357.681 280.718 357.507 280.705 357.332 280.705C356.931 280.705 356.573 280.79 356.259 280.96C355.948 281.127 355.702 281.36 355.52 281.659C355.338 281.955 355.247 282.292 355.247 282.67V288H353.548ZM369.453 288.176C368.608 288.176 367.881 287.985 367.271 287.602C366.665 287.216 366.199 286.684 365.873 286.006C365.547 285.328 365.384 284.551 365.384 283.676C365.384 282.79 365.551 282.008 365.884 281.33C366.218 280.648 366.687 280.116 367.293 279.733C367.9 279.35 368.614 279.159 369.436 279.159C370.098 279.159 370.689 279.282 371.208 279.528C371.727 279.771 372.146 280.112 372.464 280.551C372.786 280.991 372.977 281.504 373.038 282.091H371.384C371.293 281.682 371.085 281.33 370.759 281.034C370.437 280.739 370.006 280.591 369.464 280.591C368.99 280.591 368.576 280.716 368.22 280.966C367.867 281.212 367.593 281.564 367.396 282.023C367.199 282.477 367.1 283.015 367.1 283.636C367.1 284.273 367.197 284.822 367.39 285.284C367.583 285.746 367.856 286.104 368.208 286.358C368.564 286.612 368.983 286.739 369.464 286.739C369.786 286.739 370.078 286.68 370.339 286.562C370.604 286.441 370.826 286.269 371.004 286.045C371.186 285.822 371.312 285.553 371.384 285.239H373.038C372.977 285.803 372.793 286.307 372.487 286.75C372.18 287.193 371.769 287.542 371.254 287.795C370.742 288.049 370.142 288.176 369.453 288.176ZM385.016 288.176C384.156 288.176 383.416 287.992 382.794 287.625C382.177 287.254 381.7 286.733 381.363 286.062C381.029 285.388 380.863 284.598 380.863 283.693C380.863 282.799 381.029 282.011 381.363 281.33C381.7 280.648 382.169 280.116 382.772 279.733C383.378 279.35 384.086 279.159 384.897 279.159C385.389 279.159 385.866 279.241 386.328 279.403C386.791 279.566 387.205 279.822 387.573 280.17C387.94 280.519 388.23 280.972 388.442 281.528C388.654 282.081 388.76 282.754 388.76 283.545V284.148H381.823V282.875H387.095C387.095 282.428 387.005 282.032 386.823 281.688C386.641 281.339 386.385 281.064 386.056 280.864C385.73 280.663 385.347 280.562 384.908 280.562C384.431 280.562 384.014 280.68 383.658 280.915C383.306 281.146 383.033 281.449 382.84 281.824C382.65 282.195 382.556 282.598 382.556 283.034V284.028C382.556 284.612 382.658 285.108 382.863 285.517C383.071 285.926 383.361 286.239 383.732 286.455C384.103 286.667 384.537 286.773 385.033 286.773C385.355 286.773 385.648 286.727 385.914 286.636C386.179 286.542 386.408 286.402 386.601 286.216C386.794 286.03 386.942 285.801 387.044 285.528L388.652 285.818C388.523 286.292 388.292 286.706 387.959 287.062C387.63 287.415 387.215 287.689 386.715 287.886C386.219 288.08 385.652 288.176 385.016 288.176ZM407.68 288V279.273H409.378V288H407.68ZM408.538 277.926C408.242 277.926 407.988 277.828 407.776 277.631C407.568 277.43 407.464 277.191 407.464 276.915C407.464 276.634 407.568 276.396 407.776 276.199C407.988 275.998 408.242 275.898 408.538 275.898C408.833 275.898 409.085 275.998 409.293 276.199C409.505 276.396 409.611 276.634 409.611 276.915C409.611 277.191 409.505 277.43 409.293 277.631C409.085 277.828 408.833 277.926 408.538 277.926ZM424.604 281.403L423.064 281.676C423 281.479 422.897 281.292 422.757 281.114C422.621 280.936 422.435 280.79 422.2 280.676C421.965 280.562 421.672 280.506 421.32 280.506C420.839 280.506 420.437 280.614 420.115 280.83C419.793 281.042 419.632 281.316 419.632 281.653C419.632 281.945 419.74 282.18 419.956 282.358C420.172 282.536 420.52 282.682 421.001 282.795L422.388 283.114C423.191 283.299 423.789 283.585 424.183 283.972C424.577 284.358 424.774 284.86 424.774 285.477C424.774 286 424.623 286.466 424.32 286.875C424.02 287.28 423.602 287.598 423.064 287.83C422.53 288.061 421.911 288.176 421.206 288.176C420.229 288.176 419.431 287.968 418.814 287.551C418.196 287.131 417.818 286.534 417.678 285.761L419.32 285.511C419.422 285.939 419.632 286.263 419.95 286.483C420.268 286.699 420.683 286.807 421.195 286.807C421.751 286.807 422.196 286.691 422.53 286.46C422.863 286.225 423.03 285.939 423.03 285.602C423.03 285.33 422.928 285.1 422.723 284.915C422.522 284.729 422.214 284.589 421.797 284.494L420.32 284.17C419.505 283.985 418.903 283.689 418.513 283.284C418.126 282.879 417.933 282.366 417.933 281.744C417.933 281.229 418.077 280.778 418.365 280.392C418.653 280.006 419.051 279.705 419.558 279.489C420.066 279.269 420.647 279.159 421.303 279.159C422.246 279.159 422.988 279.364 423.53 279.773C424.071 280.178 424.429 280.722 424.604 281.403ZM445.375 282.818V288H443.676V279.273H445.307V280.693H445.415C445.616 280.231 445.93 279.86 446.358 279.58C446.79 279.299 447.334 279.159 447.989 279.159C448.584 279.159 449.104 279.284 449.551 279.534C449.998 279.78 450.345 280.148 450.591 280.636C450.837 281.125 450.96 281.729 450.96 282.449V288H449.262V282.653C449.262 282.021 449.097 281.527 448.767 281.17C448.438 280.811 447.985 280.631 447.409 280.631C447.015 280.631 446.665 280.716 446.358 280.886C446.055 281.057 445.815 281.307 445.637 281.636C445.462 281.962 445.375 282.356 445.375 282.818ZM463.315 288.176C462.497 288.176 461.783 287.989 461.173 287.614C460.563 287.239 460.09 286.714 459.753 286.04C459.415 285.366 459.247 284.578 459.247 283.676C459.247 282.771 459.415 281.979 459.753 281.301C460.09 280.623 460.563 280.097 461.173 279.722C461.783 279.347 462.497 279.159 463.315 279.159C464.133 279.159 464.847 279.347 465.457 279.722C466.067 280.097 466.54 280.623 466.878 281.301C467.215 281.979 467.383 282.771 467.383 283.676C467.383 284.578 467.215 285.366 466.878 286.04C466.54 286.714 466.067 287.239 465.457 287.614C464.847 287.989 464.133 288.176 463.315 288.176ZM463.321 286.75C463.851 286.75 464.29 286.61 464.639 286.33C464.987 286.049 465.245 285.676 465.412 285.21C465.582 284.744 465.667 284.231 465.667 283.67C465.667 283.114 465.582 282.602 465.412 282.136C465.245 281.667 464.987 281.29 464.639 281.006C464.29 280.722 463.851 280.58 463.321 280.58C462.787 280.58 462.343 280.722 461.991 281.006C461.643 281.29 461.383 281.667 461.213 282.136C461.046 282.602 460.963 283.114 460.963 283.67C460.963 284.231 461.046 284.744 461.213 285.21C461.383 285.676 461.643 286.049 461.991 286.33C462.343 286.61 462.787 286.75 463.321 286.75ZM479.753 279.273V280.636H474.986V279.273H479.753ZM476.265 277.182H477.964V285.438C477.964 285.767 478.013 286.015 478.111 286.182C478.21 286.345 478.337 286.456 478.492 286.517C478.651 286.574 478.823 286.602 479.009 286.602C479.145 286.602 479.265 286.593 479.367 286.574C479.469 286.555 479.549 286.54 479.606 286.528L479.913 287.932C479.814 287.97 479.674 288.008 479.492 288.045C479.31 288.087 479.083 288.11 478.81 288.114C478.363 288.121 477.947 288.042 477.56 287.875C477.174 287.708 476.861 287.451 476.623 287.102C476.384 286.754 476.265 286.316 476.265 285.79V277.182ZM501.207 288.193C500.654 288.193 500.154 288.091 499.707 287.886C499.26 287.678 498.906 287.377 498.644 286.983C498.387 286.589 498.258 286.106 498.258 285.534C498.258 285.042 498.353 284.636 498.542 284.318C498.731 284 498.987 283.748 499.309 283.562C499.631 283.377 499.991 283.237 500.389 283.142C500.786 283.047 501.192 282.975 501.605 282.926C502.127 282.866 502.552 282.816 502.877 282.778C503.203 282.737 503.44 282.67 503.587 282.58C503.735 282.489 503.809 282.341 503.809 282.136V282.097C503.809 281.6 503.669 281.216 503.389 280.943C503.112 280.67 502.699 280.534 502.15 280.534C501.578 280.534 501.127 280.661 500.798 280.915C500.472 281.165 500.247 281.443 500.122 281.75L498.525 281.386C498.714 280.856 498.991 280.428 499.355 280.102C499.722 279.773 500.144 279.534 500.622 279.386C501.099 279.235 501.601 279.159 502.127 279.159C502.476 279.159 502.845 279.201 503.235 279.284C503.629 279.364 503.997 279.511 504.337 279.727C504.682 279.943 504.964 280.252 505.184 280.653C505.404 281.051 505.514 281.568 505.514 282.205V288H503.855V286.807H503.786C503.677 287.027 503.512 287.242 503.292 287.455C503.072 287.667 502.79 287.843 502.445 287.983C502.101 288.123 501.688 288.193 501.207 288.193ZM501.576 286.83C502.046 286.83 502.447 286.737 502.781 286.551C503.118 286.366 503.373 286.123 503.548 285.824C503.726 285.521 503.815 285.197 503.815 284.852V283.727C503.754 283.788 503.637 283.845 503.462 283.898C503.292 283.947 503.097 283.991 502.877 284.028C502.658 284.062 502.444 284.095 502.235 284.125C502.027 284.152 501.853 284.174 501.712 284.193C501.383 284.235 501.082 284.305 500.809 284.403C500.54 284.502 500.324 284.644 500.161 284.83C500.002 285.011 499.923 285.254 499.923 285.557C499.923 285.977 500.078 286.295 500.389 286.511C500.699 286.723 501.095 286.83 501.576 286.83ZM521.33 279.273L518.165 288H516.347L513.176 279.273H515L517.21 285.989H517.301L519.506 279.273H521.33ZM531.616 288.193C531.063 288.193 530.563 288.091 530.116 287.886C529.669 287.678 529.315 287.377 529.054 286.983C528.796 286.589 528.667 286.106 528.667 285.534C528.667 285.042 528.762 284.636 528.951 284.318C529.141 284 529.397 283.748 529.718 283.562C530.04 283.377 530.4 283.237 530.798 283.142C531.196 283.047 531.601 282.975 532.014 282.926C532.537 282.866 532.961 282.816 533.287 282.778C533.612 282.737 533.849 282.67 533.997 282.58C534.145 282.489 534.218 282.341 534.218 282.136V282.097C534.218 281.6 534.078 281.216 533.798 280.943C533.522 280.67 533.109 280.534 532.559 280.534C531.987 280.534 531.537 280.661 531.207 280.915C530.881 281.165 530.656 281.443 530.531 281.75L528.934 281.386C529.124 280.856 529.4 280.428 529.764 280.102C530.131 279.773 530.554 279.534 531.031 279.386C531.508 279.235 532.01 279.159 532.537 279.159C532.885 279.159 533.254 279.201 533.645 279.284C534.039 279.364 534.406 279.511 534.747 279.727C535.092 279.943 535.374 280.252 535.593 280.653C535.813 281.051 535.923 281.568 535.923 282.205V288H534.264V286.807H534.196C534.086 287.027 533.921 287.242 533.701 287.455C533.482 287.667 533.2 287.843 532.855 287.983C532.51 288.123 532.097 288.193 531.616 288.193ZM531.986 286.83C532.455 286.83 532.857 286.737 533.19 286.551C533.527 286.366 533.783 286.123 533.957 285.824C534.135 285.521 534.224 285.197 534.224 284.852V283.727C534.164 283.788 534.046 283.845 533.872 283.898C533.701 283.947 533.506 283.991 533.287 284.028C533.067 284.062 532.853 284.095 532.645 284.125C532.436 284.152 532.262 284.174 532.122 284.193C531.792 284.235 531.491 284.305 531.218 284.403C530.95 284.502 530.734 284.644 530.571 284.83C530.412 285.011 530.332 285.254 530.332 285.557C530.332 285.977 530.487 286.295 530.798 286.511C531.109 286.723 531.504 286.83 531.986 286.83ZM544.586 288V279.273H546.285V288H544.586ZM545.444 277.926C545.148 277.926 544.895 277.828 544.682 277.631C544.474 277.43 544.37 277.191 544.37 276.915C544.37 276.634 544.474 276.396 544.682 276.199C544.895 275.998 545.148 275.898 545.444 275.898C545.739 275.898 545.991 275.998 546.199 276.199C546.412 276.396 546.518 276.634 546.518 276.915C546.518 277.191 546.412 277.43 546.199 277.631C545.991 277.828 545.739 277.926 545.444 277.926ZM556.669 276.364V288H554.97V276.364H556.669ZM567.894 288.193C567.341 288.193 566.841 288.091 566.394 287.886C565.947 287.678 565.593 287.377 565.332 286.983C565.074 286.589 564.945 286.106 564.945 285.534C564.945 285.042 565.04 284.636 565.23 284.318C565.419 284 565.675 283.748 565.997 283.562C566.319 283.377 566.678 283.237 567.076 283.142C567.474 283.047 567.879 282.975 568.292 282.926C568.815 282.866 569.239 282.816 569.565 282.778C569.891 282.737 570.127 282.67 570.275 282.58C570.423 282.489 570.497 282.341 570.497 282.136V282.097C570.497 281.6 570.356 281.216 570.076 280.943C569.8 280.67 569.387 280.534 568.837 280.534C568.266 280.534 567.815 280.661 567.485 280.915C567.159 281.165 566.934 281.443 566.809 281.75L565.212 281.386C565.402 280.856 565.678 280.428 566.042 280.102C566.409 279.773 566.832 279.534 567.309 279.386C567.786 279.235 568.288 279.159 568.815 279.159C569.163 279.159 569.533 279.201 569.923 279.284C570.317 279.364 570.684 279.511 571.025 279.727C571.37 279.943 571.652 280.252 571.872 280.653C572.091 281.051 572.201 281.568 572.201 282.205V288H570.542V286.807H570.474C570.364 287.027 570.199 287.242 569.98 287.455C569.76 287.667 569.478 287.843 569.133 287.983C568.788 288.123 568.375 288.193 567.894 288.193ZM568.264 286.83C568.733 286.83 569.135 286.737 569.468 286.551C569.805 286.366 570.061 286.123 570.235 285.824C570.413 285.521 570.502 285.197 570.502 284.852V283.727C570.442 283.788 570.324 283.845 570.15 283.898C569.98 283.947 569.784 283.991 569.565 284.028C569.345 284.062 569.131 284.095 568.923 284.125C568.714 284.152 568.54 284.174 568.4 284.193C568.07 284.235 567.769 284.305 567.497 284.403C567.228 284.502 567.012 284.644 566.849 284.83C566.69 285.011 566.61 285.254 566.61 285.557C566.61 285.977 566.766 286.295 567.076 286.511C567.387 286.723 567.783 286.83 568.264 286.83ZM581 288V276.364H582.699V280.688H582.801C582.9 280.506 583.042 280.295 583.228 280.057C583.413 279.818 583.671 279.61 584 279.432C584.33 279.25 584.765 279.159 585.307 279.159C586.012 279.159 586.64 279.337 587.193 279.693C587.746 280.049 588.18 280.562 588.495 281.233C588.813 281.903 588.972 282.71 588.972 283.653C588.972 284.597 588.815 285.405 588.5 286.08C588.186 286.75 587.754 287.267 587.205 287.631C586.656 287.991 586.029 288.17 585.324 288.17C584.794 288.17 584.36 288.081 584.023 287.903C583.69 287.725 583.428 287.517 583.239 287.278C583.05 287.04 582.904 286.828 582.801 286.642H582.659V288H581ZM582.665 283.636C582.665 284.25 582.754 284.788 582.932 285.25C583.11 285.712 583.368 286.074 583.705 286.335C584.042 286.593 584.455 286.722 584.943 286.722C585.451 286.722 585.875 286.587 586.216 286.318C586.557 286.045 586.815 285.676 586.989 285.21C587.167 284.744 587.256 284.22 587.256 283.636C587.256 283.061 587.169 282.544 586.995 282.085C586.824 281.627 586.567 281.265 586.222 281C585.881 280.735 585.455 280.602 584.943 280.602C584.451 280.602 584.034 280.729 583.693 280.983C583.356 281.237 583.101 281.591 582.926 282.045C582.752 282.5 582.665 283.03 582.665 283.636ZM598.978 276.364V288H597.28V276.364H598.978ZM611.425 288.176C610.565 288.176 609.825 287.992 609.204 287.625C608.586 287.254 608.109 286.733 607.772 286.062C607.439 285.388 607.272 284.598 607.272 283.693C607.272 282.799 607.439 282.011 607.772 281.33C608.109 280.648 608.579 280.116 609.181 279.733C609.787 279.35 610.495 279.159 611.306 279.159C611.798 279.159 612.276 279.241 612.738 279.403C613.2 279.566 613.615 279.822 613.982 280.17C614.35 280.519 614.639 280.972 614.851 281.528C615.064 282.081 615.17 282.754 615.17 283.545V284.148H608.232V282.875H613.505C613.505 282.428 613.414 282.032 613.232 281.688C613.05 281.339 612.795 281.064 612.465 280.864C612.139 280.663 611.757 280.562 611.317 280.562C610.84 280.562 610.423 280.68 610.067 280.915C609.715 281.146 609.442 281.449 609.249 281.824C609.06 282.195 608.965 282.598 608.965 283.034V284.028C608.965 284.612 609.067 285.108 609.272 285.517C609.48 285.926 609.77 286.239 610.141 286.455C610.512 286.667 610.946 286.773 611.442 286.773C611.764 286.773 612.058 286.727 612.323 286.636C612.588 286.542 612.817 286.402 613.011 286.216C613.204 286.03 613.351 285.801 613.454 285.528L615.062 285.818C614.933 286.292 614.702 286.706 614.368 287.062C614.039 287.415 613.624 287.689 613.124 287.886C612.628 288.08 612.062 288.176 611.425 288.176ZM636.629 288.193C636.076 288.193 635.576 288.091 635.129 287.886C634.682 287.678 634.328 287.377 634.066 286.983C633.809 286.589 633.68 286.106 633.68 285.534C633.68 285.042 633.775 284.636 633.964 284.318C634.153 284 634.409 283.748 634.731 283.562C635.053 283.377 635.413 283.237 635.811 283.142C636.208 283.047 636.614 282.975 637.026 282.926C637.549 282.866 637.973 282.816 638.299 282.778C638.625 282.737 638.862 282.67 639.009 282.58C639.157 282.489 639.231 282.341 639.231 282.136V282.097C639.231 281.6 639.091 281.216 638.811 280.943C638.534 280.67 638.121 280.534 637.572 280.534C637 280.534 636.549 280.661 636.22 280.915C635.894 281.165 635.668 281.443 635.543 281.75L633.947 281.386C634.136 280.856 634.413 280.428 634.776 280.102C635.144 279.773 635.566 279.534 636.043 279.386C636.521 279.235 637.023 279.159 637.549 279.159C637.898 279.159 638.267 279.201 638.657 279.284C639.051 279.364 639.418 279.511 639.759 279.727C640.104 279.943 640.386 280.252 640.606 280.653C640.826 281.051 640.936 281.568 640.936 282.205V288H639.276V286.807H639.208C639.098 287.027 638.934 287.242 638.714 287.455C638.494 287.667 638.212 287.843 637.867 287.983C637.523 288.123 637.11 288.193 636.629 288.193ZM636.998 286.83C637.468 286.83 637.869 286.737 638.203 286.551C638.54 286.366 638.795 286.123 638.97 285.824C639.148 285.521 639.237 285.197 639.237 284.852V283.727C639.176 283.788 639.059 283.845 638.884 283.898C638.714 283.947 638.519 283.991 638.299 284.028C638.079 284.062 637.865 284.095 637.657 284.125C637.449 284.152 637.275 284.174 637.134 284.193C636.805 284.235 636.504 284.305 636.231 284.403C635.962 284.502 635.746 284.644 635.583 284.83C635.424 285.011 635.345 285.254 635.345 285.557C635.345 285.977 635.5 286.295 635.811 286.511C636.121 286.723 636.517 286.83 636.998 286.83ZM653.672 279.273V280.636H648.905V279.273H653.672ZM650.184 277.182H651.882V285.438C651.882 285.767 651.932 286.015 652.03 286.182C652.129 286.345 652.255 286.456 652.411 286.517C652.57 286.574 652.742 286.602 652.928 286.602C653.064 286.602 653.184 286.593 653.286 286.574C653.388 286.555 653.468 286.54 653.524 286.528L653.831 287.932C653.733 287.97 653.593 288.008 653.411 288.045C653.229 288.087 653.002 288.11 652.729 288.114C652.282 288.121 651.865 288.042 651.479 287.875C651.093 287.708 650.78 287.451 650.541 287.102C650.303 286.754 650.184 286.316 650.184 285.79V277.182ZM676.66 279.273V280.636H671.893V279.273H676.66ZM673.171 277.182H674.87V285.438C674.87 285.767 674.919 286.015 675.018 286.182C675.116 286.345 675.243 286.456 675.398 286.517C675.557 286.574 675.73 286.602 675.915 286.602C676.052 286.602 676.171 286.593 676.273 286.574C676.376 286.555 676.455 286.54 676.512 286.528L676.819 287.932C676.72 287.97 676.58 288.008 676.398 288.045C676.216 288.087 675.989 288.11 675.716 288.114C675.269 288.121 674.853 288.042 674.466 287.875C674.08 287.708 673.768 287.451 673.529 287.102C673.29 286.754 673.171 286.316 673.171 285.79V277.182ZM686.825 282.818V288H685.126V276.364H686.803V280.693H686.911C687.115 280.223 687.428 279.85 687.848 279.574C688.268 279.297 688.818 279.159 689.496 279.159C690.094 279.159 690.617 279.282 691.064 279.528C691.515 279.775 691.863 280.142 692.109 280.631C692.359 281.116 692.484 281.722 692.484 282.449V288H690.786V282.653C690.786 282.013 690.621 281.517 690.291 281.165C689.962 280.809 689.503 280.631 688.916 280.631C688.515 280.631 688.155 280.716 687.837 280.886C687.522 281.057 687.274 281.307 687.092 281.636C686.914 281.962 686.825 282.356 686.825 282.818ZM704.913 288.176C704.053 288.176 703.312 287.992 702.691 287.625C702.074 287.254 701.597 286.733 701.259 286.062C700.926 285.388 700.759 284.598 700.759 283.693C700.759 282.799 700.926 282.011 701.259 281.33C701.597 280.648 702.066 280.116 702.668 279.733C703.275 279.35 703.983 279.159 704.793 279.159C705.286 279.159 705.763 279.241 706.225 279.403C706.687 279.566 707.102 279.822 707.47 280.17C707.837 280.519 708.127 280.972 708.339 281.528C708.551 282.081 708.657 282.754 708.657 283.545V284.148H701.72V282.875H706.992C706.992 282.428 706.901 282.032 706.72 281.688C706.538 281.339 706.282 281.064 705.953 280.864C705.627 280.663 705.244 280.562 704.805 280.562C704.328 280.562 703.911 280.68 703.555 280.915C703.203 281.146 702.93 281.449 702.737 281.824C702.547 282.195 702.453 282.598 702.453 283.034V284.028C702.453 284.612 702.555 285.108 702.759 285.517C702.968 285.926 703.258 286.239 703.629 286.455C704 286.667 704.434 286.773 704.93 286.773C705.252 286.773 705.545 286.727 705.811 286.636C706.076 286.542 706.305 286.402 706.498 286.216C706.691 286.03 706.839 285.801 706.941 285.528L708.549 285.818C708.42 286.292 708.189 286.706 707.856 287.062C707.526 287.415 707.112 287.689 706.612 287.886C706.115 288.08 705.549 288.176 704.913 288.176ZM727.576 288V279.273H729.207V280.693H729.315C729.497 280.212 729.794 279.837 730.207 279.568C730.62 279.295 731.114 279.159 731.69 279.159C732.273 279.159 732.762 279.295 733.156 279.568C733.554 279.841 733.847 280.216 734.037 280.693H734.128C734.336 280.227 734.667 279.856 735.122 279.58C735.576 279.299 736.118 279.159 736.747 279.159C737.539 279.159 738.184 279.407 738.684 279.903C739.188 280.4 739.44 281.148 739.44 282.148V288H737.741V282.307C737.741 281.716 737.58 281.288 737.258 281.023C736.936 280.758 736.552 280.625 736.105 280.625C735.552 280.625 735.122 280.795 734.815 281.136C734.508 281.473 734.355 281.907 734.355 282.438V288H732.662V282.199C732.662 281.725 732.514 281.345 732.218 281.057C731.923 280.769 731.539 280.625 731.065 280.625C730.743 280.625 730.446 280.71 730.173 280.881C729.904 281.047 729.686 281.28 729.52 281.58C729.357 281.879 729.275 282.225 729.275 282.619V288H727.576ZM751.793 288.176C750.975 288.176 750.261 287.989 749.651 287.614C749.041 287.239 748.568 286.714 748.231 286.04C747.894 285.366 747.725 284.578 747.725 283.676C747.725 282.771 747.894 281.979 748.231 281.301C748.568 280.623 749.041 280.097 749.651 279.722C750.261 279.347 750.975 279.159 751.793 279.159C752.611 279.159 753.325 279.347 753.935 279.722C754.545 280.097 755.019 280.623 755.356 281.301C755.693 281.979 755.861 282.771 755.861 283.676C755.861 284.578 755.693 285.366 755.356 286.04C755.019 286.714 754.545 287.239 753.935 287.614C753.325 287.989 752.611 288.176 751.793 288.176ZM751.799 286.75C752.329 286.75 752.769 286.61 753.117 286.33C753.466 286.049 753.723 285.676 753.89 285.21C754.06 284.744 754.145 284.231 754.145 283.67C754.145 283.114 754.06 282.602 753.89 282.136C753.723 281.667 753.466 281.29 753.117 281.006C752.769 280.722 752.329 280.58 751.799 280.58C751.265 280.58 750.822 280.722 750.469 281.006C750.121 281.29 749.861 281.667 749.691 282.136C749.524 282.602 749.441 283.114 749.441 283.67C749.441 284.231 749.524 284.744 749.691 285.21C749.861 285.676 750.121 286.049 750.469 286.33C750.822 286.61 751.265 286.75 751.799 286.75ZM764.158 288V279.273H765.788V280.693H765.896C766.078 280.212 766.375 279.837 766.788 279.568C767.201 279.295 767.696 279.159 768.271 279.159C768.855 279.159 769.343 279.295 769.737 279.568C770.135 279.841 770.429 280.216 770.618 280.693H770.709C770.917 280.227 771.249 279.856 771.703 279.58C772.158 279.299 772.699 279.159 773.328 279.159C774.12 279.159 774.766 279.407 775.266 279.903C775.769 280.4 776.021 281.148 776.021 282.148V288H774.322V282.307C774.322 281.716 774.161 281.288 773.839 281.023C773.518 280.758 773.133 280.625 772.686 280.625C772.133 280.625 771.703 280.795 771.396 281.136C771.089 281.473 770.936 281.907 770.936 282.438V288H769.243V282.199C769.243 281.725 769.095 281.345 768.8 281.057C768.504 280.769 768.12 280.625 767.646 280.625C767.324 280.625 767.027 280.71 766.754 280.881C766.485 281.047 766.268 281.28 766.101 281.58C765.938 281.879 765.857 282.225 765.857 282.619V288H764.158ZM788.46 288.176C787.6 288.176 786.859 287.992 786.238 287.625C785.621 287.254 785.143 286.733 784.806 286.062C784.473 285.388 784.306 284.598 784.306 283.693C784.306 282.799 784.473 282.011 784.806 281.33C785.143 280.648 785.613 280.116 786.215 279.733C786.821 279.35 787.53 279.159 788.34 279.159C788.833 279.159 789.31 279.241 789.772 279.403C790.234 279.566 790.649 279.822 791.017 280.17C791.384 280.519 791.674 280.972 791.886 281.528C792.098 282.081 792.204 282.754 792.204 283.545V284.148H785.267V282.875H790.539C790.539 282.428 790.448 282.032 790.267 281.688C790.085 281.339 789.829 281.064 789.499 280.864C789.174 280.663 788.791 280.562 788.352 280.562C787.874 280.562 787.458 280.68 787.102 280.915C786.749 281.146 786.477 281.449 786.284 281.824C786.094 282.195 785.999 282.598 785.999 283.034V284.028C785.999 284.612 786.102 285.108 786.306 285.517C786.515 285.926 786.804 286.239 787.176 286.455C787.547 286.667 787.981 286.773 788.477 286.773C788.799 286.773 789.092 286.727 789.357 286.636C789.623 286.542 789.852 286.402 790.045 286.216C790.238 286.03 790.386 285.801 790.488 285.528L792.096 285.818C791.967 286.292 791.736 286.706 791.403 287.062C791.073 287.415 790.659 287.689 790.159 287.886C789.662 288.08 789.096 288.176 788.46 288.176ZM802.188 282.818V288H800.489V279.273H802.12V280.693H802.228C802.428 280.231 802.743 279.86 803.171 279.58C803.603 279.299 804.146 279.159 804.801 279.159C805.396 279.159 805.917 279.284 806.364 279.534C806.811 279.78 807.157 280.148 807.404 280.636C807.65 281.125 807.773 281.729 807.773 282.449V288H806.074V282.653C806.074 282.021 805.909 281.527 805.58 281.17C805.25 280.811 804.798 280.631 804.222 280.631C803.828 280.631 803.478 280.716 803.171 280.886C802.868 281.057 802.627 281.307 802.449 281.636C802.275 281.962 802.188 282.356 802.188 282.818ZM820.525 279.273V280.636H815.758V279.273H820.525ZM817.037 277.182H818.736V285.438C818.736 285.767 818.785 286.015 818.883 286.182C818.982 286.345 819.109 286.456 819.264 286.517C819.423 286.574 819.595 286.602 819.781 286.602C819.917 286.602 820.037 286.593 820.139 286.574C820.241 286.555 820.321 286.54 820.378 286.528L820.684 287.932C820.586 287.97 820.446 288.008 820.264 288.045C820.082 288.087 819.855 288.11 819.582 288.114C819.135 288.121 818.718 288.042 818.332 287.875C817.946 287.708 817.633 287.451 817.395 287.102C817.156 286.754 817.037 286.316 817.037 285.79V277.182Z" fill="#E0E0E0"/>
<g filter="url(#filter2_f_76_4994)">
<path d="M129.943 223.045V212.989L159.568 166.182H167.955V180.5H162.841L142.898 212.102V212.648H184.25V223.045H129.943ZM163.25 236V219.977L163.386 215.477V166.182H175.318V236H163.25ZM259.349 237.33C253.735 237.33 248.917 235.909 244.894 233.068C240.894 230.205 237.815 226.08 235.656 220.693C233.519 215.284 232.451 208.773 232.451 201.159C232.474 193.545 233.553 187.068 235.69 181.727C237.849 176.364 240.928 172.273 244.928 169.455C248.951 166.636 253.758 165.227 259.349 165.227C264.94 165.227 269.747 166.636 273.769 169.455C277.792 172.273 280.872 176.364 283.008 181.727C285.167 187.091 286.247 193.568 286.247 201.159C286.247 208.795 285.167 215.318 283.008 220.727C280.872 226.114 277.792 230.227 273.769 233.068C269.769 235.909 264.963 237.33 259.349 237.33ZM259.349 226.659C263.713 226.659 267.156 224.511 269.678 220.216C272.224 215.898 273.497 209.545 273.497 201.159C273.497 195.614 272.917 190.955 271.758 187.182C270.599 183.409 268.963 180.568 266.849 178.659C264.735 176.727 262.235 175.761 259.349 175.761C255.008 175.761 251.576 177.92 249.053 182.239C246.531 186.534 245.258 192.841 245.235 201.159C245.213 206.727 245.769 211.409 246.906 215.205C248.065 219 249.701 221.864 251.815 223.795C253.928 225.705 256.44 226.659 259.349 226.659ZM334.712 223.045V212.989L364.337 166.182H372.723V180.5H367.61L347.666 212.102V212.648H389.019V223.045H334.712ZM368.019 236V219.977L368.155 215.477V166.182H380.087V236H368.019ZM501.205 236V166.182H546.614V176.784H513.853V195.739H544.262V206.341H513.853V225.398H546.887V236H501.205ZM597.918 236V166.182H624.099C629.463 166.182 633.963 167.114 637.599 168.977C641.259 170.841 644.02 173.455 645.884 176.818C647.77 180.159 648.713 184.057 648.713 188.511C648.713 192.989 647.759 196.875 645.849 200.17C643.963 203.443 641.179 205.977 637.497 207.773C633.815 209.545 629.293 210.432 623.929 210.432H605.281V199.932H622.224C625.361 199.932 627.929 199.5 629.929 198.636C631.929 197.75 633.406 196.466 634.361 194.784C635.338 193.08 635.827 190.989 635.827 188.511C635.827 186.034 635.338 183.92 634.361 182.17C633.384 180.398 631.895 179.057 629.895 178.148C627.895 177.216 625.315 176.75 622.156 176.75H610.565V236H597.918ZM633.986 204.364L651.27 236H637.156L620.179 204.364H633.986ZM698.755 236V166.182H724.937C730.301 166.182 734.801 167.114 738.437 168.977C742.096 170.841 744.857 173.455 746.721 176.818C748.607 180.159 749.551 184.057 749.551 188.511C749.551 192.989 748.596 196.875 746.687 200.17C744.801 203.443 742.017 205.977 738.335 207.773C734.653 209.545 730.13 210.432 724.767 210.432H706.119V199.932H723.062C726.198 199.932 728.767 199.5 730.767 198.636C732.767 197.75 734.244 196.466 735.198 194.784C736.176 193.08 736.664 190.989 736.664 188.511C736.664 186.034 736.176 183.92 735.198 182.17C734.221 180.398 732.732 179.057 730.732 178.148C728.732 177.216 726.153 176.75 722.994 176.75H711.403V236H698.755ZM734.823 204.364L752.107 236H737.994L721.017 204.364H734.823ZM861.979 201.091C861.979 208.614 860.57 215.057 857.752 220.42C854.956 225.761 851.138 229.852 846.297 232.693C841.479 235.534 836.013 236.955 829.899 236.955C823.786 236.955 818.309 235.534 813.468 232.693C808.649 229.83 804.831 225.727 802.013 220.386C799.218 215.023 797.82 208.591 797.82 201.091C797.82 193.568 799.218 187.136 802.013 181.795C804.831 176.432 808.649 172.33 813.468 169.489C818.309 166.648 823.786 165.227 829.899 165.227C836.013 165.227 841.479 166.648 846.297 169.489C851.138 172.33 854.956 176.432 857.752 181.795C860.57 187.136 861.979 193.568 861.979 201.091ZM849.263 201.091C849.263 195.795 848.434 191.33 846.774 187.693C845.138 184.034 842.865 181.273 839.956 179.409C837.047 177.523 833.695 176.58 829.899 176.58C826.104 176.58 822.752 177.523 819.843 179.409C816.934 181.273 814.649 184.034 812.99 187.693C811.354 191.33 810.536 195.795 810.536 201.091C810.536 206.386 811.354 210.864 812.99 214.523C814.649 218.159 816.934 220.92 819.843 222.807C822.752 224.67 826.104 225.602 829.899 225.602C833.695 225.602 837.047 224.67 839.956 222.807C842.865 220.92 845.138 218.159 846.774 214.523C848.434 210.864 849.263 206.386 849.263 201.091ZM912.336 236V166.182H938.518C943.882 166.182 948.382 167.114 952.018 168.977C955.677 170.841 958.439 173.455 960.302 176.818C962.189 180.159 963.132 184.057 963.132 188.511C963.132 192.989 962.177 196.875 960.268 200.17C958.382 203.443 955.598 205.977 951.916 207.773C948.234 209.545 943.711 210.432 938.348 210.432H919.7V199.932H936.643C939.78 199.932 942.348 199.5 944.348 198.636C946.348 197.75 947.825 196.466 948.78 194.784C949.757 193.08 950.245 190.989 950.245 188.511C950.245 186.034 949.757 183.92 948.78 182.17C947.802 180.398 946.314 179.057 944.314 178.148C942.314 177.216 939.734 176.75 936.575 176.75H924.984V236H912.336ZM948.405 204.364L965.689 236H951.575L934.598 204.364H948.405Z" fill="#28ECD4"/>
</g>
<path d="M129.943 223.045V212.989L159.568 166.182H167.955V180.5H162.841L142.898 212.102V212.648H184.25V223.045H129.943ZM163.25 236V219.977L163.386 215.477V166.182H175.318V236H163.25ZM259.349 237.33C253.735 237.33 248.917 235.909 244.894 233.068C240.894 230.205 237.815 226.08 235.656 220.693C233.519 215.284 232.451 208.773 232.451 201.159C232.474 193.545 233.553 187.068 235.69 181.727C237.849 176.364 240.928 172.273 244.928 169.455C248.951 166.636 253.758 165.227 259.349 165.227C264.94 165.227 269.747 166.636 273.769 169.455C277.792 172.273 280.872 176.364 283.008 181.727C285.167 187.091 286.247 193.568 286.247 201.159C286.247 208.795 285.167 215.318 283.008 220.727C280.872 226.114 277.792 230.227 273.769 233.068C269.769 235.909 264.963 237.33 259.349 237.33ZM259.349 226.659C263.713 226.659 267.156 224.511 269.678 220.216C272.224 215.898 273.497 209.545 273.497 201.159C273.497 195.614 272.917 190.955 271.758 187.182C270.599 183.409 268.963 180.568 266.849 178.659C264.735 176.727 262.235 175.761 259.349 175.761C255.008 175.761 251.576 177.92 249.053 182.239C246.531 186.534 245.258 192.841 245.235 201.159C245.213 206.727 245.769 211.409 246.906 215.205C248.065 219 249.701 221.864 251.815 223.795C253.928 225.705 256.44 226.659 259.349 226.659ZM334.712 223.045V212.989L364.337 166.182H372.723V180.5H367.61L347.666 212.102V212.648H389.019V223.045H334.712ZM368.019 236V219.977L368.155 215.477V166.182H380.087V236H368.019ZM501.205 236V166.182H546.614V176.784H513.853V195.739H544.262V206.341H513.853V225.398H546.887V236H501.205ZM597.918 236V166.182H624.099C629.463 166.182 633.963 167.114 637.599 168.977C641.259 170.841 644.02 173.455 645.884 176.818C647.77 180.159 648.713 184.057 648.713 188.511C648.713 192.989 647.759 196.875 645.849 200.17C643.963 203.443 641.179 205.977 637.497 207.773C633.815 209.545 629.293 210.432 623.929 210.432H605.281V199.932H622.224C625.361 199.932 627.929 199.5 629.929 198.636C631.929 197.75 633.406 196.466 634.361 194.784C635.338 193.08 635.827 190.989 635.827 188.511C635.827 186.034 635.338 183.92 634.361 182.17C633.384 180.398 631.895 179.057 629.895 178.148C627.895 177.216 625.315 176.75 622.156 176.75H610.565V236H597.918ZM633.986 204.364L651.27 236H637.156L620.179 204.364H633.986ZM698.755 236V166.182H724.937C730.301 166.182 734.801 167.114 738.437 168.977C742.096 170.841 744.857 173.455 746.721 176.818C748.607 180.159 749.551 184.057 749.551 188.511C749.551 192.989 748.596 196.875 746.687 200.17C744.801 203.443 742.017 205.977 738.335 207.773C734.653 209.545 730.13 210.432 724.767 210.432H706.119V199.932H723.062C726.198 199.932 728.767 199.5 730.767 198.636C732.767 197.75 734.244 196.466 735.198 194.784C736.176 193.08 736.664 190.989 736.664 188.511C736.664 186.034 736.176 183.92 735.198 182.17C734.221 180.398 732.732 179.057 730.732 178.148C728.732 177.216 726.153 176.75 722.994 176.75H711.403V236H698.755ZM734.823 204.364L752.107 236H737.994L721.017 204.364H734.823ZM861.979 201.091C861.979 208.614 860.57 215.057 857.752 220.42C854.956 225.761 851.138 229.852 846.297 232.693C841.479 235.534 836.013 236.955 829.899 236.955C823.786 236.955 818.309 235.534 813.468 232.693C808.649 229.83 804.831 225.727 802.013 220.386C799.218 215.023 797.82 208.591 797.82 201.091C797.82 193.568 799.218 187.136 802.013 181.795C804.831 176.432 808.649 172.33 813.468 169.489C818.309 166.648 823.786 165.227 829.899 165.227C836.013 165.227 841.479 166.648 846.297 169.489C851.138 172.33 854.956 176.432 857.752 181.795C860.57 187.136 861.979 193.568 861.979 201.091ZM849.263 201.091C849.263 195.795 848.434 191.33 846.774 187.693C845.138 184.034 842.865 181.273 839.956 179.409C837.047 177.523 833.695 176.58 829.899 176.58C826.104 176.58 822.752 177.523 819.843 179.409C816.934 181.273 814.649 184.034 812.99 187.693C811.354 191.33 810.536 195.795 810.536 201.091C810.536 206.386 811.354 210.864 812.99 214.523C814.649 218.159 816.934 220.92 819.843 222.807C822.752 224.67 826.104 225.602 829.899 225.602C833.695 225.602 837.047 224.67 839.956 222.807C842.865 220.92 845.138 218.159 846.774 214.523C848.434 210.864 849.263 206.386 849.263 201.091ZM912.336 236V166.182H938.518C943.882 166.182 948.382 167.114 952.018 168.977C955.677 170.841 958.439 173.455 960.302 176.818C962.189 180.159 963.132 184.057 963.132 188.511C963.132 192.989 962.177 196.875 960.268 200.17C958.382 203.443 955.598 205.977 951.916 207.773C948.234 209.545 943.711 210.432 938.348 210.432H919.7V199.932H936.643C939.78 199.932 942.348 199.5 944.348 198.636C946.348 197.75 947.825 196.466 948.78 194.784C949.757 193.08 950.245 190.989 950.245 188.511C950.245 186.034 949.757 183.92 948.78 182.17C947.802 180.398 946.314 179.057 944.314 178.148C942.314 177.216 939.734 176.75 936.575 176.75H924.984V236H912.336ZM948.405 204.364L965.689 236H951.575L934.598 204.364H948.405Z" fill="#28ECD4"/>
<defs>
<filter id="filter0_f_76_4994" x="4.7373" y="0" width="1045.21" height="583" filterUnits="userSpaceOnUse" color-interpolation-filters="sRGB">
<feFlood flood-opacity="0" result="BackgroundImageFix"/>
<feBlend mode="normal" in="SourceGraphic" in2="BackgroundImageFix" result="shape"/>
<feGaussianBlur stdDeviation="5" result="effect1_foregroundBlur_76_4994"/>
</filter>
<filter id="filter1_f_76_4994" x="124.278" y="271.897" width="700.406" height="23.375" filterUnits="userSpaceOnUse" color-interpolation-filters="sRGB">
<feFlood flood-opacity="0" result="BackgroundImageFix"/>
<feBlend mode="normal" in="SourceGraphic" in2="BackgroundImageFix" result="shape"/>
<feGaussianBlur stdDeviation="2" result="effect1_foregroundBlur_76_4994"/>
</filter>
<filter id="filter2_f_76_4994" x="125.943" y="161.228" width="843.746" height="80.1016" filterUnits="userSpaceOnUse" color-interpolation-filters="sRGB">
<feFlood flood-opacity="0" result="BackgroundImageFix"/>
<feBlend mode="normal" in="SourceGraphic" in2="BackgroundImageFix" result="shape"/>
<feGaussianBlur stdDeviation="2" result="effect1_foregroundBlur_76_4994"/>
</filter>
</defs>
</svg>
