<svg width="1050" height="583" viewBox="0 0 1050 583" fill="none" xmlns="http://www.w3.org/2000/svg">
<g filter="url(#filter0_f_76_5010)">
<path d="M16.7372 89.1547L110 35.3094L203.263 89.1547V196.845L110 250.691L16.7372 196.845V89.1547Z" stroke="#6D6D6D" stroke-width="4"/>
<path d="M656.737 409.155L750 355.309L843.263 409.155V516.845L750 570.691L656.737 516.845V409.155Z" stroke="#6D6D6D" stroke-width="4"/>
<path d="M912.048 266.655L975 230.309L1037.95 266.655V339.345L975 375.691L912.048 339.345V266.655Z" stroke="#6D6D6D" stroke-width="4"/>
<path d="M303.048 223.655L366 187.309L428.952 223.655V296.345L366 332.691L303.048 296.345V223.655Z" stroke="#6D6D6D" stroke-width="4"/>
<path d="M183.699 423.155L225 399.309L266.301 423.155V470.845L225 494.691L183.699 470.845V423.155Z" stroke="#6D6D6D" stroke-width="4"/>
<path d="M808.699 129.155L850 105.309L891.301 129.155V176.845L850 200.691L808.699 176.845V129.155Z" stroke="#6D6D6D" stroke-width="4"/>
<path d="M630.349 23.6547L650 12.3094L669.651 23.6547V46.3453L650 57.6906L630.349 46.3453V23.6547Z" stroke="#6D6D6D" stroke-width="4"/>
<path d="M519.349 348.655L539 337.309L558.651 348.655V371.345L539 382.691L519.349 371.345V348.655Z" stroke="#6D6D6D" stroke-width="4"/>
<path d="M469.349 98.6547L489 87.3094L508.651 98.6547V121.345L489 132.691L469.349 121.345V98.6547Z" stroke="#6D6D6D" stroke-width="4"/>
</g>
<g filter="url(#filter1_f_76_5010)">
<path d="M127.705 277.875V276.364H136.71V277.875H133.08V288H131.33V277.875H127.705ZM146.663 282.818V288H144.964V276.364H146.64V280.693H146.748C146.953 280.223 147.265 279.85 147.686 279.574C148.106 279.297 148.655 279.159 149.333 279.159C149.932 279.159 150.454 279.282 150.901 279.528C151.352 279.775 151.701 280.142 151.947 280.631C152.197 281.116 152.322 281.722 152.322 282.449V288H150.623V282.653C150.623 282.013 150.458 281.517 150.129 281.165C149.799 280.809 149.341 280.631 148.754 280.631C148.352 280.631 147.992 280.716 147.674 280.886C147.36 281.057 147.112 281.307 146.93 281.636C146.752 281.962 146.663 282.356 146.663 282.818ZM160.989 288V279.273H162.688V288H160.989ZM161.847 277.926C161.551 277.926 161.298 277.828 161.086 277.631C160.877 277.43 160.773 277.191 160.773 276.915C160.773 276.634 160.877 276.396 161.086 276.199C161.298 275.998 161.551 275.898 161.847 275.898C162.142 275.898 162.394 275.998 162.603 276.199C162.815 276.396 162.921 276.634 162.921 276.915C162.921 277.191 162.815 277.43 162.603 277.631C162.394 277.828 162.142 277.926 161.847 277.926ZM177.913 281.403L176.373 281.676C176.309 281.479 176.207 281.292 176.066 281.114C175.93 280.936 175.745 280.79 175.51 280.676C175.275 280.562 174.981 280.506 174.629 280.506C174.148 280.506 173.746 280.614 173.424 280.83C173.102 281.042 172.941 281.316 172.941 281.653C172.941 281.945 173.049 282.18 173.265 282.358C173.481 282.536 173.83 282.682 174.311 282.795L175.697 283.114C176.5 283.299 177.099 283.585 177.493 283.972C177.887 284.358 178.084 284.86 178.084 285.477C178.084 286 177.932 286.466 177.629 286.875C177.33 287.28 176.911 287.598 176.373 287.83C175.839 288.061 175.22 288.176 174.515 288.176C173.538 288.176 172.741 287.968 172.123 287.551C171.506 287.131 171.127 286.534 170.987 285.761L172.629 285.511C172.731 285.939 172.941 286.263 173.26 286.483C173.578 286.699 173.993 286.807 174.504 286.807C175.061 286.807 175.506 286.691 175.839 286.46C176.173 286.225 176.339 285.939 176.339 285.602C176.339 285.33 176.237 285.1 176.032 284.915C175.832 284.729 175.523 284.589 175.106 284.494L173.629 284.17C172.815 283.985 172.212 283.689 171.822 283.284C171.436 282.879 171.243 282.366 171.243 281.744C171.243 281.229 171.387 280.778 171.674 280.392C171.962 280.006 172.36 279.705 172.868 279.489C173.375 279.269 173.957 279.159 174.612 279.159C175.555 279.159 176.298 279.364 176.839 279.773C177.381 280.178 177.739 280.722 177.913 281.403ZM203.526 281.403L201.986 281.676C201.921 281.479 201.819 281.292 201.679 281.114C201.543 280.936 201.357 280.79 201.122 280.676C200.887 280.562 200.594 280.506 200.241 280.506C199.76 280.506 199.359 280.614 199.037 280.83C198.715 281.042 198.554 281.316 198.554 281.653C198.554 281.945 198.662 282.18 198.878 282.358C199.094 282.536 199.442 282.682 199.923 282.795L201.31 283.114C202.113 283.299 202.711 283.585 203.105 283.972C203.499 284.358 203.696 284.86 203.696 285.477C203.696 286 203.545 286.466 203.241 286.875C202.942 287.28 202.524 287.598 201.986 287.83C201.452 288.061 200.832 288.176 200.128 288.176C199.151 288.176 198.353 287.968 197.736 287.551C197.118 287.131 196.74 286.534 196.599 285.761L198.241 285.511C198.344 285.939 198.554 286.263 198.872 286.483C199.19 286.699 199.605 286.807 200.116 286.807C200.673 286.807 201.118 286.691 201.452 286.46C201.785 286.225 201.952 285.939 201.952 285.602C201.952 285.33 201.849 285.1 201.645 284.915C201.444 284.729 201.135 284.589 200.719 284.494L199.241 284.17C198.427 283.985 197.825 283.689 197.435 283.284C197.048 282.879 196.855 282.366 196.855 281.744C196.855 281.229 196.999 280.778 197.287 280.392C197.575 280.006 197.973 279.705 198.48 279.489C198.988 279.269 199.569 279.159 200.224 279.159C201.168 279.159 201.91 279.364 202.452 279.773C202.993 280.178 203.351 280.722 203.526 281.403ZM215.725 288.176C214.865 288.176 214.125 287.992 213.504 287.625C212.886 287.254 212.409 286.733 212.072 286.062C211.739 285.388 211.572 284.598 211.572 283.693C211.572 282.799 211.739 282.011 212.072 281.33C212.409 280.648 212.879 280.116 213.481 279.733C214.087 279.35 214.795 279.159 215.606 279.159C216.098 279.159 216.576 279.241 217.038 279.403C217.5 279.566 217.915 279.822 218.282 280.17C218.65 280.519 218.939 280.972 219.151 281.528C219.364 282.081 219.47 282.754 219.47 283.545V284.148H212.532V282.875H217.805C217.805 282.428 217.714 282.032 217.532 281.688C217.35 281.339 217.095 281.064 216.765 280.864C216.439 280.663 216.057 280.562 215.617 280.562C215.14 280.562 214.723 280.68 214.367 280.915C214.015 281.146 213.742 281.449 213.549 281.824C213.36 282.195 213.265 282.598 213.265 283.034V284.028C213.265 284.612 213.367 285.108 213.572 285.517C213.78 285.926 214.07 286.239 214.441 286.455C214.812 286.667 215.246 286.773 215.742 286.773C216.064 286.773 216.358 286.727 216.623 286.636C216.888 286.542 217.117 286.402 217.311 286.216C217.504 286.03 217.651 285.801 217.754 285.528L219.362 285.818C219.233 286.292 219.002 286.706 218.668 287.062C218.339 287.415 217.924 287.689 217.424 287.886C216.928 288.08 216.362 288.176 215.725 288.176ZM227.755 288V279.273H229.397V280.659H229.488C229.647 280.189 229.927 279.82 230.328 279.551C230.734 279.278 231.192 279.142 231.703 279.142C231.809 279.142 231.934 279.146 232.078 279.153C232.226 279.161 232.342 279.17 232.425 279.182V280.807C232.357 280.788 232.236 280.767 232.061 280.744C231.887 280.718 231.713 280.705 231.539 280.705C231.137 280.705 230.779 280.79 230.465 280.96C230.154 281.127 229.908 281.36 229.726 281.659C229.544 281.955 229.453 282.292 229.453 282.67V288H227.755ZM248.027 279.273L244.862 288H243.044L239.873 279.273H241.697L243.907 285.989H243.998L246.203 279.273H248.027ZM259.488 288.176C258.628 288.176 257.887 287.992 257.266 287.625C256.649 287.254 256.171 286.733 255.834 286.062C255.501 285.388 255.334 284.598 255.334 283.693C255.334 282.799 255.501 282.011 255.834 281.33C256.171 280.648 256.641 280.116 257.243 279.733C257.85 279.35 258.558 279.159 259.368 279.159C259.861 279.159 260.338 279.241 260.8 279.403C261.262 279.566 261.677 279.822 262.045 280.17C262.412 280.519 262.702 280.972 262.914 281.528C263.126 282.081 263.232 282.754 263.232 283.545V284.148H256.295V282.875H261.567C261.567 282.428 261.476 282.032 261.295 281.688C261.113 281.339 260.857 281.064 260.528 280.864C260.202 280.663 259.819 280.562 259.38 280.562C258.903 280.562 258.486 280.68 258.13 280.915C257.778 281.146 257.505 281.449 257.312 281.824C257.122 282.195 257.028 282.598 257.028 283.034V284.028C257.028 284.612 257.13 285.108 257.334 285.517C257.543 285.926 257.832 286.239 258.204 286.455C258.575 286.667 259.009 286.773 259.505 286.773C259.827 286.773 260.12 286.727 260.386 286.636C260.651 286.542 260.88 286.402 261.073 286.216C261.266 286.03 261.414 285.801 261.516 285.528L263.124 285.818C262.995 286.292 262.764 286.706 262.431 287.062C262.101 287.415 261.687 287.689 261.187 287.886C260.69 288.08 260.124 288.176 259.488 288.176ZM271.517 288V279.273H273.159V280.659H273.25C273.409 280.189 273.689 279.82 274.091 279.551C274.496 279.278 274.955 279.142 275.466 279.142C275.572 279.142 275.697 279.146 275.841 279.153C275.989 279.161 276.104 279.17 276.188 279.182V280.807C276.119 280.788 275.998 280.767 275.824 280.744C275.65 280.718 275.475 280.705 275.301 280.705C274.9 280.705 274.542 280.79 274.227 280.96C273.917 281.127 273.67 281.36 273.489 281.659C273.307 281.955 273.216 282.292 273.216 282.67V288H271.517ZM296.391 282.818V288H294.692V276.364H296.368V280.693H296.476C296.681 280.223 296.993 279.85 297.414 279.574C297.834 279.297 298.383 279.159 299.061 279.159C299.66 279.159 300.183 279.282 300.63 279.528C301.08 279.775 301.429 280.142 301.675 280.631C301.925 281.116 302.05 281.722 302.05 282.449V288H300.351V282.653C300.351 282.013 300.186 281.517 299.857 281.165C299.527 280.809 299.069 280.631 298.482 280.631C298.08 280.631 297.72 280.716 297.402 280.886C297.088 281.057 296.84 281.307 296.658 281.636C296.48 281.962 296.391 282.356 296.391 282.818ZM313.257 288.193C312.704 288.193 312.204 288.091 311.757 287.886C311.31 287.678 310.956 287.377 310.694 286.983C310.437 286.589 310.308 286.106 310.308 285.534C310.308 285.042 310.403 284.636 310.592 284.318C310.781 284 311.037 283.748 311.359 283.562C311.681 283.377 312.041 283.237 312.439 283.142C312.836 283.047 313.242 282.975 313.655 282.926C314.177 282.866 314.602 282.816 314.927 282.778C315.253 282.737 315.49 282.67 315.637 282.58C315.785 282.489 315.859 282.341 315.859 282.136V282.097C315.859 281.6 315.719 281.216 315.439 280.943C315.162 280.67 314.749 280.534 314.2 280.534C313.628 280.534 313.177 280.661 312.848 280.915C312.522 281.165 312.297 281.443 312.172 281.75L310.575 281.386C310.764 280.856 311.041 280.428 311.405 280.102C311.772 279.773 312.194 279.534 312.672 279.386C313.149 279.235 313.651 279.159 314.177 279.159C314.526 279.159 314.895 279.201 315.285 279.284C315.679 279.364 316.047 279.511 316.387 279.727C316.732 279.943 317.014 280.252 317.234 280.653C317.454 281.051 317.564 281.568 317.564 282.205V288H315.905V286.807H315.836C315.727 287.027 315.562 287.242 315.342 287.455C315.122 287.667 314.84 287.843 314.495 287.983C314.151 288.123 313.738 288.193 313.257 288.193ZM313.626 286.83C314.096 286.83 314.497 286.737 314.831 286.551C315.168 286.366 315.423 286.123 315.598 285.824C315.776 285.521 315.865 285.197 315.865 284.852V283.727C315.804 283.788 315.687 283.845 315.512 283.898C315.342 283.947 315.147 283.991 314.927 284.028C314.708 284.062 314.494 284.095 314.285 284.125C314.077 284.152 313.903 284.174 313.762 284.193C313.433 284.235 313.132 284.305 312.859 284.403C312.59 284.502 312.374 284.644 312.211 284.83C312.052 285.011 311.973 285.254 311.973 285.557C311.973 285.977 312.128 286.295 312.439 286.511C312.749 286.723 313.145 286.83 313.626 286.83ZM332.766 281.403L331.226 281.676C331.162 281.479 331.06 281.292 330.92 281.114C330.783 280.936 330.598 280.79 330.363 280.676C330.128 280.562 329.834 280.506 329.482 280.506C329.001 280.506 328.6 280.614 328.278 280.83C327.956 281.042 327.795 281.316 327.795 281.653C327.795 281.945 327.903 282.18 328.118 282.358C328.334 282.536 328.683 282.682 329.164 282.795L330.55 283.114C331.353 283.299 331.952 283.585 332.346 283.972C332.74 284.358 332.937 284.86 332.937 285.477C332.937 286 332.785 286.466 332.482 286.875C332.183 287.28 331.764 287.598 331.226 287.83C330.692 288.061 330.073 288.176 329.368 288.176C328.391 288.176 327.594 287.968 326.976 287.551C326.359 287.131 325.98 286.534 325.84 285.761L327.482 285.511C327.584 285.939 327.795 286.263 328.113 286.483C328.431 286.699 328.846 286.807 329.357 286.807C329.914 286.807 330.359 286.691 330.692 286.46C331.026 286.225 331.192 285.939 331.192 285.602C331.192 285.33 331.09 285.1 330.886 284.915C330.685 284.729 330.376 284.589 329.959 284.494L328.482 284.17C327.668 283.985 327.065 283.689 326.675 283.284C326.289 282.879 326.096 282.366 326.096 281.744C326.096 281.229 326.24 280.778 326.528 280.392C326.815 280.006 327.213 279.705 327.721 279.489C328.228 279.269 328.81 279.159 329.465 279.159C330.408 279.159 331.151 279.364 331.692 279.773C332.234 280.178 332.592 280.722 332.766 281.403ZM355.6 288.176C354.74 288.176 354 287.992 353.379 287.625C352.761 287.254 352.284 286.733 351.947 286.062C351.614 285.388 351.447 284.598 351.447 283.693C351.447 282.799 351.614 282.011 351.947 281.33C352.284 280.648 352.754 280.116 353.356 279.733C353.962 279.35 354.67 279.159 355.481 279.159C355.973 279.159 356.451 279.241 356.913 279.403C357.375 279.566 357.79 279.822 358.157 280.17C358.525 280.519 358.814 280.972 359.026 281.528C359.239 282.081 359.345 282.754 359.345 283.545V284.148H352.407V282.875H357.68C357.68 282.428 357.589 282.032 357.407 281.688C357.225 281.339 356.97 281.064 356.64 280.864C356.314 280.663 355.932 280.562 355.492 280.562C355.015 280.562 354.598 280.68 354.242 280.915C353.89 281.146 353.617 281.449 353.424 281.824C353.235 282.195 353.14 282.598 353.14 283.034V284.028C353.14 284.612 353.242 285.108 353.447 285.517C353.655 285.926 353.945 286.239 354.316 286.455C354.687 286.667 355.121 286.773 355.617 286.773C355.939 286.773 356.233 286.727 356.498 286.636C356.763 286.542 356.992 286.402 357.186 286.216C357.379 286.03 357.526 285.801 357.629 285.528L359.237 285.818C359.108 286.292 358.877 286.706 358.543 287.062C358.214 287.415 357.799 287.689 357.299 287.886C356.803 288.08 356.237 288.176 355.6 288.176ZM369.328 282.818V288H367.63V279.273H369.26V280.693H369.368C369.569 280.231 369.883 279.86 370.311 279.58C370.743 279.299 371.287 279.159 371.942 279.159C372.537 279.159 373.058 279.284 373.505 279.534C373.952 279.78 374.298 280.148 374.544 280.636C374.791 281.125 374.914 281.729 374.914 282.449V288H373.215V282.653C373.215 282.021 373.05 281.527 372.72 281.17C372.391 280.811 371.938 280.631 371.363 280.631C370.969 280.631 370.618 280.716 370.311 280.886C370.008 281.057 369.768 281.307 369.59 281.636C369.416 281.962 369.328 282.356 369.328 282.818ZM387.268 288.176C386.423 288.176 385.696 287.985 385.086 287.602C384.48 287.216 384.014 286.684 383.689 286.006C383.363 285.328 383.2 284.551 383.2 283.676C383.2 282.79 383.367 282.008 383.7 281.33C384.033 280.648 384.503 280.116 385.109 279.733C385.715 279.35 386.429 279.159 387.251 279.159C387.914 279.159 388.505 279.282 389.024 279.528C389.543 279.771 389.961 280.112 390.28 280.551C390.602 280.991 390.793 281.504 390.853 282.091H389.2C389.109 281.682 388.901 281.33 388.575 281.034C388.253 280.739 387.821 280.591 387.28 280.591C386.806 280.591 386.391 280.716 386.035 280.966C385.683 281.212 385.408 281.564 385.211 282.023C385.014 282.477 384.916 283.015 384.916 283.636C384.916 284.273 385.012 284.822 385.206 285.284C385.399 285.746 385.672 286.104 386.024 286.358C386.38 286.612 386.798 286.739 387.28 286.739C387.602 286.739 387.893 286.68 388.155 286.562C388.42 286.441 388.641 286.269 388.819 286.045C389.001 285.822 389.128 285.553 389.2 285.239H390.853C390.793 285.803 390.609 286.307 390.302 286.75C389.995 287.193 389.584 287.542 389.069 287.795C388.558 288.049 387.958 288.176 387.268 288.176ZM402.746 288.176C401.928 288.176 401.214 287.989 400.604 287.614C399.994 287.239 399.521 286.714 399.184 286.04C398.847 285.366 398.678 284.578 398.678 283.676C398.678 282.771 398.847 281.979 399.184 281.301C399.521 280.623 399.994 280.097 400.604 279.722C401.214 279.347 401.928 279.159 402.746 279.159C403.564 279.159 404.279 279.347 404.888 279.722C405.498 280.097 405.972 280.623 406.309 281.301C406.646 281.979 406.814 282.771 406.814 283.676C406.814 284.578 406.646 285.366 406.309 286.04C405.972 286.714 405.498 287.239 404.888 287.614C404.279 287.989 403.564 288.176 402.746 288.176ZM402.752 286.75C403.282 286.75 403.722 286.61 404.07 286.33C404.419 286.049 404.676 285.676 404.843 285.21C405.013 284.744 405.099 284.231 405.099 283.67C405.099 283.114 405.013 282.602 404.843 282.136C404.676 281.667 404.419 281.29 404.07 281.006C403.722 280.722 403.282 280.58 402.752 280.58C402.218 280.58 401.775 280.722 401.422 281.006C401.074 281.29 400.814 281.667 400.644 282.136C400.477 282.602 400.394 283.114 400.394 283.67C400.394 284.231 400.477 284.744 400.644 285.21C400.814 285.676 401.074 286.049 401.422 286.33C401.775 286.61 402.218 286.75 402.752 286.75ZM420.639 284.381V279.273H422.344V288H420.673V286.489H420.582C420.382 286.955 420.06 287.343 419.616 287.653C419.177 287.96 418.63 288.114 417.974 288.114C417.414 288.114 416.918 287.991 416.486 287.744C416.058 287.494 415.721 287.125 415.474 286.636C415.232 286.148 415.111 285.544 415.111 284.824V279.273H416.81V284.619C416.81 285.214 416.974 285.687 417.304 286.04C417.634 286.392 418.062 286.568 418.588 286.568C418.906 286.568 419.223 286.489 419.537 286.33C419.855 286.17 420.118 285.93 420.327 285.608C420.539 285.286 420.643 284.877 420.639 284.381ZM432.725 282.818V288H431.026V279.273H432.657V280.693H432.765C432.966 280.231 433.28 279.86 433.708 279.58C434.14 279.299 434.684 279.159 435.339 279.159C435.934 279.159 436.454 279.284 436.901 279.534C437.348 279.78 437.695 280.148 437.941 280.636C438.187 281.125 438.311 281.729 438.311 282.449V288H436.612V282.653C436.612 282.021 436.447 281.527 436.117 281.17C435.788 280.811 435.335 280.631 434.759 280.631C434.365 280.631 434.015 280.716 433.708 280.886C433.405 281.057 433.165 281.307 432.987 281.636C432.812 281.962 432.725 282.356 432.725 282.818ZM451.063 279.273V280.636H446.296V279.273H451.063ZM447.574 277.182H449.273V285.438C449.273 285.767 449.322 286.015 449.421 286.182C449.519 286.345 449.646 286.456 449.801 286.517C449.96 286.574 450.133 286.602 450.318 286.602C450.455 286.602 450.574 286.593 450.676 286.574C450.779 286.555 450.858 286.54 450.915 286.528L451.222 287.932C451.123 287.97 450.983 288.008 450.801 288.045C450.62 288.087 450.392 288.11 450.12 288.114C449.673 288.121 449.256 288.042 448.87 287.875C448.483 287.708 448.171 287.451 447.932 287.102C447.693 286.754 447.574 286.316 447.574 285.79V277.182ZM463.01 288.176C462.15 288.176 461.409 287.992 460.788 287.625C460.171 287.254 459.693 286.733 459.356 286.062C459.023 285.388 458.856 284.598 458.856 283.693C458.856 282.799 459.023 282.011 459.356 281.33C459.693 280.648 460.163 280.116 460.765 279.733C461.371 279.35 462.08 279.159 462.89 279.159C463.383 279.159 463.86 279.241 464.322 279.403C464.784 279.566 465.199 279.822 465.566 280.17C465.934 280.519 466.224 280.972 466.436 281.528C466.648 282.081 466.754 282.754 466.754 283.545V284.148H459.816V282.875H465.089C465.089 282.428 464.998 282.032 464.816 281.688C464.635 281.339 464.379 281.064 464.049 280.864C463.724 280.663 463.341 280.562 462.902 280.562C462.424 280.562 462.008 280.68 461.652 280.915C461.299 281.146 461.027 281.449 460.834 281.824C460.644 282.195 460.549 282.598 460.549 283.034V284.028C460.549 284.612 460.652 285.108 460.856 285.517C461.065 285.926 461.354 286.239 461.726 286.455C462.097 286.667 462.531 286.773 463.027 286.773C463.349 286.773 463.642 286.727 463.907 286.636C464.173 286.542 464.402 286.402 464.595 286.216C464.788 286.03 464.936 285.801 465.038 285.528L466.646 285.818C466.517 286.292 466.286 286.706 465.953 287.062C465.623 287.415 465.209 287.689 464.709 287.886C464.212 288.08 463.646 288.176 463.01 288.176ZM475.039 288V279.273H476.681V280.659H476.772C476.931 280.189 477.211 279.82 477.613 279.551C478.018 279.278 478.476 279.142 478.988 279.142C479.094 279.142 479.219 279.146 479.363 279.153C479.511 279.161 479.626 279.17 479.709 279.182V280.807C479.641 280.788 479.52 280.767 479.346 280.744C479.172 280.718 478.997 280.705 478.823 280.705C478.422 280.705 478.064 280.79 477.749 280.96C477.439 281.127 477.192 281.36 477.011 281.659C476.829 281.955 476.738 282.292 476.738 282.67V288H475.039ZM491.028 288.176C490.169 288.176 489.428 287.992 488.807 287.625C488.189 287.254 487.712 286.733 487.375 286.062C487.042 285.388 486.875 284.598 486.875 283.693C486.875 282.799 487.042 282.011 487.375 281.33C487.712 280.648 488.182 280.116 488.784 279.733C489.39 279.35 490.098 279.159 490.909 279.159C491.402 279.159 491.879 279.241 492.341 279.403C492.803 279.566 493.218 279.822 493.585 280.17C493.953 280.519 494.242 280.972 494.455 281.528C494.667 282.081 494.773 282.754 494.773 283.545V284.148H487.835V282.875H493.108C493.108 282.428 493.017 282.032 492.835 281.688C492.653 281.339 492.398 281.064 492.068 280.864C491.742 280.663 491.36 280.562 490.92 280.562C490.443 280.562 490.027 280.68 489.67 280.915C489.318 281.146 489.045 281.449 488.852 281.824C488.663 282.195 488.568 282.598 488.568 283.034V284.028C488.568 284.612 488.67 285.108 488.875 285.517C489.083 285.926 489.373 286.239 489.744 286.455C490.116 286.667 490.549 286.773 491.045 286.773C491.367 286.773 491.661 286.727 491.926 286.636C492.191 286.542 492.42 286.402 492.614 286.216C492.807 286.03 492.955 285.801 493.057 285.528L494.665 285.818C494.536 286.292 494.305 286.706 493.972 287.062C493.642 287.415 493.227 287.689 492.727 287.886C492.231 288.08 491.665 288.176 491.028 288.176ZM506.325 288.17C505.62 288.17 504.991 287.991 504.438 287.631C503.889 287.267 503.457 286.75 503.143 286.08C502.832 285.405 502.677 284.597 502.677 283.653C502.677 282.71 502.834 281.903 503.149 281.233C503.467 280.562 503.902 280.049 504.455 279.693C505.008 279.337 505.635 279.159 506.336 279.159C506.878 279.159 507.313 279.25 507.643 279.432C507.976 279.61 508.234 279.818 508.416 280.057C508.601 280.295 508.745 280.506 508.847 280.688H508.95V276.364H510.649V288H508.989V286.642H508.847C508.745 286.828 508.597 287.04 508.404 287.278C508.215 287.517 507.953 287.725 507.62 287.903C507.287 288.081 506.855 288.17 506.325 288.17ZM506.7 286.722C507.188 286.722 507.601 286.593 507.938 286.335C508.279 286.074 508.537 285.712 508.711 285.25C508.889 284.788 508.978 284.25 508.978 283.636C508.978 283.03 508.891 282.5 508.717 282.045C508.543 281.591 508.287 281.237 507.95 280.983C507.613 280.729 507.196 280.602 506.7 280.602C506.188 280.602 505.762 280.735 505.421 281C505.08 281.265 504.823 281.627 504.649 282.085C504.478 282.544 504.393 283.061 504.393 283.636C504.393 284.22 504.48 284.744 504.654 285.21C504.828 285.676 505.086 286.045 505.427 286.318C505.772 286.587 506.196 286.722 506.7 286.722ZM532.647 288.193C532.094 288.193 531.594 288.091 531.147 287.886C530.7 287.678 530.346 287.377 530.085 286.983C529.827 286.589 529.699 286.106 529.699 285.534C529.699 285.042 529.793 284.636 529.983 284.318C530.172 284 530.428 283.748 530.75 283.562C531.072 283.377 531.432 283.237 531.829 283.142C532.227 283.047 532.632 282.975 533.045 282.926C533.568 282.866 533.992 282.816 534.318 282.778C534.644 282.737 534.88 282.67 535.028 282.58C535.176 282.489 535.25 282.341 535.25 282.136V282.097C535.25 281.6 535.11 281.216 534.829 280.943C534.553 280.67 534.14 280.534 533.591 280.534C533.019 280.534 532.568 280.661 532.238 280.915C531.913 281.165 531.687 281.443 531.562 281.75L529.966 281.386C530.155 280.856 530.432 280.428 530.795 280.102C531.163 279.773 531.585 279.534 532.062 279.386C532.54 279.235 533.041 279.159 533.568 279.159C533.916 279.159 534.286 279.201 534.676 279.284C535.07 279.364 535.437 279.511 535.778 279.727C536.123 279.943 536.405 280.252 536.625 280.653C536.844 281.051 536.954 281.568 536.954 282.205V288H535.295V286.807H535.227C535.117 287.027 534.952 287.242 534.733 287.455C534.513 287.667 534.231 287.843 533.886 287.983C533.541 288.123 533.129 288.193 532.647 288.193ZM533.017 286.83C533.486 286.83 533.888 286.737 534.221 286.551C534.558 286.366 534.814 286.123 534.988 285.824C535.166 285.521 535.255 285.197 535.255 284.852V283.727C535.195 283.788 535.077 283.845 534.903 283.898C534.733 283.947 534.538 283.991 534.318 284.028C534.098 284.062 533.884 284.095 533.676 284.125C533.468 284.152 533.293 284.174 533.153 284.193C532.824 284.235 532.522 284.305 532.25 284.403C531.981 284.502 531.765 284.644 531.602 284.83C531.443 285.011 531.363 285.254 531.363 285.557C531.363 285.977 531.519 286.295 531.829 286.511C532.14 286.723 532.536 286.83 533.017 286.83ZM547.316 282.818V288H545.617V279.273H547.248V280.693H547.356C547.556 280.231 547.871 279.86 548.299 279.58C548.731 279.299 549.274 279.159 549.93 279.159C550.524 279.159 551.045 279.284 551.492 279.534C551.939 279.78 552.286 280.148 552.532 280.636C552.778 281.125 552.901 281.729 552.901 282.449V288H551.202V282.653C551.202 282.021 551.038 281.527 550.708 281.17C550.378 280.811 549.926 280.631 549.35 280.631C548.956 280.631 548.606 280.716 548.299 280.886C547.996 281.057 547.755 281.307 547.577 281.636C547.403 281.962 547.316 282.356 547.316 282.818ZM572.214 288V279.273H573.913V288H572.214ZM573.072 277.926C572.776 277.926 572.523 277.828 572.311 277.631C572.102 277.43 571.998 277.191 571.998 276.915C571.998 276.634 572.102 276.396 572.311 276.199C572.523 275.998 572.776 275.898 573.072 275.898C573.367 275.898 573.619 275.998 573.828 276.199C574.04 276.396 574.146 276.634 574.146 276.915C574.146 277.191 574.04 277.43 573.828 277.631C573.619 277.828 573.367 277.926 573.072 277.926ZM584.297 282.818V288H582.598V279.273H584.229V280.693H584.337C584.538 280.231 584.852 279.86 585.28 279.58C585.712 279.299 586.255 279.159 586.911 279.159C587.505 279.159 588.026 279.284 588.473 279.534C588.92 279.78 589.267 280.148 589.513 280.636C589.759 281.125 589.882 281.729 589.882 282.449V288H588.184V282.653C588.184 282.021 588.019 281.527 587.689 281.17C587.36 280.811 586.907 280.631 586.331 280.631C585.937 280.631 585.587 280.716 585.28 280.886C584.977 281.057 584.737 281.307 584.559 281.636C584.384 281.962 584.297 282.356 584.297 282.818ZM602.635 279.273V280.636H597.868V279.273H602.635ZM599.146 277.182H600.845V285.438C600.845 285.767 600.894 286.015 600.993 286.182C601.091 286.345 601.218 286.456 601.373 286.517C601.532 286.574 601.705 286.602 601.89 286.602C602.027 286.602 602.146 286.593 602.248 286.574C602.351 286.555 602.43 286.54 602.487 286.528L602.794 287.932C602.695 287.97 602.555 288.008 602.373 288.045C602.191 288.087 601.964 288.11 601.691 288.114C601.245 288.121 600.828 288.042 600.441 287.875C600.055 287.708 599.743 287.451 599.504 287.102C599.265 286.754 599.146 286.316 599.146 285.79V277.182ZM614.582 288.176C613.722 288.176 612.981 287.992 612.36 287.625C611.743 287.254 611.265 286.733 610.928 286.062C610.595 285.388 610.428 284.598 610.428 283.693C610.428 282.799 610.595 282.011 610.928 281.33C611.265 280.648 611.735 280.116 612.337 279.733C612.943 279.35 613.652 279.159 614.462 279.159C614.955 279.159 615.432 279.241 615.894 279.403C616.356 279.566 616.771 279.822 617.138 280.17C617.506 280.519 617.796 280.972 618.008 281.528C618.22 282.081 618.326 282.754 618.326 283.545V284.148H611.388V282.875H616.661C616.661 282.428 616.57 282.032 616.388 281.688C616.207 281.339 615.951 281.064 615.621 280.864C615.296 280.663 614.913 280.562 614.474 280.562C613.996 280.562 613.58 280.68 613.224 280.915C612.871 281.146 612.599 281.449 612.405 281.824C612.216 282.195 612.121 282.598 612.121 283.034V284.028C612.121 284.612 612.224 285.108 612.428 285.517C612.636 285.926 612.926 286.239 613.297 286.455C613.669 286.667 614.102 286.773 614.599 286.773C614.921 286.773 615.214 286.727 615.479 286.636C615.744 286.542 615.974 286.402 616.167 286.216C616.36 286.03 616.508 285.801 616.61 285.528L618.218 285.818C618.089 286.292 617.858 286.706 617.525 287.062C617.195 287.415 616.78 287.689 616.28 287.886C615.784 288.08 615.218 288.176 614.582 288.176ZM626.611 288V279.273H628.253V280.659H628.344C628.503 280.189 628.783 279.82 629.185 279.551C629.59 279.278 630.048 279.142 630.56 279.142C630.666 279.142 630.791 279.146 630.935 279.153C631.082 279.161 631.198 279.17 631.281 279.182V280.807C631.213 280.788 631.092 280.767 630.918 280.744C630.743 280.718 630.569 280.705 630.395 280.705C629.993 280.705 629.635 280.79 629.321 280.96C629.01 281.127 628.764 281.36 628.582 281.659C628.401 281.955 628.31 282.292 628.31 282.67V288H626.611ZM640.85 282.818V288H639.151V279.273H640.782V280.693H640.89C641.091 280.231 641.405 279.86 641.833 279.58C642.265 279.299 642.809 279.159 643.464 279.159C644.059 279.159 644.579 279.284 645.026 279.534C645.473 279.78 645.82 280.148 646.066 280.636C646.312 281.125 646.436 281.729 646.436 282.449V288H644.737V282.653C644.737 282.021 644.572 281.527 644.242 281.17C643.913 280.811 643.46 280.631 642.884 280.631C642.49 280.631 642.14 280.716 641.833 280.886C641.53 281.057 641.29 281.307 641.112 281.636C640.937 281.962 640.85 282.356 640.85 282.818ZM657.654 288.193C657.101 288.193 656.601 288.091 656.154 287.886C655.707 287.678 655.353 287.377 655.091 286.983C654.834 286.589 654.705 286.106 654.705 285.534C654.705 285.042 654.8 284.636 654.989 284.318C655.178 284 655.434 283.748 655.756 283.562C656.078 283.377 656.438 283.237 656.835 283.142C657.233 283.047 657.639 282.975 658.051 282.926C658.574 282.866 658.998 282.816 659.324 282.778C659.65 282.737 659.887 282.67 660.034 282.58C660.182 282.489 660.256 282.341 660.256 282.136V282.097C660.256 281.6 660.116 281.216 659.835 280.943C659.559 280.67 659.146 280.534 658.597 280.534C658.025 280.534 657.574 280.661 657.245 280.915C656.919 281.165 656.693 281.443 656.568 281.75L654.972 281.386C655.161 280.856 655.438 280.428 655.801 280.102C656.169 279.773 656.591 279.534 657.068 279.386C657.546 279.235 658.048 279.159 658.574 279.159C658.923 279.159 659.292 279.201 659.682 279.284C660.076 279.364 660.443 279.511 660.784 279.727C661.129 279.943 661.411 280.252 661.631 280.653C661.851 281.051 661.96 281.568 661.96 282.205V288H660.301V286.807H660.233C660.123 287.027 659.959 287.242 659.739 287.455C659.519 287.667 659.237 287.843 658.892 287.983C658.548 288.123 658.135 288.193 657.654 288.193ZM658.023 286.83C658.493 286.83 658.894 286.737 659.228 286.551C659.565 286.366 659.82 286.123 659.995 285.824C660.173 285.521 660.262 285.197 660.262 284.852V283.727C660.201 283.788 660.084 283.845 659.909 283.898C659.739 283.947 659.544 283.991 659.324 284.028C659.104 284.062 658.89 284.095 658.682 284.125C658.474 284.152 658.3 284.174 658.159 284.193C657.83 284.235 657.529 284.305 657.256 284.403C656.987 284.502 656.771 284.644 656.608 284.83C656.449 285.011 656.37 285.254 656.37 285.557C656.37 285.977 656.525 286.295 656.835 286.511C657.146 286.723 657.542 286.83 658.023 286.83ZM672.322 276.364V288H670.623V276.364H672.322ZM695.403 288.176C694.544 288.176 693.803 287.992 693.182 287.625C692.564 287.254 692.087 286.733 691.75 286.062C691.417 285.388 691.25 284.598 691.25 283.693C691.25 282.799 691.417 282.011 691.75 281.33C692.087 280.648 692.557 280.116 693.159 279.733C693.765 279.35 694.473 279.159 695.284 279.159C695.777 279.159 696.254 279.241 696.716 279.403C697.178 279.566 697.593 279.822 697.96 280.17C698.328 280.519 698.617 280.972 698.83 281.528C699.042 282.081 699.148 282.754 699.148 283.545V284.148H692.21V282.875H697.483C697.483 282.428 697.392 282.032 697.21 281.688C697.028 281.339 696.773 281.064 696.443 280.864C696.117 280.663 695.735 280.562 695.295 280.562C694.818 280.562 694.402 280.68 694.045 280.915C693.693 281.146 693.42 281.449 693.227 281.824C693.038 282.195 692.943 282.598 692.943 283.034V284.028C692.943 284.612 693.045 285.108 693.25 285.517C693.458 285.926 693.748 286.239 694.119 286.455C694.491 286.667 694.924 286.773 695.42 286.773C695.742 286.773 696.036 286.727 696.301 286.636C696.566 286.542 696.795 286.402 696.989 286.216C697.182 286.03 697.33 285.801 697.432 285.528L699.04 285.818C698.911 286.292 698.68 286.706 698.347 287.062C698.017 287.415 697.602 287.689 697.102 287.886C696.606 288.08 696.04 288.176 695.403 288.176ZM707.433 288V279.273H709.075V280.659H709.166C709.325 280.189 709.605 279.82 710.007 279.551C710.412 279.278 710.87 279.142 711.382 279.142C711.488 279.142 711.613 279.146 711.757 279.153C711.904 279.161 712.02 279.17 712.103 279.182V280.807C712.035 280.788 711.914 280.767 711.74 280.744C711.565 280.718 711.391 280.705 711.217 280.705C710.815 280.705 710.457 280.79 710.143 280.96C709.832 281.127 709.586 281.36 709.404 281.659C709.222 281.955 709.132 282.292 709.132 282.67V288H707.433ZM719.973 288V279.273H721.615V280.659H721.706C721.865 280.189 722.146 279.82 722.547 279.551C722.952 279.278 723.411 279.142 723.922 279.142C724.028 279.142 724.153 279.146 724.297 279.153C724.445 279.161 724.56 279.17 724.644 279.182V280.807C724.576 280.788 724.454 280.767 724.28 280.744C724.106 280.718 723.932 280.705 723.757 280.705C723.356 280.705 722.998 280.79 722.684 280.96C722.373 281.127 722.127 281.36 721.945 281.659C721.763 281.955 721.672 282.292 721.672 282.67V288H719.973ZM735.878 288.176C735.059 288.176 734.345 287.989 733.736 287.614C733.126 287.239 732.652 286.714 732.315 286.04C731.978 285.366 731.809 284.578 731.809 283.676C731.809 282.771 731.978 281.979 732.315 281.301C732.652 280.623 733.126 280.097 733.736 279.722C734.345 279.347 735.059 279.159 735.878 279.159C736.696 279.159 737.41 279.347 738.02 279.722C738.629 280.097 739.103 280.623 739.44 281.301C739.777 281.979 739.946 282.771 739.946 283.676C739.946 284.578 739.777 285.366 739.44 286.04C739.103 286.714 738.629 287.239 738.02 287.614C737.41 287.989 736.696 288.176 735.878 288.176ZM735.883 286.75C736.414 286.75 736.853 286.61 737.201 286.33C737.55 286.049 737.807 285.676 737.974 285.21C738.145 284.744 738.23 284.231 738.23 283.67C738.23 283.114 738.145 282.602 737.974 282.136C737.807 281.667 737.55 281.29 737.201 281.006C736.853 280.722 736.414 280.58 735.883 280.58C735.349 280.58 734.906 280.722 734.554 281.006C734.205 281.29 733.946 281.667 733.775 282.136C733.609 282.602 733.525 283.114 733.525 283.67C733.525 284.231 733.609 284.744 733.775 285.21C733.946 285.676 734.205 286.049 734.554 286.33C734.906 286.61 735.349 286.75 735.883 286.75ZM748.242 288V279.273H749.884V280.659H749.975C750.134 280.189 750.414 279.82 750.816 279.551C751.221 279.278 751.68 279.142 752.191 279.142C752.297 279.142 752.422 279.146 752.566 279.153C752.714 279.161 752.829 279.17 752.912 279.182V280.807C752.844 280.788 752.723 280.767 752.549 280.744C752.375 280.718 752.2 280.705 752.026 280.705C751.625 280.705 751.267 280.79 750.952 280.96C750.642 281.127 750.395 281.36 750.214 281.659C750.032 281.955 749.941 282.292 749.941 282.67V288H748.242Z" fill="#28ECD4"/>
</g>
<path d="M127.705 277.875V276.364H136.71V277.875H133.08V288H131.33V277.875H127.705ZM146.663 282.818V288H144.964V276.364H146.64V280.693H146.748C146.953 280.223 147.265 279.85 147.686 279.574C148.106 279.297 148.655 279.159 149.333 279.159C149.932 279.159 150.454 279.282 150.901 279.528C151.352 279.775 151.701 280.142 151.947 280.631C152.197 281.116 152.322 281.722 152.322 282.449V288H150.623V282.653C150.623 282.013 150.458 281.517 150.129 281.165C149.799 280.809 149.341 280.631 148.754 280.631C148.352 280.631 147.992 280.716 147.674 280.886C147.36 281.057 147.112 281.307 146.93 281.636C146.752 281.962 146.663 282.356 146.663 282.818ZM160.989 288V279.273H162.688V288H160.989ZM161.847 277.926C161.551 277.926 161.298 277.828 161.086 277.631C160.877 277.43 160.773 277.191 160.773 276.915C160.773 276.634 160.877 276.396 161.086 276.199C161.298 275.998 161.551 275.898 161.847 275.898C162.142 275.898 162.394 275.998 162.603 276.199C162.815 276.396 162.921 276.634 162.921 276.915C162.921 277.191 162.815 277.43 162.603 277.631C162.394 277.828 162.142 277.926 161.847 277.926ZM177.913 281.403L176.373 281.676C176.309 281.479 176.207 281.292 176.066 281.114C175.93 280.936 175.745 280.79 175.51 280.676C175.275 280.562 174.981 280.506 174.629 280.506C174.148 280.506 173.746 280.614 173.424 280.83C173.102 281.042 172.941 281.316 172.941 281.653C172.941 281.945 173.049 282.18 173.265 282.358C173.481 282.536 173.83 282.682 174.311 282.795L175.697 283.114C176.5 283.299 177.099 283.585 177.493 283.972C177.887 284.358 178.084 284.86 178.084 285.477C178.084 286 177.932 286.466 177.629 286.875C177.33 287.28 176.911 287.598 176.373 287.83C175.839 288.061 175.22 288.176 174.515 288.176C173.538 288.176 172.741 287.968 172.123 287.551C171.506 287.131 171.127 286.534 170.987 285.761L172.629 285.511C172.731 285.939 172.941 286.263 173.26 286.483C173.578 286.699 173.993 286.807 174.504 286.807C175.061 286.807 175.506 286.691 175.839 286.46C176.173 286.225 176.339 285.939 176.339 285.602C176.339 285.33 176.237 285.1 176.032 284.915C175.832 284.729 175.523 284.589 175.106 284.494L173.629 284.17C172.815 283.985 172.212 283.689 171.822 283.284C171.436 282.879 171.243 282.366 171.243 281.744C171.243 281.229 171.387 280.778 171.674 280.392C171.962 280.006 172.36 279.705 172.868 279.489C173.375 279.269 173.957 279.159 174.612 279.159C175.555 279.159 176.298 279.364 176.839 279.773C177.381 280.178 177.739 280.722 177.913 281.403ZM203.526 281.403L201.986 281.676C201.921 281.479 201.819 281.292 201.679 281.114C201.543 280.936 201.357 280.79 201.122 280.676C200.887 280.562 200.594 280.506 200.241 280.506C199.76 280.506 199.359 280.614 199.037 280.83C198.715 281.042 198.554 281.316 198.554 281.653C198.554 281.945 198.662 282.18 198.878 282.358C199.094 282.536 199.442 282.682 199.923 282.795L201.31 283.114C202.113 283.299 202.711 283.585 203.105 283.972C203.499 284.358 203.696 284.86 203.696 285.477C203.696 286 203.545 286.466 203.241 286.875C202.942 287.28 202.524 287.598 201.986 287.83C201.452 288.061 200.832 288.176 200.128 288.176C199.151 288.176 198.353 287.968 197.736 287.551C197.118 287.131 196.74 286.534 196.599 285.761L198.241 285.511C198.344 285.939 198.554 286.263 198.872 286.483C199.19 286.699 199.605 286.807 200.116 286.807C200.673 286.807 201.118 286.691 201.452 286.46C201.785 286.225 201.952 285.939 201.952 285.602C201.952 285.33 201.849 285.1 201.645 284.915C201.444 284.729 201.135 284.589 200.719 284.494L199.241 284.17C198.427 283.985 197.825 283.689 197.435 283.284C197.048 282.879 196.855 282.366 196.855 281.744C196.855 281.229 196.999 280.778 197.287 280.392C197.575 280.006 197.973 279.705 198.48 279.489C198.988 279.269 199.569 279.159 200.224 279.159C201.168 279.159 201.91 279.364 202.452 279.773C202.993 280.178 203.351 280.722 203.526 281.403ZM215.725 288.176C214.865 288.176 214.125 287.992 213.504 287.625C212.886 287.254 212.409 286.733 212.072 286.062C211.739 285.388 211.572 284.598 211.572 283.693C211.572 282.799 211.739 282.011 212.072 281.33C212.409 280.648 212.879 280.116 213.481 279.733C214.087 279.35 214.795 279.159 215.606 279.159C216.098 279.159 216.576 279.241 217.038 279.403C217.5 279.566 217.915 279.822 218.282 280.17C218.65 280.519 218.939 280.972 219.151 281.528C219.364 282.081 219.47 282.754 219.47 283.545V284.148H212.532V282.875H217.805C217.805 282.428 217.714 282.032 217.532 281.688C217.35 281.339 217.095 281.064 216.765 280.864C216.439 280.663 216.057 280.562 215.617 280.562C215.14 280.562 214.723 280.68 214.367 280.915C214.015 281.146 213.742 281.449 213.549 281.824C213.36 282.195 213.265 282.598 213.265 283.034V284.028C213.265 284.612 213.367 285.108 213.572 285.517C213.78 285.926 214.07 286.239 214.441 286.455C214.812 286.667 215.246 286.773 215.742 286.773C216.064 286.773 216.358 286.727 216.623 286.636C216.888 286.542 217.117 286.402 217.311 286.216C217.504 286.03 217.651 285.801 217.754 285.528L219.362 285.818C219.233 286.292 219.002 286.706 218.668 287.062C218.339 287.415 217.924 287.689 217.424 287.886C216.928 288.08 216.362 288.176 215.725 288.176ZM227.755 288V279.273H229.397V280.659H229.488C229.647 280.189 229.927 279.82 230.328 279.551C230.734 279.278 231.192 279.142 231.703 279.142C231.809 279.142 231.934 279.146 232.078 279.153C232.226 279.161 232.342 279.17 232.425 279.182V280.807C232.357 280.788 232.236 280.767 232.061 280.744C231.887 280.718 231.713 280.705 231.539 280.705C231.137 280.705 230.779 280.79 230.465 280.96C230.154 281.127 229.908 281.36 229.726 281.659C229.544 281.955 229.453 282.292 229.453 282.67V288H227.755ZM248.027 279.273L244.862 288H243.044L239.873 279.273H241.697L243.907 285.989H243.998L246.203 279.273H248.027ZM259.488 288.176C258.628 288.176 257.887 287.992 257.266 287.625C256.649 287.254 256.171 286.733 255.834 286.062C255.501 285.388 255.334 284.598 255.334 283.693C255.334 282.799 255.501 282.011 255.834 281.33C256.171 280.648 256.641 280.116 257.243 279.733C257.85 279.35 258.558 279.159 259.368 279.159C259.861 279.159 260.338 279.241 260.8 279.403C261.262 279.566 261.677 279.822 262.045 280.17C262.412 280.519 262.702 280.972 262.914 281.528C263.126 282.081 263.232 282.754 263.232 283.545V284.148H256.295V282.875H261.567C261.567 282.428 261.476 282.032 261.295 281.688C261.113 281.339 260.857 281.064 260.528 280.864C260.202 280.663 259.819 280.562 259.38 280.562C258.903 280.562 258.486 280.68 258.13 280.915C257.778 281.146 257.505 281.449 257.312 281.824C257.122 282.195 257.028 282.598 257.028 283.034V284.028C257.028 284.612 257.13 285.108 257.334 285.517C257.543 285.926 257.832 286.239 258.204 286.455C258.575 286.667 259.009 286.773 259.505 286.773C259.827 286.773 260.12 286.727 260.386 286.636C260.651 286.542 260.88 286.402 261.073 286.216C261.266 286.03 261.414 285.801 261.516 285.528L263.124 285.818C262.995 286.292 262.764 286.706 262.431 287.062C262.101 287.415 261.687 287.689 261.187 287.886C260.69 288.08 260.124 288.176 259.488 288.176ZM271.517 288V279.273H273.159V280.659H273.25C273.409 280.189 273.689 279.82 274.091 279.551C274.496 279.278 274.955 279.142 275.466 279.142C275.572 279.142 275.697 279.146 275.841 279.153C275.989 279.161 276.104 279.17 276.188 279.182V280.807C276.119 280.788 275.998 280.767 275.824 280.744C275.65 280.718 275.475 280.705 275.301 280.705C274.9 280.705 274.542 280.79 274.227 280.96C273.917 281.127 273.67 281.36 273.489 281.659C273.307 281.955 273.216 282.292 273.216 282.67V288H271.517ZM296.391 282.818V288H294.692V276.364H296.368V280.693H296.476C296.681 280.223 296.993 279.85 297.414 279.574C297.834 279.297 298.383 279.159 299.061 279.159C299.66 279.159 300.183 279.282 300.63 279.528C301.08 279.775 301.429 280.142 301.675 280.631C301.925 281.116 302.05 281.722 302.05 282.449V288H300.351V282.653C300.351 282.013 300.186 281.517 299.857 281.165C299.527 280.809 299.069 280.631 298.482 280.631C298.08 280.631 297.72 280.716 297.402 280.886C297.088 281.057 296.84 281.307 296.658 281.636C296.48 281.962 296.391 282.356 296.391 282.818ZM313.257 288.193C312.704 288.193 312.204 288.091 311.757 287.886C311.31 287.678 310.956 287.377 310.694 286.983C310.437 286.589 310.308 286.106 310.308 285.534C310.308 285.042 310.403 284.636 310.592 284.318C310.781 284 311.037 283.748 311.359 283.562C311.681 283.377 312.041 283.237 312.439 283.142C312.836 283.047 313.242 282.975 313.655 282.926C314.177 282.866 314.602 282.816 314.927 282.778C315.253 282.737 315.49 282.67 315.637 282.58C315.785 282.489 315.859 282.341 315.859 282.136V282.097C315.859 281.6 315.719 281.216 315.439 280.943C315.162 280.67 314.749 280.534 314.2 280.534C313.628 280.534 313.177 280.661 312.848 280.915C312.522 281.165 312.297 281.443 312.172 281.75L310.575 281.386C310.764 280.856 311.041 280.428 311.405 280.102C311.772 279.773 312.194 279.534 312.672 279.386C313.149 279.235 313.651 279.159 314.177 279.159C314.526 279.159 314.895 279.201 315.285 279.284C315.679 279.364 316.047 279.511 316.387 279.727C316.732 279.943 317.014 280.252 317.234 280.653C317.454 281.051 317.564 281.568 317.564 282.205V288H315.905V286.807H315.836C315.727 287.027 315.562 287.242 315.342 287.455C315.122 287.667 314.84 287.843 314.495 287.983C314.151 288.123 313.738 288.193 313.257 288.193ZM313.626 286.83C314.096 286.83 314.497 286.737 314.831 286.551C315.168 286.366 315.423 286.123 315.598 285.824C315.776 285.521 315.865 285.197 315.865 284.852V283.727C315.804 283.788 315.687 283.845 315.512 283.898C315.342 283.947 315.147 283.991 314.927 284.028C314.708 284.062 314.494 284.095 314.285 284.125C314.077 284.152 313.903 284.174 313.762 284.193C313.433 284.235 313.132 284.305 312.859 284.403C312.59 284.502 312.374 284.644 312.211 284.83C312.052 285.011 311.973 285.254 311.973 285.557C311.973 285.977 312.128 286.295 312.439 286.511C312.749 286.723 313.145 286.83 313.626 286.83ZM332.766 281.403L331.226 281.676C331.162 281.479 331.06 281.292 330.92 281.114C330.783 280.936 330.598 280.79 330.363 280.676C330.128 280.562 329.834 280.506 329.482 280.506C329.001 280.506 328.6 280.614 328.278 280.83C327.956 281.042 327.795 281.316 327.795 281.653C327.795 281.945 327.903 282.18 328.118 282.358C328.334 282.536 328.683 282.682 329.164 282.795L330.55 283.114C331.353 283.299 331.952 283.585 332.346 283.972C332.74 284.358 332.937 284.86 332.937 285.477C332.937 286 332.785 286.466 332.482 286.875C332.183 287.28 331.764 287.598 331.226 287.83C330.692 288.061 330.073 288.176 329.368 288.176C328.391 288.176 327.594 287.968 326.976 287.551C326.359 287.131 325.98 286.534 325.84 285.761L327.482 285.511C327.584 285.939 327.795 286.263 328.113 286.483C328.431 286.699 328.846 286.807 329.357 286.807C329.914 286.807 330.359 286.691 330.692 286.46C331.026 286.225 331.192 285.939 331.192 285.602C331.192 285.33 331.09 285.1 330.886 284.915C330.685 284.729 330.376 284.589 329.959 284.494L328.482 284.17C327.668 283.985 327.065 283.689 326.675 283.284C326.289 282.879 326.096 282.366 326.096 281.744C326.096 281.229 326.24 280.778 326.528 280.392C326.815 280.006 327.213 279.705 327.721 279.489C328.228 279.269 328.81 279.159 329.465 279.159C330.408 279.159 331.151 279.364 331.692 279.773C332.234 280.178 332.592 280.722 332.766 281.403ZM355.6 288.176C354.74 288.176 354 287.992 353.379 287.625C352.761 287.254 352.284 286.733 351.947 286.062C351.614 285.388 351.447 284.598 351.447 283.693C351.447 282.799 351.614 282.011 351.947 281.33C352.284 280.648 352.754 280.116 353.356 279.733C353.962 279.35 354.67 279.159 355.481 279.159C355.973 279.159 356.451 279.241 356.913 279.403C357.375 279.566 357.79 279.822 358.157 280.17C358.525 280.519 358.814 280.972 359.026 281.528C359.239 282.081 359.345 282.754 359.345 283.545V284.148H352.407V282.875H357.68C357.68 282.428 357.589 282.032 357.407 281.688C357.225 281.339 356.97 281.064 356.64 280.864C356.314 280.663 355.932 280.562 355.492 280.562C355.015 280.562 354.598 280.68 354.242 280.915C353.89 281.146 353.617 281.449 353.424 281.824C353.235 282.195 353.14 282.598 353.14 283.034V284.028C353.14 284.612 353.242 285.108 353.447 285.517C353.655 285.926 353.945 286.239 354.316 286.455C354.687 286.667 355.121 286.773 355.617 286.773C355.939 286.773 356.233 286.727 356.498 286.636C356.763 286.542 356.992 286.402 357.186 286.216C357.379 286.03 357.526 285.801 357.629 285.528L359.237 285.818C359.108 286.292 358.877 286.706 358.543 287.062C358.214 287.415 357.799 287.689 357.299 287.886C356.803 288.08 356.237 288.176 355.6 288.176ZM369.328 282.818V288H367.63V279.273H369.26V280.693H369.368C369.569 280.231 369.883 279.86 370.311 279.58C370.743 279.299 371.287 279.159 371.942 279.159C372.537 279.159 373.058 279.284 373.505 279.534C373.952 279.78 374.298 280.148 374.544 280.636C374.791 281.125 374.914 281.729 374.914 282.449V288H373.215V282.653C373.215 282.021 373.05 281.527 372.72 281.17C372.391 280.811 371.938 280.631 371.363 280.631C370.969 280.631 370.618 280.716 370.311 280.886C370.008 281.057 369.768 281.307 369.59 281.636C369.416 281.962 369.328 282.356 369.328 282.818ZM387.268 288.176C386.423 288.176 385.696 287.985 385.086 287.602C384.48 287.216 384.014 286.684 383.689 286.006C383.363 285.328 383.2 284.551 383.2 283.676C383.2 282.79 383.367 282.008 383.7 281.33C384.033 280.648 384.503 280.116 385.109 279.733C385.715 279.35 386.429 279.159 387.251 279.159C387.914 279.159 388.505 279.282 389.024 279.528C389.543 279.771 389.961 280.112 390.28 280.551C390.602 280.991 390.793 281.504 390.853 282.091H389.2C389.109 281.682 388.901 281.33 388.575 281.034C388.253 280.739 387.821 280.591 387.28 280.591C386.806 280.591 386.391 280.716 386.035 280.966C385.683 281.212 385.408 281.564 385.211 282.023C385.014 282.477 384.916 283.015 384.916 283.636C384.916 284.273 385.012 284.822 385.206 285.284C385.399 285.746 385.672 286.104 386.024 286.358C386.38 286.612 386.798 286.739 387.28 286.739C387.602 286.739 387.893 286.68 388.155 286.562C388.42 286.441 388.641 286.269 388.819 286.045C389.001 285.822 389.128 285.553 389.2 285.239H390.853C390.793 285.803 390.609 286.307 390.302 286.75C389.995 287.193 389.584 287.542 389.069 287.795C388.558 288.049 387.958 288.176 387.268 288.176ZM402.746 288.176C401.928 288.176 401.214 287.989 400.604 287.614C399.994 287.239 399.521 286.714 399.184 286.04C398.847 285.366 398.678 284.578 398.678 283.676C398.678 282.771 398.847 281.979 399.184 281.301C399.521 280.623 399.994 280.097 400.604 279.722C401.214 279.347 401.928 279.159 402.746 279.159C403.564 279.159 404.279 279.347 404.888 279.722C405.498 280.097 405.972 280.623 406.309 281.301C406.646 281.979 406.814 282.771 406.814 283.676C406.814 284.578 406.646 285.366 406.309 286.04C405.972 286.714 405.498 287.239 404.888 287.614C404.279 287.989 403.564 288.176 402.746 288.176ZM402.752 286.75C403.282 286.75 403.722 286.61 404.07 286.33C404.419 286.049 404.676 285.676 404.843 285.21C405.013 284.744 405.099 284.231 405.099 283.67C405.099 283.114 405.013 282.602 404.843 282.136C404.676 281.667 404.419 281.29 404.07 281.006C403.722 280.722 403.282 280.58 402.752 280.58C402.218 280.58 401.775 280.722 401.422 281.006C401.074 281.29 400.814 281.667 400.644 282.136C400.477 282.602 400.394 283.114 400.394 283.67C400.394 284.231 400.477 284.744 400.644 285.21C400.814 285.676 401.074 286.049 401.422 286.33C401.775 286.61 402.218 286.75 402.752 286.75ZM420.639 284.381V279.273H422.344V288H420.673V286.489H420.582C420.382 286.955 420.06 287.343 419.616 287.653C419.177 287.96 418.63 288.114 417.974 288.114C417.414 288.114 416.918 287.991 416.486 287.744C416.058 287.494 415.721 287.125 415.474 286.636C415.232 286.148 415.111 285.544 415.111 284.824V279.273H416.81V284.619C416.81 285.214 416.974 285.687 417.304 286.04C417.634 286.392 418.062 286.568 418.588 286.568C418.906 286.568 419.223 286.489 419.537 286.33C419.855 286.17 420.118 285.93 420.327 285.608C420.539 285.286 420.643 284.877 420.639 284.381ZM432.725 282.818V288H431.026V279.273H432.657V280.693H432.765C432.966 280.231 433.28 279.86 433.708 279.58C434.14 279.299 434.684 279.159 435.339 279.159C435.934 279.159 436.454 279.284 436.901 279.534C437.348 279.78 437.695 280.148 437.941 280.636C438.187 281.125 438.311 281.729 438.311 282.449V288H436.612V282.653C436.612 282.021 436.447 281.527 436.117 281.17C435.788 280.811 435.335 280.631 434.759 280.631C434.365 280.631 434.015 280.716 433.708 280.886C433.405 281.057 433.165 281.307 432.987 281.636C432.812 281.962 432.725 282.356 432.725 282.818ZM451.063 279.273V280.636H446.296V279.273H451.063ZM447.574 277.182H449.273V285.438C449.273 285.767 449.322 286.015 449.421 286.182C449.519 286.345 449.646 286.456 449.801 286.517C449.96 286.574 450.133 286.602 450.318 286.602C450.455 286.602 450.574 286.593 450.676 286.574C450.779 286.555 450.858 286.54 450.915 286.528L451.222 287.932C451.123 287.97 450.983 288.008 450.801 288.045C450.62 288.087 450.392 288.11 450.12 288.114C449.673 288.121 449.256 288.042 448.87 287.875C448.483 287.708 448.171 287.451 447.932 287.102C447.693 286.754 447.574 286.316 447.574 285.79V277.182ZM463.01 288.176C462.15 288.176 461.409 287.992 460.788 287.625C460.171 287.254 459.693 286.733 459.356 286.062C459.023 285.388 458.856 284.598 458.856 283.693C458.856 282.799 459.023 282.011 459.356 281.33C459.693 280.648 460.163 280.116 460.765 279.733C461.371 279.35 462.08 279.159 462.89 279.159C463.383 279.159 463.86 279.241 464.322 279.403C464.784 279.566 465.199 279.822 465.566 280.17C465.934 280.519 466.224 280.972 466.436 281.528C466.648 282.081 466.754 282.754 466.754 283.545V284.148H459.816V282.875H465.089C465.089 282.428 464.998 282.032 464.816 281.688C464.635 281.339 464.379 281.064 464.049 280.864C463.724 280.663 463.341 280.562 462.902 280.562C462.424 280.562 462.008 280.68 461.652 280.915C461.299 281.146 461.027 281.449 460.834 281.824C460.644 282.195 460.549 282.598 460.549 283.034V284.028C460.549 284.612 460.652 285.108 460.856 285.517C461.065 285.926 461.354 286.239 461.726 286.455C462.097 286.667 462.531 286.773 463.027 286.773C463.349 286.773 463.642 286.727 463.907 286.636C464.173 286.542 464.402 286.402 464.595 286.216C464.788 286.03 464.936 285.801 465.038 285.528L466.646 285.818C466.517 286.292 466.286 286.706 465.953 287.062C465.623 287.415 465.209 287.689 464.709 287.886C464.212 288.08 463.646 288.176 463.01 288.176ZM475.039 288V279.273H476.681V280.659H476.772C476.931 280.189 477.211 279.82 477.613 279.551C478.018 279.278 478.476 279.142 478.988 279.142C479.094 279.142 479.219 279.146 479.363 279.153C479.511 279.161 479.626 279.17 479.709 279.182V280.807C479.641 280.788 479.52 280.767 479.346 280.744C479.172 280.718 478.997 280.705 478.823 280.705C478.422 280.705 478.064 280.79 477.749 280.96C477.439 281.127 477.192 281.36 477.011 281.659C476.829 281.955 476.738 282.292 476.738 282.67V288H475.039ZM491.028 288.176C490.169 288.176 489.428 287.992 488.807 287.625C488.189 287.254 487.712 286.733 487.375 286.062C487.042 285.388 486.875 284.598 486.875 283.693C486.875 282.799 487.042 282.011 487.375 281.33C487.712 280.648 488.182 280.116 488.784 279.733C489.39 279.35 490.098 279.159 490.909 279.159C491.402 279.159 491.879 279.241 492.341 279.403C492.803 279.566 493.218 279.822 493.585 280.17C493.953 280.519 494.242 280.972 494.455 281.528C494.667 282.081 494.773 282.754 494.773 283.545V284.148H487.835V282.875H493.108C493.108 282.428 493.017 282.032 492.835 281.688C492.653 281.339 492.398 281.064 492.068 280.864C491.742 280.663 491.36 280.562 490.92 280.562C490.443 280.562 490.027 280.68 489.67 280.915C489.318 281.146 489.045 281.449 488.852 281.824C488.663 282.195 488.568 282.598 488.568 283.034V284.028C488.568 284.612 488.67 285.108 488.875 285.517C489.083 285.926 489.373 286.239 489.744 286.455C490.116 286.667 490.549 286.773 491.045 286.773C491.367 286.773 491.661 286.727 491.926 286.636C492.191 286.542 492.42 286.402 492.614 286.216C492.807 286.03 492.955 285.801 493.057 285.528L494.665 285.818C494.536 286.292 494.305 286.706 493.972 287.062C493.642 287.415 493.227 287.689 492.727 287.886C492.231 288.08 491.665 288.176 491.028 288.176ZM506.325 288.17C505.62 288.17 504.991 287.991 504.438 287.631C503.889 287.267 503.457 286.75 503.143 286.08C502.832 285.405 502.677 284.597 502.677 283.653C502.677 282.71 502.834 281.903 503.149 281.233C503.467 280.562 503.902 280.049 504.455 279.693C505.008 279.337 505.635 279.159 506.336 279.159C506.878 279.159 507.313 279.25 507.643 279.432C507.976 279.61 508.234 279.818 508.416 280.057C508.601 280.295 508.745 280.506 508.847 280.688H508.95V276.364H510.649V288H508.989V286.642H508.847C508.745 286.828 508.597 287.04 508.404 287.278C508.215 287.517 507.953 287.725 507.62 287.903C507.287 288.081 506.855 288.17 506.325 288.17ZM506.7 286.722C507.188 286.722 507.601 286.593 507.938 286.335C508.279 286.074 508.537 285.712 508.711 285.25C508.889 284.788 508.978 284.25 508.978 283.636C508.978 283.03 508.891 282.5 508.717 282.045C508.543 281.591 508.287 281.237 507.95 280.983C507.613 280.729 507.196 280.602 506.7 280.602C506.188 280.602 505.762 280.735 505.421 281C505.08 281.265 504.823 281.627 504.649 282.085C504.478 282.544 504.393 283.061 504.393 283.636C504.393 284.22 504.48 284.744 504.654 285.21C504.828 285.676 505.086 286.045 505.427 286.318C505.772 286.587 506.196 286.722 506.7 286.722ZM532.647 288.193C532.094 288.193 531.594 288.091 531.147 287.886C530.7 287.678 530.346 287.377 530.085 286.983C529.827 286.589 529.699 286.106 529.699 285.534C529.699 285.042 529.793 284.636 529.983 284.318C530.172 284 530.428 283.748 530.75 283.562C531.072 283.377 531.432 283.237 531.829 283.142C532.227 283.047 532.632 282.975 533.045 282.926C533.568 282.866 533.992 282.816 534.318 282.778C534.644 282.737 534.88 282.67 535.028 282.58C535.176 282.489 535.25 282.341 535.25 282.136V282.097C535.25 281.6 535.11 281.216 534.829 280.943C534.553 280.67 534.14 280.534 533.591 280.534C533.019 280.534 532.568 280.661 532.238 280.915C531.913 281.165 531.687 281.443 531.562 281.75L529.966 281.386C530.155 280.856 530.432 280.428 530.795 280.102C531.163 279.773 531.585 279.534 532.062 279.386C532.54 279.235 533.041 279.159 533.568 279.159C533.916 279.159 534.286 279.201 534.676 279.284C535.07 279.364 535.437 279.511 535.778 279.727C536.123 279.943 536.405 280.252 536.625 280.653C536.844 281.051 536.954 281.568 536.954 282.205V288H535.295V286.807H535.227C535.117 287.027 534.952 287.242 534.733 287.455C534.513 287.667 534.231 287.843 533.886 287.983C533.541 288.123 533.129 288.193 532.647 288.193ZM533.017 286.83C533.486 286.83 533.888 286.737 534.221 286.551C534.558 286.366 534.814 286.123 534.988 285.824C535.166 285.521 535.255 285.197 535.255 284.852V283.727C535.195 283.788 535.077 283.845 534.903 283.898C534.733 283.947 534.538 283.991 534.318 284.028C534.098 284.062 533.884 284.095 533.676 284.125C533.468 284.152 533.293 284.174 533.153 284.193C532.824 284.235 532.522 284.305 532.25 284.403C531.981 284.502 531.765 284.644 531.602 284.83C531.443 285.011 531.363 285.254 531.363 285.557C531.363 285.977 531.519 286.295 531.829 286.511C532.14 286.723 532.536 286.83 533.017 286.83ZM547.316 282.818V288H545.617V279.273H547.248V280.693H547.356C547.556 280.231 547.871 279.86 548.299 279.58C548.731 279.299 549.274 279.159 549.93 279.159C550.524 279.159 551.045 279.284 551.492 279.534C551.939 279.78 552.286 280.148 552.532 280.636C552.778 281.125 552.901 281.729 552.901 282.449V288H551.202V282.653C551.202 282.021 551.038 281.527 550.708 281.17C550.378 280.811 549.926 280.631 549.35 280.631C548.956 280.631 548.606 280.716 548.299 280.886C547.996 281.057 547.755 281.307 547.577 281.636C547.403 281.962 547.316 282.356 547.316 282.818ZM572.214 288V279.273H573.913V288H572.214ZM573.072 277.926C572.776 277.926 572.523 277.828 572.311 277.631C572.102 277.43 571.998 277.191 571.998 276.915C571.998 276.634 572.102 276.396 572.311 276.199C572.523 275.998 572.776 275.898 573.072 275.898C573.367 275.898 573.619 275.998 573.828 276.199C574.04 276.396 574.146 276.634 574.146 276.915C574.146 277.191 574.04 277.43 573.828 277.631C573.619 277.828 573.367 277.926 573.072 277.926ZM584.297 282.818V288H582.598V279.273H584.229V280.693H584.337C584.538 280.231 584.852 279.86 585.28 279.58C585.712 279.299 586.255 279.159 586.911 279.159C587.505 279.159 588.026 279.284 588.473 279.534C588.92 279.78 589.267 280.148 589.513 280.636C589.759 281.125 589.882 281.729 589.882 282.449V288H588.184V282.653C588.184 282.021 588.019 281.527 587.689 281.17C587.36 280.811 586.907 280.631 586.331 280.631C585.937 280.631 585.587 280.716 585.28 280.886C584.977 281.057 584.737 281.307 584.559 281.636C584.384 281.962 584.297 282.356 584.297 282.818ZM602.635 279.273V280.636H597.868V279.273H602.635ZM599.146 277.182H600.845V285.438C600.845 285.767 600.894 286.015 600.993 286.182C601.091 286.345 601.218 286.456 601.373 286.517C601.532 286.574 601.705 286.602 601.89 286.602C602.027 286.602 602.146 286.593 602.248 286.574C602.351 286.555 602.43 286.54 602.487 286.528L602.794 287.932C602.695 287.97 602.555 288.008 602.373 288.045C602.191 288.087 601.964 288.11 601.691 288.114C601.245 288.121 600.828 288.042 600.441 287.875C600.055 287.708 599.743 287.451 599.504 287.102C599.265 286.754 599.146 286.316 599.146 285.79V277.182ZM614.582 288.176C613.722 288.176 612.981 287.992 612.36 287.625C611.743 287.254 611.265 286.733 610.928 286.062C610.595 285.388 610.428 284.598 610.428 283.693C610.428 282.799 610.595 282.011 610.928 281.33C611.265 280.648 611.735 280.116 612.337 279.733C612.943 279.35 613.652 279.159 614.462 279.159C614.955 279.159 615.432 279.241 615.894 279.403C616.356 279.566 616.771 279.822 617.138 280.17C617.506 280.519 617.796 280.972 618.008 281.528C618.22 282.081 618.326 282.754 618.326 283.545V284.148H611.388V282.875H616.661C616.661 282.428 616.57 282.032 616.388 281.688C616.207 281.339 615.951 281.064 615.621 280.864C615.296 280.663 614.913 280.562 614.474 280.562C613.996 280.562 613.58 280.68 613.224 280.915C612.871 281.146 612.599 281.449 612.405 281.824C612.216 282.195 612.121 282.598 612.121 283.034V284.028C612.121 284.612 612.224 285.108 612.428 285.517C612.636 285.926 612.926 286.239 613.297 286.455C613.669 286.667 614.102 286.773 614.599 286.773C614.921 286.773 615.214 286.727 615.479 286.636C615.744 286.542 615.974 286.402 616.167 286.216C616.36 286.03 616.508 285.801 616.61 285.528L618.218 285.818C618.089 286.292 617.858 286.706 617.525 287.062C617.195 287.415 616.78 287.689 616.28 287.886C615.784 288.08 615.218 288.176 614.582 288.176ZM626.611 288V279.273H628.253V280.659H628.344C628.503 280.189 628.783 279.82 629.185 279.551C629.59 279.278 630.048 279.142 630.56 279.142C630.666 279.142 630.791 279.146 630.935 279.153C631.082 279.161 631.198 279.17 631.281 279.182V280.807C631.213 280.788 631.092 280.767 630.918 280.744C630.743 280.718 630.569 280.705 630.395 280.705C629.993 280.705 629.635 280.79 629.321 280.96C629.01 281.127 628.764 281.36 628.582 281.659C628.401 281.955 628.31 282.292 628.31 282.67V288H626.611ZM640.85 282.818V288H639.151V279.273H640.782V280.693H640.89C641.091 280.231 641.405 279.86 641.833 279.58C642.265 279.299 642.809 279.159 643.464 279.159C644.059 279.159 644.579 279.284 645.026 279.534C645.473 279.78 645.82 280.148 646.066 280.636C646.312 281.125 646.436 281.729 646.436 282.449V288H644.737V282.653C644.737 282.021 644.572 281.527 644.242 281.17C643.913 280.811 643.46 280.631 642.884 280.631C642.49 280.631 642.14 280.716 641.833 280.886C641.53 281.057 641.29 281.307 641.112 281.636C640.937 281.962 640.85 282.356 640.85 282.818ZM657.654 288.193C657.101 288.193 656.601 288.091 656.154 287.886C655.707 287.678 655.353 287.377 655.091 286.983C654.834 286.589 654.705 286.106 654.705 285.534C654.705 285.042 654.8 284.636 654.989 284.318C655.178 284 655.434 283.748 655.756 283.562C656.078 283.377 656.438 283.237 656.835 283.142C657.233 283.047 657.639 282.975 658.051 282.926C658.574 282.866 658.998 282.816 659.324 282.778C659.65 282.737 659.887 282.67 660.034 282.58C660.182 282.489 660.256 282.341 660.256 282.136V282.097C660.256 281.6 660.116 281.216 659.835 280.943C659.559 280.67 659.146 280.534 658.597 280.534C658.025 280.534 657.574 280.661 657.245 280.915C656.919 281.165 656.693 281.443 656.568 281.75L654.972 281.386C655.161 280.856 655.438 280.428 655.801 280.102C656.169 279.773 656.591 279.534 657.068 279.386C657.546 279.235 658.048 279.159 658.574 279.159C658.923 279.159 659.292 279.201 659.682 279.284C660.076 279.364 660.443 279.511 660.784 279.727C661.129 279.943 661.411 280.252 661.631 280.653C661.851 281.051 661.96 281.568 661.96 282.205V288H660.301V286.807H660.233C660.123 287.027 659.959 287.242 659.739 287.455C659.519 287.667 659.237 287.843 658.892 287.983C658.548 288.123 658.135 288.193 657.654 288.193ZM658.023 286.83C658.493 286.83 658.894 286.737 659.228 286.551C659.565 286.366 659.82 286.123 659.995 285.824C660.173 285.521 660.262 285.197 660.262 284.852V283.727C660.201 283.788 660.084 283.845 659.909 283.898C659.739 283.947 659.544 283.991 659.324 284.028C659.104 284.062 658.89 284.095 658.682 284.125C658.474 284.152 658.3 284.174 658.159 284.193C657.83 284.235 657.529 284.305 657.256 284.403C656.987 284.502 656.771 284.644 656.608 284.83C656.449 285.011 656.37 285.254 656.37 285.557C656.37 285.977 656.525 286.295 656.835 286.511C657.146 286.723 657.542 286.83 658.023 286.83ZM672.322 276.364V288H670.623V276.364H672.322ZM695.403 288.176C694.544 288.176 693.803 287.992 693.182 287.625C692.564 287.254 692.087 286.733 691.75 286.062C691.417 285.388 691.25 284.598 691.25 283.693C691.25 282.799 691.417 282.011 691.75 281.33C692.087 280.648 692.557 280.116 693.159 279.733C693.765 279.35 694.473 279.159 695.284 279.159C695.777 279.159 696.254 279.241 696.716 279.403C697.178 279.566 697.593 279.822 697.96 280.17C698.328 280.519 698.617 280.972 698.83 281.528C699.042 282.081 699.148 282.754 699.148 283.545V284.148H692.21V282.875H697.483C697.483 282.428 697.392 282.032 697.21 281.688C697.028 281.339 696.773 281.064 696.443 280.864C696.117 280.663 695.735 280.562 695.295 280.562C694.818 280.562 694.402 280.68 694.045 280.915C693.693 281.146 693.42 281.449 693.227 281.824C693.038 282.195 692.943 282.598 692.943 283.034V284.028C692.943 284.612 693.045 285.108 693.25 285.517C693.458 285.926 693.748 286.239 694.119 286.455C694.491 286.667 694.924 286.773 695.42 286.773C695.742 286.773 696.036 286.727 696.301 286.636C696.566 286.542 696.795 286.402 696.989 286.216C697.182 286.03 697.33 285.801 697.432 285.528L699.04 285.818C698.911 286.292 698.68 286.706 698.347 287.062C698.017 287.415 697.602 287.689 697.102 287.886C696.606 288.08 696.04 288.176 695.403 288.176ZM707.433 288V279.273H709.075V280.659H709.166C709.325 280.189 709.605 279.82 710.007 279.551C710.412 279.278 710.87 279.142 711.382 279.142C711.488 279.142 711.613 279.146 711.757 279.153C711.904 279.161 712.02 279.17 712.103 279.182V280.807C712.035 280.788 711.914 280.767 711.74 280.744C711.565 280.718 711.391 280.705 711.217 280.705C710.815 280.705 710.457 280.79 710.143 280.96C709.832 281.127 709.586 281.36 709.404 281.659C709.222 281.955 709.132 282.292 709.132 282.67V288H707.433ZM719.973 288V279.273H721.615V280.659H721.706C721.865 280.189 722.146 279.82 722.547 279.551C722.952 279.278 723.411 279.142 723.922 279.142C724.028 279.142 724.153 279.146 724.297 279.153C724.445 279.161 724.56 279.17 724.644 279.182V280.807C724.576 280.788 724.454 280.767 724.28 280.744C724.106 280.718 723.932 280.705 723.757 280.705C723.356 280.705 722.998 280.79 722.684 280.96C722.373 281.127 722.127 281.36 721.945 281.659C721.763 281.955 721.672 282.292 721.672 282.67V288H719.973ZM735.878 288.176C735.059 288.176 734.345 287.989 733.736 287.614C733.126 287.239 732.652 286.714 732.315 286.04C731.978 285.366 731.809 284.578 731.809 283.676C731.809 282.771 731.978 281.979 732.315 281.301C732.652 280.623 733.126 280.097 733.736 279.722C734.345 279.347 735.059 279.159 735.878 279.159C736.696 279.159 737.41 279.347 738.02 279.722C738.629 280.097 739.103 280.623 739.44 281.301C739.777 281.979 739.946 282.771 739.946 283.676C739.946 284.578 739.777 285.366 739.44 286.04C739.103 286.714 738.629 287.239 738.02 287.614C737.41 287.989 736.696 288.176 735.878 288.176ZM735.883 286.75C736.414 286.75 736.853 286.61 737.201 286.33C737.55 286.049 737.807 285.676 737.974 285.21C738.145 284.744 738.23 284.231 738.23 283.67C738.23 283.114 738.145 282.602 737.974 282.136C737.807 281.667 737.55 281.29 737.201 281.006C736.853 280.722 736.414 280.58 735.883 280.58C735.349 280.58 734.906 280.722 734.554 281.006C734.205 281.29 733.946 281.667 733.775 282.136C733.609 282.602 733.525 283.114 733.525 283.67C733.525 284.231 733.609 284.744 733.775 285.21C733.946 285.676 734.205 286.049 734.554 286.33C734.906 286.61 735.349 286.75 735.883 286.75ZM748.242 288V279.273H749.884V280.659H749.975C750.134 280.189 750.414 279.82 750.816 279.551C751.221 279.278 751.68 279.142 752.191 279.142C752.297 279.142 752.422 279.146 752.566 279.153C752.714 279.161 752.829 279.17 752.912 279.182V280.807C752.844 280.788 752.723 280.767 752.549 280.744C752.375 280.718 752.2 280.705 752.026 280.705C751.625 280.705 751.267 280.79 750.952 280.96C750.642 281.127 750.395 281.36 750.214 281.659C750.032 281.955 749.941 282.292 749.941 282.67V288H748.242Z" fill="#E0E0E0"/>
<g filter="url(#filter2_f_76_5010)">
<path d="M155.477 236.955C150.932 236.955 146.864 236.102 143.273 234.398C139.682 232.67 136.83 230.307 134.716 227.307C132.625 224.307 131.511 220.875 131.375 217.011H143.648C143.875 219.875 145.114 222.216 147.364 224.034C149.614 225.83 152.318 226.727 155.477 226.727C157.955 226.727 160.159 226.159 162.091 225.023C164.023 223.886 165.545 222.307 166.659 220.284C167.773 218.261 168.318 215.955 168.295 213.364C168.318 210.727 167.761 208.386 166.625 206.341C165.489 204.295 163.932 202.693 161.955 201.534C159.977 200.352 157.705 199.761 155.136 199.761C153.045 199.739 150.989 200.125 148.966 200.92C146.943 201.716 145.341 202.761 144.159 204.057L132.739 202.182L136.386 166.182H176.886V176.75H146.852L144.841 195.261H145.25C146.545 193.739 148.375 192.477 150.739 191.477C153.102 190.455 155.693 189.943 158.511 189.943C162.739 189.943 166.511 190.943 169.83 192.943C173.148 194.92 175.761 197.648 177.67 201.125C179.58 204.602 180.534 208.58 180.534 213.057C180.534 217.67 179.466 221.784 177.33 225.398C175.216 228.989 172.273 231.818 168.5 233.886C164.75 235.932 160.409 236.955 155.477 236.955ZM256.161 237.33C250.548 237.33 245.73 235.909 241.707 233.068C237.707 230.205 234.627 226.08 232.468 220.693C230.332 215.284 229.264 208.773 229.264 201.159C229.286 193.545 230.366 187.068 232.502 181.727C234.661 176.364 237.741 172.273 241.741 169.455C245.764 166.636 250.57 165.227 256.161 165.227C261.752 165.227 266.559 166.636 270.582 169.455C274.605 172.273 277.684 176.364 279.82 181.727C281.98 187.091 283.059 193.568 283.059 201.159C283.059 208.795 281.98 215.318 279.82 220.727C277.684 226.114 274.605 230.227 270.582 233.068C266.582 235.909 261.775 237.33 256.161 237.33ZM256.161 226.659C260.525 226.659 263.968 224.511 266.491 220.216C269.036 215.898 270.309 209.545 270.309 201.159C270.309 195.614 269.73 190.955 268.57 187.182C267.411 183.409 265.775 180.568 263.661 178.659C261.548 176.727 259.048 175.761 256.161 175.761C251.82 175.761 248.389 177.92 245.866 182.239C243.343 186.534 242.07 192.841 242.048 201.159C242.025 206.727 242.582 211.409 243.718 215.205C244.877 219 246.514 221.864 248.627 223.795C250.741 225.705 253.252 226.659 256.161 226.659ZM358.593 237.33C352.979 237.33 348.161 235.909 344.138 233.068C340.138 230.205 337.059 226.08 334.899 220.693C332.763 215.284 331.695 208.773 331.695 201.159C331.718 193.545 332.797 187.068 334.934 181.727C337.093 176.364 340.172 172.273 344.172 169.455C348.195 166.636 353.002 165.227 358.593 165.227C364.184 165.227 368.99 166.636 373.013 169.455C377.036 172.273 380.115 176.364 382.252 181.727C384.411 187.091 385.49 193.568 385.49 201.159C385.49 208.795 384.411 215.318 382.252 220.727C380.115 226.114 377.036 230.227 373.013 233.068C369.013 235.909 364.206 237.33 358.593 237.33ZM358.593 226.659C362.956 226.659 366.399 224.511 368.922 220.216C371.468 215.898 372.74 209.545 372.74 201.159C372.74 195.614 372.161 190.955 371.002 187.182C369.843 183.409 368.206 180.568 366.093 178.659C363.979 176.727 361.479 175.761 358.593 175.761C354.252 175.761 350.82 177.92 348.297 182.239C345.774 186.534 344.502 192.841 344.479 201.159C344.456 206.727 345.013 211.409 346.149 215.205C347.309 219 348.945 221.864 351.059 223.795C353.172 225.705 355.684 226.659 358.593 226.659ZM498.111 236V166.182H543.52V176.784H510.759V195.739H541.168V206.341H510.759V225.398H543.793V236H498.111ZM594.824 236V166.182H621.006C626.369 166.182 630.869 167.114 634.506 168.977C638.165 170.841 640.926 173.455 642.79 176.818C644.676 180.159 645.619 184.057 645.619 188.511C645.619 192.989 644.665 196.875 642.756 200.17C640.869 203.443 638.085 205.977 634.403 207.773C630.722 209.545 626.199 210.432 620.835 210.432H602.188V199.932H619.131C622.267 199.932 624.835 199.5 626.835 198.636C628.835 197.75 630.313 196.466 631.267 194.784C632.244 193.08 632.733 190.989 632.733 188.511C632.733 186.034 632.244 183.92 631.267 182.17C630.29 180.398 628.801 179.057 626.801 178.148C624.801 177.216 622.222 176.75 619.062 176.75H607.472V236H594.824ZM630.892 204.364L648.176 236H634.062L617.085 204.364H630.892ZM695.661 236V166.182H721.843C727.207 166.182 731.707 167.114 735.343 168.977C739.002 170.841 741.764 173.455 743.627 176.818C745.514 180.159 746.457 184.057 746.457 188.511C746.457 192.989 745.502 196.875 743.593 200.17C741.707 203.443 738.923 205.977 735.241 207.773C731.559 209.545 727.036 210.432 721.673 210.432H703.025V199.932H719.968C723.105 199.932 725.673 199.5 727.673 198.636C729.673 197.75 731.15 196.466 732.105 194.784C733.082 193.08 733.57 190.989 733.57 188.511C733.57 186.034 733.082 183.92 732.105 182.17C731.127 180.398 729.639 179.057 727.639 178.148C725.639 177.216 723.059 176.75 719.9 176.75H708.309V236H695.661ZM731.73 204.364L749.014 236H734.9L717.923 204.364H731.73ZM858.885 201.091C858.885 208.614 857.476 215.057 854.658 220.42C851.862 225.761 848.044 229.852 843.203 232.693C838.385 235.534 832.919 236.955 826.806 236.955C820.692 236.955 815.215 235.534 810.374 232.693C805.556 229.83 801.737 225.727 798.919 220.386C796.124 215.023 794.726 208.591 794.726 201.091C794.726 193.568 796.124 187.136 798.919 181.795C801.737 176.432 805.556 172.33 810.374 169.489C815.215 166.648 820.692 165.227 826.806 165.227C832.919 165.227 838.385 166.648 843.203 169.489C848.044 172.33 851.862 176.432 854.658 181.795C857.476 187.136 858.885 193.568 858.885 201.091ZM846.169 201.091C846.169 195.795 845.34 191.33 843.681 187.693C842.044 184.034 839.772 181.273 836.862 179.409C833.953 177.523 830.601 176.58 826.806 176.58C823.01 176.58 819.658 177.523 816.749 179.409C813.84 181.273 811.556 184.034 809.897 187.693C808.26 191.33 807.442 195.795 807.442 201.091C807.442 206.386 808.26 210.864 809.897 214.523C811.556 218.159 813.84 220.92 816.749 222.807C819.658 224.67 823.01 225.602 826.806 225.602C830.601 225.602 833.953 224.67 836.862 222.807C839.772 220.92 842.044 218.159 843.681 214.523C845.34 210.864 846.169 206.386 846.169 201.091ZM909.243 236V166.182H935.424C940.788 166.182 945.288 167.114 948.924 168.977C952.584 170.841 955.345 173.455 957.209 176.818C959.095 180.159 960.038 184.057 960.038 188.511C960.038 192.989 959.084 196.875 957.174 200.17C955.288 203.443 952.504 205.977 948.822 207.773C945.14 209.545 940.618 210.432 935.254 210.432H916.606V199.932H933.549C936.686 199.932 939.254 199.5 941.254 198.636C943.254 197.75 944.731 196.466 945.686 194.784C946.663 193.08 947.152 190.989 947.152 188.511C947.152 186.034 946.663 183.92 945.686 182.17C944.709 180.398 943.22 179.057 941.22 178.148C939.22 177.216 936.64 176.75 933.481 176.75H921.89V236H909.243ZM945.311 204.364L962.595 236H948.481L931.504 204.364H945.311Z" fill="#28ECD4"/>
</g>
<path d="M155.477 236.955C150.932 236.955 146.864 236.102 143.273 234.398C139.682 232.67 136.83 230.307 134.716 227.307C132.625 224.307 131.511 220.875 131.375 217.011H143.648C143.875 219.875 145.114 222.216 147.364 224.034C149.614 225.83 152.318 226.727 155.477 226.727C157.955 226.727 160.159 226.159 162.091 225.023C164.023 223.886 165.545 222.307 166.659 220.284C167.773 218.261 168.318 215.955 168.295 213.364C168.318 210.727 167.761 208.386 166.625 206.341C165.489 204.295 163.932 202.693 161.955 201.534C159.977 200.352 157.705 199.761 155.136 199.761C153.045 199.739 150.989 200.125 148.966 200.92C146.943 201.716 145.341 202.761 144.159 204.057L132.739 202.182L136.386 166.182H176.886V176.75H146.852L144.841 195.261H145.25C146.545 193.739 148.375 192.477 150.739 191.477C153.102 190.455 155.693 189.943 158.511 189.943C162.739 189.943 166.511 190.943 169.83 192.943C173.148 194.92 175.761 197.648 177.67 201.125C179.58 204.602 180.534 208.58 180.534 213.057C180.534 217.67 179.466 221.784 177.33 225.398C175.216 228.989 172.273 231.818 168.5 233.886C164.75 235.932 160.409 236.955 155.477 236.955ZM256.161 237.33C250.548 237.33 245.73 235.909 241.707 233.068C237.707 230.205 234.627 226.08 232.468 220.693C230.332 215.284 229.264 208.773 229.264 201.159C229.286 193.545 230.366 187.068 232.502 181.727C234.661 176.364 237.741 172.273 241.741 169.455C245.764 166.636 250.57 165.227 256.161 165.227C261.752 165.227 266.559 166.636 270.582 169.455C274.605 172.273 277.684 176.364 279.82 181.727C281.98 187.091 283.059 193.568 283.059 201.159C283.059 208.795 281.98 215.318 279.82 220.727C277.684 226.114 274.605 230.227 270.582 233.068C266.582 235.909 261.775 237.33 256.161 237.33ZM256.161 226.659C260.525 226.659 263.968 224.511 266.491 220.216C269.036 215.898 270.309 209.545 270.309 201.159C270.309 195.614 269.73 190.955 268.57 187.182C267.411 183.409 265.775 180.568 263.661 178.659C261.548 176.727 259.048 175.761 256.161 175.761C251.82 175.761 248.389 177.92 245.866 182.239C243.343 186.534 242.07 192.841 242.048 201.159C242.025 206.727 242.582 211.409 243.718 215.205C244.877 219 246.514 221.864 248.627 223.795C250.741 225.705 253.252 226.659 256.161 226.659ZM358.593 237.33C352.979 237.33 348.161 235.909 344.138 233.068C340.138 230.205 337.059 226.08 334.899 220.693C332.763 215.284 331.695 208.773 331.695 201.159C331.718 193.545 332.797 187.068 334.934 181.727C337.093 176.364 340.172 172.273 344.172 169.455C348.195 166.636 353.002 165.227 358.593 165.227C364.184 165.227 368.99 166.636 373.013 169.455C377.036 172.273 380.115 176.364 382.252 181.727C384.411 187.091 385.49 193.568 385.49 201.159C385.49 208.795 384.411 215.318 382.252 220.727C380.115 226.114 377.036 230.227 373.013 233.068C369.013 235.909 364.206 237.33 358.593 237.33ZM358.593 226.659C362.956 226.659 366.399 224.511 368.922 220.216C371.468 215.898 372.74 209.545 372.74 201.159C372.74 195.614 372.161 190.955 371.002 187.182C369.843 183.409 368.206 180.568 366.093 178.659C363.979 176.727 361.479 175.761 358.593 175.761C354.252 175.761 350.82 177.92 348.297 182.239C345.774 186.534 344.502 192.841 344.479 201.159C344.456 206.727 345.013 211.409 346.149 215.205C347.309 219 348.945 221.864 351.059 223.795C353.172 225.705 355.684 226.659 358.593 226.659ZM498.111 236V166.182H543.52V176.784H510.759V195.739H541.168V206.341H510.759V225.398H543.793V236H498.111ZM594.824 236V166.182H621.006C626.369 166.182 630.869 167.114 634.506 168.977C638.165 170.841 640.926 173.455 642.79 176.818C644.676 180.159 645.619 184.057 645.619 188.511C645.619 192.989 644.665 196.875 642.756 200.17C640.869 203.443 638.085 205.977 634.403 207.773C630.722 209.545 626.199 210.432 620.835 210.432H602.188V199.932H619.131C622.267 199.932 624.835 199.5 626.835 198.636C628.835 197.75 630.313 196.466 631.267 194.784C632.244 193.08 632.733 190.989 632.733 188.511C632.733 186.034 632.244 183.92 631.267 182.17C630.29 180.398 628.801 179.057 626.801 178.148C624.801 177.216 622.222 176.75 619.062 176.75H607.472V236H594.824ZM630.892 204.364L648.176 236H634.062L617.085 204.364H630.892ZM695.661 236V166.182H721.843C727.207 166.182 731.707 167.114 735.343 168.977C739.002 170.841 741.764 173.455 743.627 176.818C745.514 180.159 746.457 184.057 746.457 188.511C746.457 192.989 745.502 196.875 743.593 200.17C741.707 203.443 738.923 205.977 735.241 207.773C731.559 209.545 727.036 210.432 721.673 210.432H703.025V199.932H719.968C723.105 199.932 725.673 199.5 727.673 198.636C729.673 197.75 731.15 196.466 732.105 194.784C733.082 193.08 733.57 190.989 733.57 188.511C733.57 186.034 733.082 183.92 732.105 182.17C731.127 180.398 729.639 179.057 727.639 178.148C725.639 177.216 723.059 176.75 719.9 176.75H708.309V236H695.661ZM731.73 204.364L749.014 236H734.9L717.923 204.364H731.73ZM858.885 201.091C858.885 208.614 857.476 215.057 854.658 220.42C851.862 225.761 848.044 229.852 843.203 232.693C838.385 235.534 832.919 236.955 826.806 236.955C820.692 236.955 815.215 235.534 810.374 232.693C805.556 229.83 801.737 225.727 798.919 220.386C796.124 215.023 794.726 208.591 794.726 201.091C794.726 193.568 796.124 187.136 798.919 181.795C801.737 176.432 805.556 172.33 810.374 169.489C815.215 166.648 820.692 165.227 826.806 165.227C832.919 165.227 838.385 166.648 843.203 169.489C848.044 172.33 851.862 176.432 854.658 181.795C857.476 187.136 858.885 193.568 858.885 201.091ZM846.169 201.091C846.169 195.795 845.34 191.33 843.681 187.693C842.044 184.034 839.772 181.273 836.862 179.409C833.953 177.523 830.601 176.58 826.806 176.58C823.01 176.58 819.658 177.523 816.749 179.409C813.84 181.273 811.556 184.034 809.897 187.693C808.26 191.33 807.442 195.795 807.442 201.091C807.442 206.386 808.26 210.864 809.897 214.523C811.556 218.159 813.84 220.92 816.749 222.807C819.658 224.67 823.01 225.602 826.806 225.602C830.601 225.602 833.953 224.67 836.862 222.807C839.772 220.92 842.044 218.159 843.681 214.523C845.34 210.864 846.169 206.386 846.169 201.091ZM909.243 236V166.182H935.424C940.788 166.182 945.288 167.114 948.924 168.977C952.584 170.841 955.345 173.455 957.209 176.818C959.095 180.159 960.038 184.057 960.038 188.511C960.038 192.989 959.084 196.875 957.174 200.17C955.288 203.443 952.504 205.977 948.822 207.773C945.14 209.545 940.618 210.432 935.254 210.432H916.606V199.932H933.549C936.686 199.932 939.254 199.5 941.254 198.636C943.254 197.75 944.731 196.466 945.686 194.784C946.663 193.08 947.152 190.989 947.152 188.511C947.152 186.034 946.663 183.92 945.686 182.17C944.709 180.398 943.22 179.057 941.22 178.148C939.22 177.216 936.64 176.75 933.481 176.75H921.89V236H909.243ZM945.311 204.364L962.595 236H948.481L931.504 204.364H945.311Z" fill="#28ECD4"/>
<defs>
<filter id="filter0_f_76_5010" x="4.73721" y="0" width="1045.21" height="583" filterUnits="userSpaceOnUse" color-interpolation-filters="sRGB">
<feFlood flood-opacity="0" result="BackgroundImageFix"/>
<feBlend mode="normal" in="SourceGraphic" in2="BackgroundImageFix" result="shape"/>
<feGaussianBlur stdDeviation="5" result="effect1_foregroundBlur_76_5010"/>
</filter>
<filter id="filter1_f_76_5010" x="123.705" y="271.897" width="633.208" height="20.2959" filterUnits="userSpaceOnUse" color-interpolation-filters="sRGB">
<feFlood flood-opacity="0" result="BackgroundImageFix"/>
<feBlend mode="normal" in="SourceGraphic" in2="BackgroundImageFix" result="shape"/>
<feGaussianBlur stdDeviation="2" result="effect1_foregroundBlur_76_5010"/>
</filter>
<filter id="filter2_f_76_5010" x="127.375" y="161.228" width="839.22" height="80.1016" filterUnits="userSpaceOnUse" color-interpolation-filters="sRGB">
<feFlood flood-opacity="0" result="BackgroundImageFix"/>
<feBlend mode="normal" in="SourceGraphic" in2="BackgroundImageFix" result="shape"/>
<feGaussianBlur stdDeviation="2" result="effect1_foregroundBlur_76_5010"/>
</filter>
</defs>
</svg>
